<mxfile host="Electron" modified="2023-05-02T14:54:17.037Z" agent="Mozilla/5.0 (Windows NT 10.0; Win64; x64) AppleWebKit/537.36 (KHTML, like Gecko) draw.io/21.2.1 Chrome/112.0.5615.87 Electron/24.1.2 Safari/537.36" etag="pIQ98zTNymbRr8e13mVY" version="21.2.1" type="device">
  <diagram name="Page-1" id="R3c6v0NDPtbfQRwbU_xb">
    <mxGraphModel dx="3750" dy="1636" grid="1" gridSize="10" guides="1" tooltips="1" connect="1" arrows="1" fold="1" page="1" pageScale="1" pageWidth="850" pageHeight="1100" math="0" shadow="0">
      <root>
        <mxCell id="0" />
        <mxCell id="1" parent="0" />
        <mxCell id="HWjWSvEx0D91bDQYh4Uh-13" style="edgeStyle=orthogonalEdgeStyle;rounded=0;orthogonalLoop=1;jettySize=auto;html=1;" edge="1" parent="1" target="HWjWSvEx0D91bDQYh4Uh-4">
          <mxGeometry relative="1" as="geometry">
            <mxPoint x="230" y="285.0999999999999" as="sourcePoint" />
          </mxGeometry>
        </mxCell>
        <mxCell id="HWjWSvEx0D91bDQYh4Uh-12" style="edgeStyle=orthogonalEdgeStyle;rounded=0;orthogonalLoop=1;jettySize=auto;html=1;entryX=0;entryY=0.583;entryDx=0;entryDy=0;entryPerimeter=0;" edge="1" parent="1" source="HWjWSvEx0D91bDQYh4Uh-4">
          <mxGeometry relative="1" as="geometry">
            <mxPoint x="410" y="284.98" as="targetPoint" />
          </mxGeometry>
        </mxCell>
        <mxCell id="HWjWSvEx0D91bDQYh4Uh-4" value="antenna gain" style="verticalLabelPosition=top;shadow=0;dashed=0;align=center;html=1;verticalAlign=bottom;shape=mxgraph.electrical.radio.aerial_-_antenna_2;labelPosition=center;" vertex="1" parent="1">
          <mxGeometry x="280" y="250" width="79" height="70" as="geometry" />
        </mxCell>
        <mxCell id="HWjWSvEx0D91bDQYh4Uh-10" style="edgeStyle=orthogonalEdgeStyle;rounded=0;orthogonalLoop=1;jettySize=auto;html=1;exitX=1;exitY=0.5;exitDx=0;exitDy=0;" edge="1" parent="1" target="HWjWSvEx0D91bDQYh4Uh-6">
          <mxGeometry relative="1" as="geometry">
            <mxPoint x="530" y="280" as="sourcePoint" />
          </mxGeometry>
        </mxCell>
        <mxCell id="HWjWSvEx0D91bDQYh4Uh-11" style="edgeStyle=orthogonalEdgeStyle;rounded=0;orthogonalLoop=1;jettySize=auto;html=1;entryX=-0.054;entryY=0.504;entryDx=0;entryDy=0;entryPerimeter=0;" edge="1" parent="1" source="HWjWSvEx0D91bDQYh4Uh-6">
          <mxGeometry relative="1" as="geometry">
            <mxPoint x="707.3000000000002" y="280.3140799999999" as="targetPoint" />
          </mxGeometry>
        </mxCell>
        <mxCell id="HWjWSvEx0D91bDQYh4Uh-6" value="antenna gain" style="verticalLabelPosition=top;shadow=0;dashed=0;align=center;html=1;verticalAlign=bottom;shape=mxgraph.electrical.radio.aerial_-_antenna_2;labelPosition=center;" vertex="1" parent="1">
          <mxGeometry x="580" y="245" width="79" height="70" as="geometry" />
        </mxCell>
        <mxCell id="HWjWSvEx0D91bDQYh4Uh-16" value="" style="edgeStyle=orthogonalEdgeStyle;rounded=0;orthogonalLoop=1;jettySize=auto;html=1;" edge="1" parent="1" source="HWjWSvEx0D91bDQYh4Uh-14" target="HWjWSvEx0D91bDQYh4Uh-15">
          <mxGeometry relative="1" as="geometry" />
        </mxCell>
        <mxCell id="HWjWSvEx0D91bDQYh4Uh-14" value="thermal noise" style="rounded=0;whiteSpace=wrap;html=1;" vertex="1" parent="1">
          <mxGeometry x="500.5" y="350" width="120" height="60" as="geometry" />
        </mxCell>
        <mxCell id="HWjWSvEx0D91bDQYh4Uh-15" value="noise figure" style="rounded=0;whiteSpace=wrap;html=1;" vertex="1" parent="1">
          <mxGeometry x="660" y="350" width="120" height="60" as="geometry" />
        </mxCell>
        <mxCell id="HWjWSvEx0D91bDQYh4Uh-19" value="cable loss" style="rounded=0;whiteSpace=wrap;html=1;" vertex="1" parent="1">
          <mxGeometry x="160" y="250" width="70" height="60" as="geometry" />
        </mxCell>
        <mxCell id="HWjWSvEx0D91bDQYh4Uh-20" value="cable loss" style="rounded=0;whiteSpace=wrap;html=1;" vertex="1" parent="1">
          <mxGeometry x="710" y="250" width="70" height="60" as="geometry" />
        </mxCell>
        <mxCell id="HWjWSvEx0D91bDQYh4Uh-21" value="" style="shape=curlyBracket;whiteSpace=wrap;html=1;rounded=1;flipH=1;labelPosition=right;verticalLabelPosition=middle;align=left;verticalAlign=middle;" vertex="1" parent="1">
          <mxGeometry x="810" y="270" width="20" height="120" as="geometry" />
        </mxCell>
        <mxCell id="HWjWSvEx0D91bDQYh4Uh-29" style="edgeStyle=orthogonalEdgeStyle;rounded=0;orthogonalLoop=1;jettySize=auto;html=1;exitX=0.5;exitY=1;exitDx=0;exitDy=0;entryX=0.5;entryY=0;entryDx=0;entryDy=0;" edge="1" parent="1" source="HWjWSvEx0D91bDQYh4Uh-22" target="HWjWSvEx0D91bDQYh4Uh-23">
          <mxGeometry relative="1" as="geometry" />
        </mxCell>
        <mxCell id="HWjWSvEx0D91bDQYh4Uh-22" value="SNR" style="rounded=0;whiteSpace=wrap;html=1;" vertex="1" parent="1">
          <mxGeometry x="860" y="300" width="70" height="60" as="geometry" />
        </mxCell>
        <mxCell id="HWjWSvEx0D91bDQYh4Uh-24" style="edgeStyle=orthogonalEdgeStyle;rounded=0;orthogonalLoop=1;jettySize=auto;html=1;" edge="1" parent="1" source="HWjWSvEx0D91bDQYh4Uh-23">
          <mxGeometry relative="1" as="geometry">
            <mxPoint x="976" y="580" as="targetPoint" />
          </mxGeometry>
        </mxCell>
        <mxCell id="HWjWSvEx0D91bDQYh4Uh-23" value="Shannon" style="rounded=0;whiteSpace=wrap;html=1;" vertex="1" parent="1">
          <mxGeometry x="916" y="480" width="120" height="60" as="geometry" />
        </mxCell>
        <mxCell id="HWjWSvEx0D91bDQYh4Uh-30" style="edgeStyle=orthogonalEdgeStyle;rounded=0;orthogonalLoop=1;jettySize=auto;html=1;exitX=1;exitY=0.5;exitDx=0;exitDy=0;entryX=0;entryY=0.5;entryDx=0;entryDy=0;" edge="1" parent="1" source="HWjWSvEx0D91bDQYh4Uh-25" target="HWjWSvEx0D91bDQYh4Uh-23">
          <mxGeometry relative="1" as="geometry" />
        </mxCell>
        <mxCell id="HWjWSvEx0D91bDQYh4Uh-25" value="bandwidth" style="rounded=0;whiteSpace=wrap;html=1;" vertex="1" parent="1">
          <mxGeometry x="740" y="480" width="120" height="60" as="geometry" />
        </mxCell>
        <mxCell id="HWjWSvEx0D91bDQYh4Uh-27" style="edgeStyle=orthogonalEdgeStyle;rounded=0;orthogonalLoop=1;jettySize=auto;html=1;entryX=0;entryY=0.5;entryDx=0;entryDy=0;" edge="1" parent="1" source="HWjWSvEx0D91bDQYh4Uh-26" target="HWjWSvEx0D91bDQYh4Uh-19">
          <mxGeometry relative="1" as="geometry" />
        </mxCell>
        <mxCell id="HWjWSvEx0D91bDQYh4Uh-26" value="transmit power" style="rounded=0;whiteSpace=wrap;html=1;" vertex="1" parent="1">
          <mxGeometry x="-30" y="250" width="120" height="60" as="geometry" />
        </mxCell>
        <mxCell id="HWjWSvEx0D91bDQYh4Uh-28" value="FSPL" style="ellipse;shape=cloud;whiteSpace=wrap;html=1;" vertex="1" parent="1">
          <mxGeometry x="410" y="240" width="120" height="80" as="geometry" />
        </mxCell>
        <mxCell id="HWjWSvEx0D91bDQYh4Uh-31" value="capacity" style="rounded=0;whiteSpace=wrap;html=1;" vertex="1" parent="1">
          <mxGeometry x="916" y="580" width="120" height="60" as="geometry" />
        </mxCell>
        <mxCell id="HWjWSvEx0D91bDQYh4Uh-35" style="edgeStyle=orthogonalEdgeStyle;rounded=0;orthogonalLoop=1;jettySize=auto;html=1;exitX=0.5;exitY=1;exitDx=0;exitDy=0;entryX=0.5;entryY=0;entryDx=0;entryDy=0;" edge="1" parent="1" source="HWjWSvEx0D91bDQYh4Uh-32" target="HWjWSvEx0D91bDQYh4Uh-23">
          <mxGeometry relative="1" as="geometry" />
        </mxCell>
        <mxCell id="HWjWSvEx0D91bDQYh4Uh-32" value="SNR" style="rounded=0;whiteSpace=wrap;html=1;" vertex="1" parent="1">
          <mxGeometry x="1016.74" y="300" width="70" height="60" as="geometry" />
        </mxCell>
        <mxCell id="HWjWSvEx0D91bDQYh4Uh-34" style="edgeStyle=orthogonalEdgeStyle;rounded=0;orthogonalLoop=1;jettySize=auto;html=1;exitX=0.5;exitY=1;exitDx=0;exitDy=0;entryX=0.5;entryY=0;entryDx=0;entryDy=0;" edge="1" parent="1" source="HWjWSvEx0D91bDQYh4Uh-33" target="HWjWSvEx0D91bDQYh4Uh-32">
          <mxGeometry relative="1" as="geometry" />
        </mxCell>
        <mxCell id="HWjWSvEx0D91bDQYh4Uh-33" value="" style="shape=image;verticalLabelPosition=bottom;labelBackgroundColor=default;verticalAlign=top;aspect=fixed;imageAspect=0;image=data:image/png,iVBORw0KGgoAAAANSUhEUgAAAd8AAACaCAYAAADo4kIzAAAAAXNSR0IArs4c6QAAAARnQU1BAACxjwv8YQUAAAAJcEhZcwAADsMAAA7DAcdvqGQAAP88SURBVHhe7H0HYF1nefYj3aG9JWtZsuW9V6azEyAEEsKmQKGUUlr+llJaSgsdUEbZEAJhhJEwAtnT2Y4Tr3jvJdmWrL33vrpL//O837227AxCSGIT65XOPed855vvfr/znXMSxgmYhEmYhEmYhEmYhNcMEmP7SZiESZiESZiESXiNYNL4TsIkTMIkTMIkvMYwaXwnYRImYRImYRJeY5g0vpMwCZMwCZMwCa8xTBrfSZiESZiESZiE1xgmje8kTMIkTMIkTMJrDJPGdxImYRImYRIm4TWGSeM7CZMwCZMwCZPwGsOk8Z2ESZiESZiESXiN4WW+4WpikYTYXnAiffykdAfHUyzbOMYnZEk4fqJ0ZTjZLzi17MnVn3TyCkB8HKfUG08WvFiTz1P8xYtOvCp4pcfzQvBSB3S2wan0ECScjK0XIdnzl56ESZiESTgBf0LkKxXzfGrmhdKfD8YRfU7+KLeXUv6PaeePhVer3heD+Hhey7Zf6/b+nGAiPU7g6IWw5XKdnPdkeLFrkzAJk3C2wZ8Q+caLTbTfE9NP9fWfGxq4CJcb/xPsOqMLpin1eK2Wl9dOqi5WLlbmNQXrD+FlNPviReNjErxWdwPk6AhOAx7/DCFOHcFJkS9R506jPHwhXArXk3iehEmYBAcvy/ieoneOw4l0TTqfWu0Eg3JSBTwZjxuBREQSXI2JpsgIljfeCvf8P6m4/cZT4vleQbCq+ROrOj6d/iq0RFBj2iaN72mBF2OjU/jg+D2T2M4VjfOsfuMZBSqnHKemT8IkTMLZCi/P+LKEqRLqkVNUDK/ZLxJ5QceKBFzek42vsjk7q5OI2yd4EIkZnoSYIlNpK29niabXXI/tx1KfG1Uwd/yQEB9iAhMnHr8YHG/D9qzfsqs3qtv15iVDrM1YJazjpfXh5cKpJJ04bsHzncfhOT09uSqDV6vffyw83zj/JFB1rNPZ1Yl18YKuxWdqjAfIizq081gqr1up4+sXCLzgZnji/ZtY78uDF6LdnzucSs+JcOo4/xDtX6wuwSuNt3h78Xr/UP9OJ7wSfVMdKvda4/n1BH+a8XVn9huHaKw6mSkpISMQ/xITTxhfNWnEUy7tTWnp7q9+mc8Umx1ZisAZb+Y3gvMwFi0rn1pISPSwbeVTrxLM+Mch3l78WH15MaaIqiKCyyHHgOVsU9/kAqi8Jf9BsLaj8elIQgwfExl3Im7+VIjXKYiyXdWtfby9RCJmQhZLP4EL65kduV/SRP23/Oq3y594PP/pBde3E4M5eSx/PFhdVp8ba7xmUcf4jFULQ+YEchfHpXK7dEGsD+JPVyB2RelKevn9Ex3jEK/nT6nvTIL42OLjOZWuE/eCU2l/qgzFef5UiJf7Qzrgj4FT+3JqP3X+SrX1SsCp/f1j9U+8/KljmlhnHJTm8XhiZ5MwEV6e1ifOhXcpHbeR0S16dSASyFDZPkag42SxgwjLhM3cRmVobVM+GgsRVURkmkxWvB4ecnO1uCr149oXmPCynMqcCnGm0F6M9nxMMhHiPDWuMcVOLNJh3VE6FC9eWr1yWxwoerGDE/t4H14toVT9qnviWHUuPMmQxM9Phok9n1COf1ZffBxnIJw61pcFVl5GM66440pKuIzXLb7ksbXnUpwDGDOMSncHGI+w/IS0WPaXDRPp9SeP9QwDje25/OjG+WJjjdP91DzPZ1zjeZ6vnVcKXs26X0mYiK8Xw+8LwanjPNUxfC1w/ecOLzvkcmqFm5BsiNexjCoRzj+Z4igRH9F1i1oJKsIfp6jCLBplvnHmiSssXouGuWMaz1TekfSUbvK6Slgpi0hcq+OKfnXZMp2AODPEDe8fZgjVoHq1i0W+Eyr9g8WfD1goXkx1qfevFsTHGB9nfPzx4/i5S3puP5Rs1/RjB8KqYfuMg/i44vs/BdwMTLw+N2YLCmR4eS6el5mNz8LwwPDjyjjOi9PVarHrluV5+fKPhVdijH8OoHFO5N+J4PjWbYI/FOHGr03MFy/7SsPEfkxs/9Vq7+XCRLzE+/mnwMT6BDr/Y6PpsxE8/0uIHb9kUGQqVDuaRdHd2YHPf/6LqK+rxqZ1T+HGn/wS3SMhrLrvHmzdugvnrbwA3uPEiSI4Oohbb74JP/rl7Vh6wUpkp6dYZR7Wt33TOnzuv78EX84UzK6YKlVnf6YANR3MfIqUgRC6W5vwib/9O9xx1z246567ce99jyIlMwdzZ06z/jkIIzDYj82bt+NYUzvKyktt2nQiszwHNDA1ycNAIIDHH7kfX/3mjUjNyEJ52VT4PPSq5R7YvT0dGSIsv6nomLJ2KQKdA10drbjvrvtQMmMmUlKSeJnXDYnuuqozzGqMduQUvkvTvzu2XysWtRyaoHduCq9oqp97XesjXe6870GUz56LNJ/X+qV8rQ01+N1dD2DhshXwWdX6457H7nlrbQI5HiG0tfeQjtuxevUalE2bjrTUZHdZhWLgDlVO/YgBI0j1R1eNfCddd+njzOPGy/NY391IHDjsMlWXeW63FoRbJljVgkgYa1Y/gd6RIIoLp8TKKiN/Lb8r69IJsROVFy+70UcRCo7hmXUb8PAjD2OkvwtVx2pRXDYNnS11+N53voeH16zHzNmzUblrK770v1/GnCXLkZuXjUQq9vraI/i/r38PCf40hEf68PX/+wY279yN1rYWVO3fi5DHj7yCAnMjHX/EOhHrpI1FybZTmrAg6uqCwDmD0UgIv/nN71BSWoq0tFS7YrhRQeHJElxFKitcRUUHtWzprNeqjOW1jA4D2gz/bMjVp2vCNdtlGYcrV87xpvrosk0EncaTxE+WL0YEnZ1oTXWTd9UYr1ub3AcDQ1hDXA8Mj6GwuIBlmGz3kVx70UgUzdQ1qx5/BhUzZyPJ61EGq1fNSCpc/UIM/8NB3HHHncjKn4KsjHS3HiW2uSqVl6WV5g7jP1ZFHMwh03jiY9GOm3ATy4CW+lo89uhqzJg7l3rixHSr9StefxxidQiTcTB5MCwpr8P28TITyp/gW4JldjuB6tTZ8fHEMrjaIhjqaceDjz+NzNw8ZKankq/ihlK8or34xlVoxQ1cv2xvicIDdTn14zOSvWAURVPycNtvbiOfT0FmRprltny2sRg7Jn6UTpBmcf1UvTpQbm6WxyUZnnkQ64r1SXtLsz+VcSnxneHr+GmsZeuI682ZBC/fPbHRCVkRGqhRlJfOw0c+8iH4wh146LG1KFiwCH/3sY8gGqAwSQGwgO4HSxCT/B5k+cexivnaA0EkWsSsax5MK8/HmmfWYV9TN9PCZAzHms7uivDMxxNdO3pwFyoPVOLI4aOorjyApzfuQFbxDJu6Vp4I87e01OOJ3/8c73/He7Fm22GaEvbZUeYFwaaYY9FNcmoqZk3PwY7KWsxatBB+P40Yo+EII/SI+sTjMPsf0QipFNRH18+QedtRZgoTR+KxSHAIv/nhzzFIRtWo9Gd9UX9ZJsJ6nCeqeoUvGZ6o5gh4LhxM3PNacBSHDx5CXzDEsiGmqdY4Q0bgGe7BjTf+CG1h5x6YsuGRP9CD7/7gZvRbVvXN9Vn1qr9CtoRDW3isDzfRmZo+cx4uOH8lWBXHztG6jhzf1G83Kl5jHZYnqj4xPcwRxPI4/MSOLY144qZmiUimsUvsk+67K4/wqB1Ry3wOz2zAdZt/cdGWEUzKzLIytu4gll/9dHUqXceqU1ssLfY3Pj6GZ59Zi6c37MbffuIfsGjeNDz55GrD7dTSPIQGh9EbzkRx+VRcet5itB3Zhb/75/9AOw1EFF6UTS1AfuFULD//AvJLATobO5E5ZSbe8xfvxeLZJfjnT/0bdh1tULPsh5rnGDRGYyLNAnHPQRrFeWw8RqdCM0fRyCgOHTyKIPuiSe+y4nJ4/ElEl/DKMuRFlVfekMpGiByVs2O1Jxw7/hKto6z3wL4qjJAuUcsrvLryKhsyvDFZfBEZQ+2hI+gb4Th1nRci3Iy3xZkag/Armtg17tU267PyVhGPhXsehtQPu+bSeWj5mUBxYzqvYrwPD9y5CvuPtDl5Zbprk/qA9cs+DXc14NZf34uhsBxPVzzev3HiJRodQ2VlA3UT+Yd1lhSVwJOUzGNm5Lk5JGpXoPEKjzwXz6gLxILYzNodZ7tRnoRiXVY/jD/DLEuetZ3VE0Y/A4Lbbv4dRtmMaTUWMKMhHHMjxnhBdeq6+nCCRx2NREtiVmm6RnoY7pjXyRXbsTEKT8qjhnWsvrMv1kfVr41llMHysn1rI4LgcDtu/e2daB0KOl1nZXhNo2b70pvWhuinllXf8X0w1r6rK4Fy88jdt2F7bZONZ2pJKbzJcs5ZR6x/6jt7YPi1vvA/yFRXj/iG+FT/eJ1NGq7FXcZL0iHKE8OHjY383NhUj5bO/th5DA+sT/UIx/E+69qZCi/P+JLbzSuJKfOs7By89y/egWQapkQiRhfC1PQlJMRfvvstCA4Ooqm1FU0NDRgeJWISPXRUfdZ4gErtyNEj6BkYpZFiSoKXpaPw0Pv2EG+RsQA6mprQ1NSG4XEvIomJZqxZCTxpZXhqyzZs2b4JT91zC86/YCFmzy9jrSSS+sY+FhWV4cJLVyLV70OY7Qqs2y8RRECvF/D6k5HI8qJxhN2MsP9B7sfHhzHS04O2plZ0tLfznP0TrwfH0dzWiZa2OgwPB6w/GVlZSPYmc3QJGO3rReXRWowGRtBYexT1zEvtirqaSiuXSEYKBCPoGRyjl19L/LUgTLfU+q7IhMqjaudO3Pj1H6C5sxshMupI/xC6GO12dPcgRDymp6chndnHhoZx6PB+dPX0EzM+5GXkw0vchESAhBBGh8ZQRxp0dXRSKbEFNSKmpbB3NDVj57bdaOkbxsw50zA1JwO9vV1oaGlGW0+vCZEYPDgyisHBHhyra8AojYRF46wrISGI4bEQRkZGUHv0ILr6BzFGhXj06CF09g+QRIpaoujq7WW/29E/MMTmxVvj6BsYRP/gCI5UHUL/SMD65AkOo394FI1s/9ixOgRpQBISvZi7cBlK83JYlsJKPA4PBdDS2EC+aTA6SbmGR4nLtia0d7VLToljyau8cNKVwtpQfRRN9U3oC4SRWzoXH37fh5BEPlM44E9MQVKCj/UTOZ5UvOtd70ROchhf+eoN6BdTeLykbyq8PuZnxJOQmMScXhYdx7RZZUiKJODA/qPWrmZ4xhPEi1oMp5mFRjTUVDtjyL8web6LNOxs60EwRNptWYNvf+dWNHX0UwEn4Pzzz4OPxlf4DY2NIjgaRH19HVpb29jXMBo47vrmNl6nGmKe4eGg0ba3i/WxzWOVB/HlL34LrR09ZlyjoRBaG5vRxEifLGe8wX/j/XryzTe+/DU0tnYiHJYBYN862tFCeeynzFpEzX/nAhGTCWMYHR7GKOlVU3MYvcMDGKGDfZQOcvfAAJW78An0UWZayNMdXW2xxwuVHkFHZxd6uvvh95Iu7MNwfycOHjqMMfarr53HVceoXBOQmZnMyNKkge2G0TvQi672FuMZJuDork341v/dhJaOPoSJ6nPPPxdZNArkIDqQUeKqA20NjRgk3+oJCzk1Q+SZkdEADpPfBobJwxpaDA+2poWdaOtuQ3d7G52yIHXAOPMPoaOlAb1tbQiwOynp6Uji3wh13uGaoxgkbWyRKK8N9HShnnLWNzhkZRVADA8NYrh3CEerD2MoyHOO/eihGoyO0aCQR1S2q7MFR49UU3eKeuwP5cWiaJ6Fw+Qf4qyN4xkj8aKkuWZHhigjbW0tqKutI85jeot525lvkLLo8fjgVWJsk5kVc472D6Od+rars9fwIsdtkGMRvTsoO0E6O+q5zGlX1yB6SEefN9Fm0ESNCy86H/6kJNZJI8/xjDAyrqWst7Z3GYcg6kMoPEactaKzvYPS6mNNTk4ohIzlwuTpIOk4jPqGegyNhjFGGnV2dJFXusFYDkO9bfj+V76C7fuPULcMs49hylAraojbITEK20kkjhJEQNbtenbmgXr3soF4MOZIz8hCWXkxa3NEsYFrvFSKPka53/3y/6G7sx2/+8WP8Nn//Q56AkQQrw9TcVQerME9t/4Sf/03n8BhKhs3bcqLFNDx0T58+6tfw/ot+7D64Udw669+h4C8G927pfGTQGVkpDGSTsDarZW49KJLkW0cpY6JNfknY54YNhLIMNq0Cvv3YiBBSZTx4V7Z1Sc5G+ZlqXd0AuQA+JmnZv8BPPzUOiq4ATx0/+24++E15hXf/vv70NTSjh4yxQ1f/QrqaSBN77Dvilj279iFmtpmjIWH8Mi9v8CNP3uQejOAu39/C35626MY7G7FV7/wefz0ltux59l1+Pxn/gUPP73VmFSRvWYcOrq7aEiGMEajMtjRjZ/8+CYatw787Je/xIG6TutrJBTElg1bsHrV7fibj/4DqlvpLVLwNB0oI9BLJb/u2fVUqC340n99FZW1LQgSPxIxGaexIdY/Ro+egh8OD2PPnj1Yv24zDX0/7rrzdqxas459aMJ//8tn8Ktf344f/+JXqKlrJN5Fw3FUH9qJT372v7Fx0xbs2b4en/mPL+PZrTtQuXs7Pvv5r2JgJITDO7bj1jsf5DHp/bXvYoDGet/mdfirj34Kz2zZikcfuAuf+od/p+Lrwc+++0185bs/w56dW/DVL30BP7tzNfq7WvC1//gX/PbupzE8OICbv/0t3Pzbu7Fn67P4wuf/Gzur6hANBnDnb39Lo9SC399xG/7v2z+i83OMqthjSkiO1RvefCHaj23DP33ys9hV2YjF5yxFfgY5R8qOCswrR0HsFfHCm16EH974Dex+6n7cfs9qGng/+SMKn2RfvGJamxuNZQ2drACN7MI5Mx0fcTNlHhnBhs3bUdvQgaceexA33PwbhKmwHn3gfjTTkdu7fQdaqKR6aOyau7vRP0YnqeYI/vEjf4PdlcdIu3Z89bOfwT2rVjP9MD736X/GI2vW0hAfxWf/9bM42t6HwYFO3PDN79OwDOM3P/0p9te30TC0o540CtIpDDJUWrd+HbraWvHIQ/fgZ7fcxQBOciIZiWCgbxDNrV0YoUIULz3+yAPYU12NXvbpx9/9IfYca5SocsxOWI7u2Yl/+dd/wdotu7Fj4wZ85nP/gQ079qOS/P7vn/sSjXsIleSh1c9sohPVgTvvuBWPP/Y0HcsINm/ejF17qzDYM4am5g56KVH01u7Hxz/+r1TCETRV7cLf/8Pn0U//3hZpymmiQFcf2IVf33kH+vq68L0f/BKd3YPoI082dXVhIDCKpupK/NNH/wY7d+6nAQqSbx9BPZ3KjpYWfJtKvIlOSHXVPnySdT+7lbLyxL34z//5vkW6UkQJNBDjUS+eJN+0ss6qo/uxt6YWnV3NeOLpZ2gMunHjt7+K9dsPko8SMDA0gD37duOJBx/AN7/xE9KezsfRKuzdU4ljhw/ji1/6MtvswhMPPYwv/s+3cKjqAO647bf43vd/zH5U4uE77sWtt9yHMeJk+/atOMaocv+unfgf6sJ+TT2xR9JPCZEh/OSHN+FofQf27N+H2+64k4ZrCL//xU/x/Rt/hN0s8+UvfB3rqD9DwVE8+sijdOI7afRa0E1Dlii9Jp1GvSSntaHqMHZs2oke6ur//NLXUVXTgFYGBg+wnwODfXj28Sfwm9+togEM49lN67Bv/yGOfRhNdfXUeYlmtP/xbz+CtTt200Hvx1f+419xxyOPY++u7fj0P34arXQywjS8v7r5V+jo6MD9d92GL33jR9h7pI46kfJFR3C4rxnf/K9/w003347f3vprw+lPfvgTOhhtePj+e/DU5kOI0m7UHaFDzv1YKIotm7ZRhmrJx0/iuzf+zJwQDUrkky43Mp6B8LKMr5S6FdXAODK7Z0CFIpDhFEGVSwPv7emmh9uO/MIpyM9MxAP334uaHkU8USQnpeOcC5ZQuD6Eqm2b8bv71lHoWYOmO+jBVR8+gJt+/Ct4cwqR64/gJ9+/AX1EtjxleWqJiWNU8mFGx0O477HNuOq6dyONTY/LOLLt+H0LeT8eMpdn3CY7VFKJLwry0iyvVRE/c+mJHKtHhj06gl/ecAsWLL8AM+bOwLve/Tbc+LXv06gewj1r9+D8FYuweNk5WFSeg+/ffLdFrtHoKDatW4/Mijm49urLkJWWjuzcYlN2niQPpmRn0vj5kMb9ED3XkooFePv734X3v+9a3PO7ezHA6ENd0dhy8rOQkZqNaaUlCFLJZOYWYEZ5qUUe2/ceMRxrhuHyN16JT//bv2DJ3Fm47+5HqVLl04Y5hjB+f/u98CXnorSiHFOm5GP9k2s5SjIu+5NARyG/qABpqSkoL5+KVF8YN99xH+YuOx8L5s7HWy9ehN/c8ls6s0kI9PageOoCfPHLX8K8eTMMR+KSfPbxcE0TKuYvxFvf9hYcO1iPgooZeOs7rkXXoWp09I5SgPswffZ0lJaU4NjuPajrHEJxUSYOtnTh8quvxic/9Wl4O6qxvaqeBmMQyQXT8ba3vwX/8k8fxd10yBLSs1A0JZtKj5FHmp+OUCfGEgtw7fXXoawoB7v31qOtqR5Prl6HinkLcO7ShWinci+bWUEMiLIyhF6UzpqPX/3mx5iXFcTf/eUH8Jv7VmHQ6O8nwi02EOKJHkWUScgvrcBPvv15/Oz//hN7DhxjNOPuwSYwZPNRkezdtxOf+8xn8Mu71uCr3/8WViycTswSrzK8rKajoRKPrt2IrKnTsGL5Iuzf6hTflvXrUV1D43/ZJZhSMBU52blITc9EOemse85JjFQV8WTm5KGH0W5uUREuu/IKFCRF0I1UXHj5lZidHcWGA4wYx0aQmlWCGWVT4A204Zk9h5CbV4qkpFSUTyulAarDE5sOopC4X7ZsKdY+9Qz66MwZnxM72Ww7PSUdU6cWo58R3+pH12PxihVYuGwu5syYjV/+/HcYYSRpDjNLTCnIw+EjRzBtyXy8+7q34MCuXSidPxdvv/YyHKaR7GH0+/3v3oQlF74Rs2Ytxl++/Wp846tfZSTcjZ/+/NdYdtllmD1vFqaXldDZiSCLjn2Cx8/olbyYnQa/L5HyIX3jZFiO0xAJX1pYirJp01B/7Ahq6PRmUxZSMzjGqUWYWUGc8S8YSkDj4a1Yu/0wli1ZgaXnnoOZOVHc/PsHMaWwAPto+JctP4dO3wexZs12jFDWhAeNTDMK27dvwoFDtViyfCUWFhfgoV//Eikz5mDWvEX48F//Dabm55nDmZKShvNXrsS7rn0zDm/Zju7eAdxPw+3Nn4IF8xdgoKsRB47WUZ786G7rx4LzzsXbKKNHt+1B6YoLcd11b8Tejavp+PTRQN2LtMISXLB8AQ5t34amzkFzwKVbQYduaCRI2VqAmVMy8cRjjyGYlEn+82FkKIQr3/oWXLx0EbY8uxX1lfuxhQ7QvBVLMG/RLBTkFyCk2RfJuW5LBHvwqzuexKw5C7FgyVL81V+9B9nU1/f+6l7kl1Rgxrz5ePN1b8Cq2+/G0YP78ct71hBXyzBrPmk1azq5OhHFxUVIY7A1QPbOyMmhMW5AZmEx3vbuDyAt2o0d9U3o7+3Ag3c/jjkL5mDlpYtRWdWKpXNmWHAUJZ3TM7MQHOpC8pTp+Px//TfOXTgTfn8S5kwrp57yY+OWPUhPy0ByajqmlDHgGw3giUeeQHZRKc4/bzn2bNuIZkbkkq9xRg8M1VizSe4ZB3/YCr0QGEdqpykNnti/FJnuwdAzs6sRzF+2GB/88PvwNCOk7p5hm8cP0nBIh8lZDvMnMysbGSleNNQ5DyhqL9sA6huPIEDk9tOLqli8DDd+//vI8Mrssbzdj5CRBjrpGXYOD6FiFolBgZWCs+lEXnP3BHw6QKInYn2NidMLgwhnLpP59GbENDpnzFWfmx4MUgEepDDqGWONOCevAFmMTo7s30OvLEglwVJRD2YsmI0j9JSts6EAHnvwPlQeqTfFL+9T9yk0ZtWtniVYeD5GzNLR8PrIlMmYPWs2fIFBRspq2+VTZOpjGY2quLwMb7z6TThMBRLSFC2Vv8bhUUTmJUYSM3DxecvQQuUUYkEvxyADsX3HATJpBj1jDz7ydx/Bu95zDWuOYUg/Co8ZZXvYRy1ca6ptoJHxG33yinOhxS99Q0F4EjKRlpSBJCpJn6bUNBY5Ujr2JXMMpBu9UR/FLDHRq5HBOxykFzuG5ZfQWFBwD1UdxUiUDlUkzDx+2xSZevw+LJpViBZ6zopQNZshPisvL0YO8TRMTzfBwzTWL76AJ8Q2Ga3QA/MJt8FxM15+fwKam9qR6EuhwpxJ3HBoHJuNlTjvHQgjt3wJvvytb+Obn/sovv4/n0dVQzfr5BgSdU/KraaX8dW9aE2Zr7j4Cnz+0+/Hf33qH6kYxxBQxEuHUKK1ePESvOnyc7F91wEaSho/KjqbtVCowetdDQ3o7GyhDg2ioGQmvvW1/0RuwRR89OMfxgO334avfecHjA6JI5vujjmUcppMeCQFrI+41GIuTZ37mBYivSKs389rQ5SJnClTcf31b2D0sQ/RkWGbNh5jPZEEv/F1Q+1hdA6MYTQUofGahe9+70vwJcWm19mOZFRGWDzRoWnizj6mEc+kzezZM9HXcMx4UjNgoncikTpOnh1TZ7mlSj+Qx8cpexjqQWSQke+hIwhTjsc5puyCbEbaEbRWd6CuoYV0Y7onyPq98IakkhnmJoScsTG+Eq9pLx7WPUfQGbgA82fNwsFK8r5ueURY3ghFl5u8EiFv+Lhpurq5ropOGr008QrHUbGgHHU1bTwnhtnfKPOL5WH3vl0dBr5xfPyfPo4n7r4N//H579DgR7BvVyWSteiNDu78hSuwYEaB0SEhMY0ywCLkGVIHw4NjqDlUYzwfYt4vfuWbuGjxbHjZJ4/JgrSoB0k6Fh49DCgC/TYt29TYhjBpE/Zn4aZf/gyluWnGj9Y1Ont/9/GPoenQPvTSUR+j3EgufHIWvUmsl46Aag+N4eCRGupdzeI43hFVJcPEpPHk8EAvDhyrRjQt2XB/4fnnojQvzdbURChzEZZJz56CQsri4d1b0N5NOSWfsBqiTvXJIeA4SH9pYNWr53vHveRE0o6iRz4hdmg0szPHUd3YyrJJzlFn+3Sp2FOrhnjxIyktCR7yQmFWBt79rvfg8MED6B/qRyRM3SYcR5PIVx60Nteit7OLzmgEKdml+N53v43SnAzqXhegKcAQ65yJIKz90eAGI/TqWALCMyJQN7k1RaNnd6XSEqMBbHnyHvzTZz6PQhrPYnp+mt4gHzOPhM9Nb+p+YSg8jhVL55mCkqCJ5adPr0Ayqx+msCw65zwsW7wIfl3kJhaLkskSwiN4+PF1uOSqK5GqQlR8Wzc8ge/d+FP0j5K91EkpTvZJxHKm11j3RcF8+Vg2kdExiEOYttGePhw60kxPsQgHjx5lREu1GBlG3rSpWETPsfdYJXpoFMI0dIOBEUbHy1iO0b7Xi09+8v/hzp//FIdqqHg1Je4ltqIyKB4KiFNirJB7h2Mpr+GBYcxZvBTpyT4qH/ZIS/mpwCKeAOsdx6Hd+/H7227D7CULkJWthUeOQhEqPVWnaGwsMIxLL9PKc2JeiXRK8vMZYVbtsaihfOpUDPYOc6zEkCpQFjlCVHJeKrvU1ExMyfCh5tgxc5qCNGoFRcXIy8xh/6mwiWfhVriyfqtd4ZyKTILgHAwZco6UexN+juPRO2/FjgNHsHTRQmTqBjvzapGalKY5PtFEBChsK+bP4DUaZiaphTE6ZtPmLEJ+WiLbZDTIunRPT/gbZ19EPvVDqbn09P/+E3+N3vYuZOQV4cMfeR+VnfonkScvsr2HH3kSHSNU9v5MvOkt16OYimh0cNTaVDZDmWqkgo7SIKhueNLx7r/8a6xcOhuPPvwA6MOwQRlM1pmYgquuvQ4fvOZ8fOnf/hNdvQHW5PheC4dSszNMuaakZWMqed2bnIK+7h54sqbixz/6DkoiA/jdqlWISGDYPxFVONWiJeFYRkKjNIXNvbBMl8XGq3uKcnZqKvfiRz+7HYuWL6ZyytQAGANyMDLSzJOZkY+Gg3uRmZePqRVUhElejA6NMF/MxZPhtwgCmFI8BZEQjUJ3H2ugcR/tw1w6GGl+RzNVKxkzugsNlsZNAsO+0JxiPCkJM2aWopbRsfocDTBiKitH7tRUDPf1Y6BX95GZTucwKEeGZZN57GE9EeqGIPEqmmm0YfJvkDRfveo+bNi2HYsXzEO6P53X5DzItMtBUs9pkI3OUUydOYsRfBMGRxkIUA4CdDyWLJul2/QcslHG+Ngr54olxKWqIkwnetifi5//9HtYWuLFT367Clk5qdiybjOvJyBAZ7uppYvOh5bfqSzxoKapj1J8dADGRtHVxwh9+jQUkhf7ersk4mqNfxovM4/TaPI4TJnW4qNcGiDdT05g5DetfCoj/1zKZz8L0aSQLgj14L8+/x8orJiDEkaBugVueNeP+MXOjCg0eNmoPnrYbjPovqstE2Mey8u+JidlwhvuwfY9u9k29c3gMNp7ApgzpwLVVYeEHPojQSTnF2PWzOkYaNGs1aBqUQusj3gSH3JQCr/MPZACFTMwh6J1LzOmpKfis//zD+igE+xNysG/fOoDxLf0uZwhl118Z93iUWtDNX584w9QvmgBHdNca0NV+0h3D9vKzEpGS1Md/D7N5MxgEJdpU+RykO3JDfKj8p+JILH44yGGV7GmIzCTSOC+ni7U1jTaIqmmI7UYHQ3Z/YGh4WE89cCjdi8mmVFYa1MrkqiwL7twJYnYgWcpOJe8+Rq859pL0dnRaoza29KKabOX4//9zV/gx9//Dr51083YumUbFa+MIJlVXjANapjR4AOrn8bb3nY90hiFKRJb+9QTuOWW29DbP4LRwBCOMKIaHB1FHY1kD43mH6KF5EDLcKTIda+whX0cprAcOFSJqsqD2LBhHb76pW8jMTkDf//Zv8OerZtQc7gW27cfxAf/6WOYOmMe/vlD1+PRVY+i9lgj2jpC+MRfXYf+/l70B6PIyi3C+962Ev/5X19CQ2s/Fi44Fw1HtuCR1ZvQ3TVABta9EQoiO9J0rB611TU41tSEd73veiST+cTsUmZZBXmM+0awb8c+dHV2Ys+eA9iwaZMt4jpypBKDJM+s2WVoPFKNevYjQm/46msup4Lvw2AwjD565H//offhiXtuwee+8AX84je3q2KOXSqISIgkYLBvGIMUxJ6ufo43G//4iY/g4LZtqD1cgwNH6/GBD70XSeMj6B7qZBRH2tEDFd5EJYnh4MAIgkN9GKHXOjgwiJGRPgz09WKIRm0gNIT+vk4qpUH2eyM2b9mBhBQ/x7HbjPNYfzeOsZ2Dh6pRdu6VWF6RR4EbJv+0o6auGTv3VOMD5I/xMY6Fim1ooBmj5L3BviCGacTGGDV2sy3dW+zt7cPjqx7GwQM7sHXTNux4dpst/JLDY/ikMe1vb8a99z6CqkMHsWb9Nlz+tndg8awSDNDxae1oQVv7YQz29zNabMBa1tHeN0AuoZr1Z1Oh/C8uO38+cUE5oAPT29OBtuZ6RuWJ+Ju/+xjKsn343y99A23dvWxTisqD0tmLcfmi6Yya/xk3/PRWPLv7AKib8MyTz6B3KIrzVl6I8xfNREFhARVtH3bt2mP80Rscw2BPN8cXQC+NSKC30+77942OcAztCNHJ6qUBHe4ZxPBwD/bt349nn92METqI9QePkKwpKEyNYsvW3ZgydTrOnZWLf/nHT+Gmm2/BgT37kJGRKvYiK/iQlpWJlIwk7Ni+H0lZ2XjXu6/Hlqc30gGj8uVY3vOX77aoJtEts2V0MoQQ244MjqB3sBcDY8MMeMlvQ2Pk/aAtoPuPf/80tqx+GFU1tdi2+wg++am/pxNXgA+87zr89DvfxbZN+9Hd04OekR54s3Iwf0Y5Hrj9Puw50IDsrBQEWH8/+WqY0WE/2xgeGsD2zVuxedse6qUQDpF+KTRU3sQQdu/ca/enR4d6yQs9KJp5Hq59w1Kse3oNjtU0oCeSi79655vIjwPEW4CKe8gWg4VHyDf9Q86gcGgeOq/PrHkc7QMBLFl5Mc49fyH+6uMfxsZ7bsN//+9XcfcDq+BjVNdDugwM9qBroA/dLD9IPh8jxd/9gb/Az7/9XXztW9/CPfc9DH9yEh3qNgxoQdqIZJF0HWol7gYoE4PoCwQRScnCO955Df7rX/8NN/zo53jisSeRk51OvSeuJYHYp9amGjz29GocqT2GkYFRNNY3orO/j7gfRmh0EO295H32Qc5XSXYKfvXz27Bn+yHq2EEMdHXrKT1zVn3phfjHv3wXfvOjG/DVb3+bdT7L6DMH7/vY+9Hb1IxD+w9iz979eMO7rsaC8y/Dey89h47ILdi0aQe6yGcjbFMzCkOk70hXB0Kke+/wKAYph8ER8ib7M0rZiYwM43d3PYTaQzuxaesubHt2qy3IlOWVHI7yuJv97enoxVgw5BYcHtmPNXRyejoG0UFj3DMUQMmsUuzdvpv0ScaFF67Af/zbZ3HjD2/G+vVbkJ6ZRv2hiDdmfLU/A4GOoUzNHwlWQl440WWD47GUTk8zjchh9EWSkZZbiPnTp9JDGcWRozVIzi5GcVYWahoaUDqzAv5wgAFEKoZ6KTw0tnmMoLKoeDuaa1Bd24LknCIsmTcboPGrOnIMiSnJmF3BcvQiRSQZRxmISHAYuw4exeIl5yCF/VJEMjTQi+auYVTMrkCUDNhERdHZ3Y9xMlPFjAoU5WSZl/hC4F4vGbboBWTS5qZaHGsfRjoVQQYjBnlWY/RSlzOaTfZTcLq7OY4whS8VU6hENMElJ6CBUY28wOzCHCSnpNEgdKKaY5k6by7SPGEcqKzGtIrZ7E866hpr6fGmoiDNj6GwF0X06P7zHz6K8jd/HG9duYCeazryqQjH6aLLi5dpYxiCuvoG+FNzUTAlm9HEMaRmZiKdHnNrZxdmMpIZG+hBGw2Pz8++TSlEKh3m/o4O7Kfimb1wMdvxo7OtBbUNXSifNRP5ubms23n9CZFEGspWHDjWgpLyGSguyLbptB4q+BEabn9OBnLzchEZ6ELlkQak5U/BNEb+fptilu2OYKirBZU17Zg2azrSEgKoPNxC52QGspIYrR86ZryQl56Ew8caUDy1DBEK6CAj3sxwAy7+y//F43f8Ej4OtaSkkPWO4Cdf+Aya0i/DRz94JVKowIoL8knjYVRXH8aYPwuzygvReLgaEUaTM0oKUHO0CuOZ+SjKSMamNavhzc7DMJXBAJ2KZecux7lLFoniZOFhM7KBMB0GKtBRjx9l5WXISPRyrL04Wn0UgcQkzJ1FnNIpqKYDULFgEYoyU+y+oyL63oEh45GR/jYcPVIHT2o2Zs6YTnowou1qxSHivGLOfFOCCbRumhYPjfSz7mOIJGdhzoxpjMbp7LUN0JppijABhYxIPTQox+rr4c/IQi7loIrOZG5RCQpzU3G48hAyiqahtCALhw/tI02mYmZxNh3OSiRkFmMO8VFNx1BRdn6GD/XNg5g5pxydDbV0xtIxrbSYhnuAzlo1fJm5mDVtGjxepwh9NNbj46NooOMXSmTeqYVIjATQ2kJjNu5lJJZN45zK/jEK0T0eRnk9PS2kZQsq5i5gxDpEvqhD+cwFyGCd+w9VoXzOXJTmJdOZ66GhHkNKSjplJl+KiI7uCI7V1sHnTWEEnoKULPY53YdeOhxNnX2oYPu9vT3Im8I+97XjaFMb8cmIyB/FkeoGFJWW2ErxwUgE00qK0VTXCk9KEvIyk1Bz6ChSp5RgankRHbhRtDZ30XZ5KDcFSE310EHopDw2Y/rCOUgN96GyinUvXoQCrWBnBKXHbto6KKPj7Bv1QiEdIq3sbm/vQVN7F6ZXzKSMJqO7uRH1Db0oXzgDCcODaGjowLR5c5CX6kd9YyM6yCNzZ8xFZloUzaRBV3cUM3l9qLuZMtuPmXPn0Eh1WZ2z5y1COpn/KJ2UETrSi2bPQpJP6w9IHxng8SBa27rR2j9guvYoHWwtfO2qa8QQo/9ZM0vQXFOPsdj0bnhoGDU0znmkm1a/5OdNQRrxoycSolEvyRdBc0sT2phvxszZyNG0MvXpYH8A3dTTnuRkFBcWwkc6h+nwHmNgkJCUjFQ/6a9bh34vag7uhy+nEBXFOagkvZPzp2J6fhaDlr1ILZyO0swIHnxkC3JzM+mQ09EIgHp6ES4/fw55QO+AGMbhqmPwUGZnTi+Gjyq4of4Y+5tqTzM0tLZSh5djlHqtvStAHVfGYGUUh2tqEElMw9yZM5AkHUk9bYtK5aSYMuN2hsHLM74G8WLxUfHckmSUT4zWJiCUrrTjRU6U1aGdWXYhTBMWPLE6lNXldXW6bLEUV8SO9HNiqsL98oyVW5pLOl6H4MTRC4H6YTvmnTgmV+dJrbOPat216fK7Sy6P2/GqsuqQdVmdlhw7Pl5dlEqBkScV0b9//BNY8r5/xgeuOx8+pmmiQvdX1JU4XgTH21X9sbYMTqrbfpjmej6xH0qzSfVYFpfmjgUnleeFOPlcuyePKw46Uq0n6KkE5dIxt3g/rEy8Qh5HdYtgHJ11W3Hxh7+BPRtXIZOKzxy96Bh+9MXPoav4cnzuH98FPw2eHCQPcaNI0uGUuJNDaNW6jo3ToN35+9voHHrwrg+8UxfQTEWYX1CA8tJSOzcDrCPh11L0y2qsa65/J3hQ7bgjy+lOXBqTLBdPJvKbGzvhpLHzNF42hgdXt461WZKl6dSyukOXf0I9Ajt2hyeO7YdnbEhtxUoc/7W67Zgwsb+E+Ngn0v9UebSS/FdNsVqO13USntyBqybWb5dsR+43jiOeuTZ5zn8dxsfrYELdaieeHssT76+NN1bP8bHHz4//CuLXCVaHTT4fz2+51IYuuTP+Wm6D59ajQhOPdRrvr/tx5ZlmHTxlPPFjpR8vx3w8sOIEWzGvvS7Gxh2/eLzdib+x/sQzObwcP7Pf4zvVZwcso8N4fcfLWIJBvIXj13TpeD5KlfKpbyajYTx5963Y1pqEf/zQOylxYbS1ddjtrIrpNKJWm+rSFqvEgMesVCmqzsai41hDhi87jJ2rOXfoxhw7PtNAk0svEzSiiaPisRBmysshyl3lMdPtPJ7l+J9djqW5dCsfz2/XlTbhPLY/kaIj/h0/5Y/ya+cSTqQdL/FSwGplMZWdOKaJv7FcvG71KyvT4ldO3ulAeewolqJzHcaO+SeSaN9PbzaroAiR4R4Mjeg+GJlXjCSBsOKuPiurnaW5fbwupdt1+4tdO17GpVmq4Tx2/Xjaie2k8vqNp2sXO59IM20Cdy1OT+WZQFsrHDs+/qckx5Itzd1YMW86muuancDxd3iYeEjK1FOUtsJV0aMJK/1bgQmv6jThdDVrlkBHV131JgaTCfjpT36KbVu3I48RZXFRkbKoUW4xGsbKud/Yz0l9dYkn5Yxfn1B+Yn7bjl93x+6627tj7uzX0d+du8uxH/c3Mf/xY/d3PM/EY11XNqXFj92PHccSLM1OJ2zuQOknrh3PH7+sP0ubcC12PXZ14qXYcewkfo2bwYRMLp1/sTQ71942l/d4O0qwRHfs/nRs/+7M8k84P/4bO7LrsbQ4LyiZ5wY6cTljafGjE2l2dLzcxGNd1LFS7YrlNlrH8py47q65v5PTXT63xVImXNPe/bkyLu34cSxdOzuMVeUgnui2+DUrH0ufUPR42vF07WN/lhY/jv3aOyE4Vkn2hVe+BdkpPtxw4w/sMarMjAxMn0YH2JSbpDxen0pLFmLy4BJcezqIpbl0yxFLjeWbcHymAh2r2Kgn4YwAkUPPi7rHURIRsRWQWtkpI0IjQ2rZq/bOYKZ62cCxuUUvWi8ZQDAhjSO2pSscryJT7iNRhDw+PQJqwqz5bQmo4gOtXDbEGEtr9XOUxlcrp3k1KmHVQhPnjTshZnG34mQSJmESXgWQNOttXd6oHGQtD5TwSadxJ9mknNpCXbOignHKpHPAX+/wso3vqcVOIG8S/hRwaOXPcfy6qVWZCq1Ctim216vxJdhrBw1oXSm0ElSzlIr8+adHyLREymJbRb7HjafyykA7IYceq1C+cb1xTcKselSDjl0bKjnJt5MwCa8eyE7ofXc+vW2KoibJ1bMwWqEvGfZYuuTaGV3l/3Myvs9nPl+qTnlZo1SDp26T8MqApkzdAUljRtbFdWJcWwbzOjcWNuUkwdSz0zZ8jdku8F/3vLUXaii67pkjgvCjYzf97Ao4kHG26W4dM4/K6e1bf/DjGpMwCZPwpwNFjJJme3skLrbZglH+SgS1eTyx9ImGV7IdU4dnKky0gXqF7R8Dr4iLManEXkmQIYlxnYhqJCJj6pjGwxYSvJ7RHRu7dvZuWxNdd99WKJF5tUeZ5JyYAMeB5+JDIYgR8QlwCBMmNQVmlUzCJEzCawQytE5huUViEmzKZ1yRxXbPARNT/Zz58vpy7d/LmnaOW/r4cdybmYRXAhTBCbcyIFr567WXSthUDZP0CL8i4dcntjVuNzGlxw5CiXotqF4ooXu5MYFVul6+wVzuWT6aY7uuaWXhTpjhpuM4UNhlepGgF9Prvm8szyRMwiS8+hCzMFG9hIe6LdFeKKRzSWHMIEu+DSSXTFMSf0xuj1878yBu/yYev1Rb+LKNbxx0/O///u9YtWpVLIUNx667Jetx5GkvRMcRqXOnIPUuGp3aV1iYw+XRfTtTsbygyCdeT7yMtXQKuOu6JnDRkx3x2OW2R1YIasVBPLfKKk2K/JUA1qd7lgT3mISbatFCAxkD9ySlA4cn9Uhpsf5YfxXpCjcqq+eOdcHFflaN9VkYi5dxO7tocAJfJ0CGSOVdmyeuuxpfdWATMVLEQOPRGLQYI94Hjpc8ZK9A5LgNL0xWnzXWsHASKyMwQaVR1XOmVtx4Ru/ecaC3Lqm0nll0fKBju0RwB65td6aXYDiI980qJdgNAAOXxk07FnK00OGp+H4+cHRzWxxcyy5FxxyryRE317WTIF7yeS4Z6Lo9SyzZie/dpQkwMcXVGKfBc/M6B8bRQvXFezCRl+NpwptA6Q5TJ3DowBwsSzs5/Q/D8+FuIjg6nMr38dw2LnsUTbrGpTx3rM8PcRrrowYneJgHx/Vd7Fxjo2NoxzEd+NzxvhAPPB9MzHMqsIxdZhux4o7HmXh8dshRzvr1HLzE85wAJ2WujlPp9mIgltAbCDRmLRhVN6xLPFBN0u8Get2v1eveiiVwvw6/Dp/xLV6JfrSd3FeVic9ondDxtmPueP5YwnE4MWbXAq+zzRN6WBC3Iw5nx4/tQHlVnvXEurh82TLccYdeUsTT2Jj+ELws4yvQ/LaKqqHVq5/C4cNHmBpDHjur5rWWTRGbXkyfQMVnHw+IEvHWYf3oUW8NLZlRDEsljDFdA1RkM0Ym1zue9W5QfcdU+SXUDtHaHGOoJV11A1ZtzrQoMopSgTOFderGvl5rqNc9urKKqcQQUsgsF3UPr4+rD0w/WYGcCrru2nsxcH0hi+l9xDzQ+5Ttpeh0NvTOUb351T6Bx7165FhUit/V71Lio3XYdeNUz1WPMw4y6k6IdE3llVuv4dN4lM/VoOdfxZh6laJw6/JbD7mpvGvBpT8fvNi1lwbCtT7xp3dSi0MiSGGNmkgO8Fiv1zvBRaeCG7P+lEMRscbyQrkFakMQ77PO49hQOyeXleJwfKZPQPKave5PqVLUMvjuqjb9irfNobJfrcv+Q9gRrjVaUTZ+JNppZLamO5YWo5XaM6MZp/eJ2u1YQk4eP5HqarXXYbKslzw/RjLrc4ZhvW6PaXGI89YJcCOz1ohYvQrwZEoov65GKEsehHQvXSkJeqGK6lYW8pEcznF9z5VlE4Lcu+Vx9ipDGm3Xjn7dc9kOTozAXY+fTzx+IdwJnBw893ocZzqLU4/nZnz1ClAdn8oFrsaTQXWoBg95NwGpkaC9XtXhR5v4QFhnLtNfeoP5MPd6wzZrNBmUEmdNrN5NvyovS5uliPXrRcDhyvXtRA+tRqtTP3r9pmq2l55EeW6LEZWiJU/iJ+kblZBm1lO2jqd17HSARql+Ony60rrmWnphUO/0Ss5xjNFhVo2+aJg8pzpU3mu1Sx+rHn06Vlxh+ph4nMiXJ+DEKHVsssCjExKoTWNSjTLiIbMtOo8wwvZowaV0jBl8p+tOSJDa05n+HA206VOxriU3co09SqeeVFch4tfHcbEE6w15ZTd83FxdxUWFeM973mn28FWPfCcW27p1Gxoam3gUQ6IEkOCUmQyghuMUlT5yIASeQJpyssMUaB27x0UcKyi/pij08pxEpgsZxkAaMM/jwusI45hQRy66dKkyvvJoPEyUstYLHNS0SO5KS3Hw6LjxFaJ1VQQTuFzaW1d1ZJ2Onz0XXHs0LGxQ08RyLGTwNGopLoEUnHsHrYgopuRoTXhcVGcrm92RjVqDU/8dMzv86ky9spFad1RG15iq8twk6C5idkxmIBxTASmy0qfv4iN0jKQDt3tZEK/sBUDo13eEJajecX2IINU+fiDF4YTE5Yl3wbocO9dIJ/TWZbQM8dyECYfPgRjPqoiOTuDYpTnFLbOgFwIK7+7jA1IaUqqiq64LHL85BW/nZqxfrHEBxygeYymBK6vNpUkRSWn5o3pPNUU+Qd9F9ZAj9MYxt2pb/XLFXbnje9cNB8SL6tPjWDKS/ojeF6wM6mOsOEGtWjGrxlXghqCxub1BbKck8YyUtz5AoDzuE5esyRXgsZxJfTeXsk9ZsjzEqK6r9yfgRC8ciP46juUxXnRawMDqf37cOeCx9SN23foZqy1+IJ5XxGuBgFPcMgD2kn7JhBW1EhMgdm6IkRNDx5FZ3RumtHftKZ/qsHFb8BBgH/xWzMmf8jMP9V+EjpCPeArZ+4mV19HrxYGNTcxi3WKC/ok6wz/HZprEZFt8Qs1hOkV6lO4+21O6bzxoOlUzS+JtVSL+Esfbl47YbwUHakRa+zjWJ7ZPiGHGcK0xGj6UiThRsBHhj9Gcbao9D5GhKmSUpcvse+08cKlxiB3HKjfccGzG9zqP0VWgIzvjGN2jmdSdllepzhl2LpHjPNHCldcV5YrTUfyu0dNKeWTESUMa8kii4xO9YU71RpBEp9TZHQviKPNyKGUL83JzcNVVV9iHJV4qvPScLwDOCMfREQMpGGNKDVMjFgKkDMQQyiCCiwi6SiUcoR8kIjCfeEiZ7OMMHLiMiVBnxXhR6eq2jJXbx9vWsSNI/E9q9MQQHRFdBxzR3K+usAUeGIEsf7xOgct/0vY8SRM3NSOmUu1iMjkeqlkKy7UrgVB/iQd7JEaKQPnUo3j7rndKt1PbuR7Gl+k7Q8uU4+e6quMYxvivcYkexysxiOHEjLDyC0/Kr81dcuDa+6Mg3tQLbPrMl2jnFDb7QZorypLTYX0mWJ9jYHSJnbsx6cSNVsYqrvQtjx3/of5axth2MpiQc3PKS3hRlcKNvuoinmSKKSuHZfXf+JHXLLeuT6z+OZt+Tpy6Why9daT3WYsWocQk1stWiRtR0nBjfB8vqU1gPTy+OUPATYqXoLG4fjp8xXEZx6eB+mz1CJiL8izaOKc1lkyQAne53JhdPpVQ3ZJovfbVRVI6U/9FafGoqybWp1gJpau+GAfbJqfWtWEVu77F+uBacXjSkavH8Xn8msApV9USS4/jhFs8XSCtYmD0daCr8fpO1Onyu/J6XtUFEzrX+GVw1c34zIck2b4FTlxIf7l6TtRynBZs381uuDYtwwttBicSrH8al10jZWwo6o+Tqyj7FNGqYdMtMX1h2V3EqX6FEpN5JqfO6WbxnWbiHEalr9yYeGLXJ27W/oRN/44WbJ9ljbYumRccnpUm0Hjj9ThdrmOHhZPACgt4wMpcCeWJH3Gvf+FTjZmMuGvOEsRrdDOcx/mAe93SEii/y+scFEuzepRTOIj1T1kM2C6PzVETbnjiPtjBnDbLwKRY3S8FHGb+BHi+Z7LUvhM5Ik3CEBcIm4aRMtFvLOodT6LjojpC5mkoMX6PLmyejIZJJtHLF6w8icwB63lPrexW9KHxi/D61aZnRa1qbgK1b+1xM2VGhhD63JdEhECxhhjGKrK0idF93MFwo3DjelGgEo0ychEhbVEQIzwx9zj7L4fDCS/HFdFbmuSbJZsXLClyHpwGpk1dYb94LmbQ59TUkxA9Vnv5BvvpQAylqZag7YULw7N5vfqLj8H1/viKeLVFBnQ4dUnCSfxY7Z7YYomEOG7i20sH5hVu5C3yTMLtZ5TJnvPcKXSl61dDs73lkwJx5xqdeqxptbC8dJ7Fv0bjcmtzYDNE3Ls+ui3e33hdJyB2zJ34w2Y3NG4TbqYbLrUpXb+uLo1FX4FRmt7/++LAfNaO8rneWh/ZTiKjXc2WSCGNJfqYTo9bXrZFksoj42bcyzOdu/aPH9uRanWbtcQ+ixMMdw6BBtrJkTClHOchHWug4iOGKeJRjdZqUrIduzZFLyFFMmn12zXhTHytL+64/FJuqt2qjeFTnzvUcQLH6ijp5FY16Es+hmWdWKp+rAY7Nnl1R3bMgJ77eP+4V1ZeM53AP8m4lSBdjLfozOg8MSJc6r4jFa3KMxK2sas/VqfblGJgZR3NNMVuTg7bEM9p8lZtanGgjYub3u0ORpoWXdvgNV7mVf8S9K1kch51gUyVRuymi18ErJzrj7WpKm1TiujI9tgfRKRL3YtkxqVLE/R1JDoB42lqBUkR6g9eDOozo9xLV2gEhkvSzSbPeWz90xUbJ7dY+3Fwrbq/OLg0yaPo52RL973tiQVedHUq3dHb5FV4UWEDnfOKfuLA9h3O+MPxiYYC41s7UhvSYTpSOvfE97jS2BIv8ld1qGLihzvdLk2kXEkexD+OAuRidktfs1IxcyT12VBekzMjHJhzxfaVW+BsliDWE177Y1/Y4/lfQuz4JUN8TtvtE9Dc3IL+/n47PgEOQeqP7t8i7MH23Qexb/9uVFUdQnt7E7Zs2gpfUhEKc3wYGunGhm170N7agdbGRtTVVSMvvwRerw/93Y34xc9/hXWb92HGnJnISnOGR4OtO1qFp9dvxKx5C4kyIZ1t0pCpbRHeQMJHBg+PBbF29TPo7h9GYak+wSWCkgFM0RDYV3sRd6zv8edDBS91Ht+IQc9o3ITPj+H+djx812244/4nsGzlFUjyiO3YBiPAuv3b8KX/+y4SMotQWpyLRK+mhKQsRUj2if0W7c27o3LubmvBqseeRH75HKT6NWUtojtPTnnCY4PYvPFZe7H9jOnTeZGjkqGnwjO+4LlGpAhc4j7U14Hf/u4OLFx2Dvx0483wMofyGpPGmMletxfbTxSOk/ngpYGE2kNlNzYyhKfW7URN1UFUHj2CluZabFi/DXPmzbGpmzhrR9QP1q8oQ6Ae9na04sG7V6Fo7mxEBvtx9133YPbCRSwnPCmX6Mc+sZy660TcUrg5vCZ4FKnEK1Um5aWI2Rh5rDY1Lo2d+WkJrbSUtqvd0dE15+oyPKnMC4Bas3zCs9qLjVLUiARHsHbTLuw7dAjdlI29u/eiuGQa/PqmpilXUi5GB1eT67u67hxgtmvKlH2J9UFK3UU6utWjcVP1xas4CVx+XW+sr8Xqh1ajhHRI8rGUGJAgw6VITX0whch0fUW4tb0FVdUteObpJ5GanGJfj+oe6MPOrdvsdaBTCqdIB1oTpuj0KTzuA32duPW2O7Bk+Qobv41D3/WbMC43jFjf7EQY1wXhnwNhX5QsKjg6iNKOTpopUC7JhXAgxujt60d3dy9a62qxbutBzKqYAb+XCprXbCZG8sIyVk+sPTPchl4pYtZEZ0if80wIBXD7PQ8gwRvCj274Ppr7xjBrWhlJFcQzTz6Gn/ziN5hSUobCvEzykdMjuq2k2b2+/iH0dg0iPd19oUj3GpVDef4wuFxOr8rQhDEyOIQnVz+Nw3V16G9pwL7DdSiZWYH2yk349vd+ht6gF8X5Gdjw2P24/b5HMXfpuUhLJtZojPfv3sm0R1BSUoraw3tww00/QSBEujY14iCvedOy7BOlaut4/0Qcd2DdifNgIhlDBldRt5f4022lMWTAS7ns7W7DHXfej8WLl8GjVc9GP9I7qoAipqcJwntcx4gedq50tW9MIWqTtsKpBTbStaKheEF9VN3Mx7KSr9aOHgSDAaSlaP0G22H+g7t2YdveA5haMR27nl2Db333JqRkTMGxo3uwb+9u5E2ZjpSUFHR3tiEwOoqU1HTXHlsWDoyvWJc55rYlIjU1BTNnVFh/XyqIrV5xUNeEKDkHEgsvvdwnH3kU+6qrccXlV+Lat12Hi1euREFuPgkdwCgN769vuQ35RTOw4oLzsPLC81GcnYFf/fJnGNQ3Y/PzkJuVhbyiUkwpKGDdJmrWUnlZKa666kr7iLdFcmqRAiMlra+caYiOUQGf12vfDO2hgtAXZUywiDjrMbW7yBr3royMvB6RmxljgJcKmoqQulPRLPZ7NvvY19WNPZWHWSuJKGYJj+Dw0aM0xuOYOmMWkvRNVAknh2ZkjkhhqNdsm/XJKCT7/aitq0dYLpu8SjETGVhxvBwNj5dxZGCUCqafRWNKWIaDY3KzAREM0+jtO1hpzJSZlYHr3/EOjt3ddwLpxAPxrSur1o8zE/ukAVl/HDZO8lJfCkiRs0gk0IMf//QXSMvKwxve9FZcc91bccnKc83rVJX6XrEhjzBxZkU9MUb3J1FQahCmschMz8Db33Y9fD5GEsxwfPontlm/Y3urXEeqk4fx7puAi2YqK5qzDVPe5iEz0vFQ1KioZBADtjbB5TNEsV77mh7xHavuBUHXXZukBcuqp6pKdKk5fAjVDR24+hrKxvnnIDUtFSNUgvresRSM0ZiFT21D+BGPKj1RzGMKhryhNI2LTtu2HXuJTn0s3vGeTRebsbFCzO9kQEXTUpLRSCUej0Jde5JojZf1SuExRdKiqHzD2rVISs/He951HYuHsXd/JabT8XvTZZdiRgWdIxpbGyPxKNmShKrWzIwUvOtd7+IFOS6uBY2TuoxH6o/aE504brVmK9zVV+VRr2Swudc5x2hKWfxltYk8bvwG7HNXdydqaptQXFwIz/gImhqa2F+WIY1tupz16Etn+qC+EGO45uZ4g8fMF4kyn15tStr1d3YiQnmbOWsmx5JKYzcHKWkZSE5OplEvJ469KJteYY6k+i/mlpOsWa70rFyMhwZwrI48bHg8wePPDyqvTeCOzTBxL7qse2odcvKK8IZrL8fSFTMxOqo4NhOzppYgic5bCfuTl12ARcuWY7S3FXfecQf1btg+5j9vdgUWn3MeSsrKMGdaAYOhDMxbfh6uuvxiTC/Kwm2334X+kYBatD9rn217iCeZTN3nNd6PcCRMT2SdUc0CaN3CyAD2HtK3zoHc7Ezq/WsZYBCHxKVoKB7Vq1/JhCbXTIptwjspaeRzrWqs0UgI+/btI286muiy5Egyr0WtYhmB+Fb3149V16BvYAg5OTnG5qpIdUaCQTQ1tcDrS8bCuRUYGQ1hybmX4g1XXYWcdA9+e/vtCIyn0Nbko7urmYFBOwuLjrqn7sbrtIrr2cuFP0T1lwVCrCOKTG8UXYyMt27ZhPMuuxxJScm8DnqcaTj/opUoLmJEvHkrRgLJqKiYaR96V8C/cE4FRhk1btu1n1Gzl8gjgUk4CYEJn5BIqnopMYODg3YsL6S3r9c+O7Z5y1YamhESiYSiIWtpaUJdbQ1CI241s4gXCo3h4IH9OLj/IMJBRpadHVi/Zh2am5oZedfhKI2j6iWPvHRgXi2RsUiBjKWFXskU0iuvugzrVz+FCN1cMcIAPUFPVgHSkiT4IiCVzNgwjtQ14fDhavT1DnCcTCeNg4EQao5Wo7251aUxsaHmCPbs2csxhFFVeQg7OYZookw+lRi9HjkgkXAYDQ2NHHctAjTKUSrA++67D3vo9XXQGZDiDoyNGY4kEENDg7Zq/QjHHWZZoVn7np4eMmsTdu/azfZCVCgSu5cDxEdiELu2bEH/aBKWLplNh0HT7n74/dl4yxsvcx/6J73q6+txpOow2lvbYmWBMfa1+kg1hUGKk+xPnpBBCY4GEaahkiLt7e2lc9VL+rONgUGi1tG6q6sLlVVV6CZvSKEKPwIpfV3v7u5Gd1sHeeEAgrzW0taGxoY6Cl8Xvfcwjuzfh1UPrUJNfTOFn3gjPvfv34tK4l6KI2R00faHQHmc4lC72hLl9NAJrTl8EO2d/Yj6crDi3HORmsJ87Iu+VdzT04Ft27eita2d/OgYsq21Fdu3b6dh6bJ6xEN9vf2orq5CfW0j+xnFrl1b8cjjTxkfjFN59XR1ckyd2MfxCM+tLW2oa2hAV2cPy9PskTkVJZtCjQ+HB/rrI+5279mOpvoWG0F7azOOVB5FU2s7ejrbebyPkXCnyU7Vvr2oofKz5xSoB7o6W3HkyGHKVovhXzI8rA+GyGiSbvrW886d28mrdayZZpF8MMgIcaB/ANu2bCb9em3c6lJ7G+sin7a2tlBug9i5fRt5eq85pdIFBw4ciNFXveYvUbNh/Q6UlNIoUuMlKfJKGCNOjmHjxm3oHwqyPSpwRkhdHIdoeqIOkKf60dTYhNqaZuhJcanhWo6lYr4+RynjSVljn20alZtHDTJd20B/P/YfPMhxHcb+bVuwY28D6ZCA0uIs7Nq5Hl3DCk5cH18cNHY3fqMG88uVUV/GAkOGg3Ag0XTK+ectRFJEt7qSzBjKwNm9XT+d7WvfipGOBjy+ZgP0yJ5PdXgTbTGWFrWqRjUiuhTk5pAGg+T1YKyDbhOPBEYZPBw8hP3E+1hYwQFlrKMdtfUNqKFjEwkHcf9dt2PXvkPo7Oox/AZGA8SpdABIp377DvM+6hTplpHAGPbSsEruxR8RGnN93rC2rtb0jwKljRs34qmn1lD+W+l469Oug3SId+PYsTqOTnQgXqhvdcsvxD7v2r6bTsU09lmOKx0wOkw1NTUYYjkixpxsH8toVFoPLs09vbSY/NyKoDl74ygtnYL1GzcjGNK4RSimahaKV0UHR5GXB6+K8TU2YZ/s5fdsoa3lGEIRH9Kz5YHIy+HAaSBSM7NQlJOEaiIkvWgaDbK8avotvO4jhUoZ5R6sOkpExJiNykMosuc/mSBvevWTj+LOe+9n9JGI6v178P3v/wQd/SNICAzgrt/fSYENY9eefegdCKGopJRC3seKyIqjg9jOiKB0+hx0NB/Fww+vpkeaj+rDe3GstgEdnb3IysujY55oK3NFVGLdCKXthcERRGzsiZJp2a8xjx9Ll6/AUFstDpExxynCdUfrMX3ufOYXs0do1EbsI+rJGVkoLSrEIw/eg6N1jWT8ETy9YRNyC8uQwqgkSKbn4BHs78XWTVsRIZJHyUzbN+0wBtJLJOzFHDQZ9955B0YjXmRQuu+9+24KmI+OQDJyc/KQnZuBvdu24off/zFzRtHe0YJ1z27BtGnTqZxCuOXXt2GARm3jM0/gtjvvs++J1h85gDVr1zO/jK/aEjVi+JDy/0PIIQrltTYeOYKsghJ62ZpwVI+FMQ+mTC2ENzkJzzz1NGUjhOnTKrBp3RPYsuswQsFRPL56A4pLS5CRmcoxD5EmwN4De/GTH/4QQ1TCtYyGf/rDn6ClqwM+KuK7brsLQUas+qj9hi17MW1qEe4jTu5/bL05ZjZlRcXZWHsUN9zwPeyvbaFxa8XBPbuwhQq/tDAfDz34gH3YPoe8qqnq4rKpCA6PYuu2XZhN+lXt341niBNFXooI/iCIjYxHdKgjqQYvZs1fhoWzSnDj179IHG9ASkYuMhj9NtcdwXdu/BmqyJM5Gcn41U9+gJrGDvs27jCdkekVZbjtZz9HF41UCw1s1bEmlJKGTz5+Pw7tq8QU0tqXnIHCkiloOFaFb371uzhKA9hGxVZFQ7p5+0EU5uXg8YfuQfdgwKI/KQWR02SOB3rUqrmOSrW1DzNnlONJ8mYVjXtOfg4y9L3cwqk0JsVIS05BRnomykrK4GfhLZs20bMK0UmpRFPvKMrLy3DX7b+jsu1g27tw443fQ4BKtaurn4b5GObNm4tHHn6UxzVorRNNbkBdaxfSveO4jfwo47r/wCH7kH7hlHzcefc9aNeH24d7sH3XASocL6OtETqMHABppenmxAidyv5uNLX1Iy0nlxcEEfTQoRkdHUZwqAc3//AmtNFhu+WWn+DBNVvIX5nYvfEpPPjg4wiNBfAkI8uC4go6Lh2IUgkH6YAeoZGYo2nGCGWBeNIUvO69htmqzW5RRoXAMA1TflEBcvMy8Mwz65nktWjYk+RWGtfVd7A/4gZtzw/uqjjFaRabNaFiTaCc64mJq9/8JgT6W/Dtr3wJeytbSOsyyo+kWg4BS5mBoXmiDkstKMNfffAd2LXmCew+cERaihkoB6qL17XIT2sPRij7a3bsx/yF85GbpY/Ta86C2pltR0d68ez2feSzGehobcSjj66xW1jraeymFJWir7XDjLfPl4jc/CnIycqkIdyOH//oF+YQdra348c3fAcHautRkEc6/vYW7KI+LMrLxkP33Y1WOl07tm/Bvipez07How/chz4a04z0DCT50lFYmIPerlb7hvicufOwft167Nq73wx8fNakoZGOGW1MEnWMn2OvO9aIw9X1KCsvt9shQqrl5bi1lsZPnRcORrBjVzVWrrzAdKB0VXpqMp3fPrTSHjijqz/NjskWyC6JLi8P1NNXCE5Upf7IVslR0M3tMD1sLSDRVIy4QYPSEzfy6n1aei+lJUeDrGAEVh38E9rkfEbtPik9Jv2yXq3Wk6JTADZ/9iwqWPp/niRMpUEJ87h4+nwsrChhZNCGYXpYW7buRMn0BUhKTUJRUT6bGEdzdTUaqARa6Olm6YPdVOZRdurat1yJ9evXmaHKJWMoShV6zSng3vXtRUCZYyUk/FpAM866MrJyccnSmVj3zBoatWEMRjMxJSNNXSGMoaOlFUcb+zFlSi6yaVzmzZ1p97KrDu3GSNSHlKws5ObmIZkKWVPmdFapWIRHiR8xZajTVJym0Yg9ertLlizieEvgpdPSzOgkxHya0tUUttebgAWz5hCNir6i2LBpC3IKSpFCpVBRXoDAyBjqGtsxJTuVkVgyps6ajZllhWhu70LAphIl1XKUHE6EFRv6i4KYVZEOo1vTWTFmpoNktyjY5/BoPw3CPhSVlSIp2YdLLz4Hjz3yJGord2IwkmpTe5k5mUijIGqyvGx6GdJ8SawvEflZOTS6XhRSwOZOK8dIF7328BjqqyuJ8wiFNxllxQV0+gqRyXpMP/KvODcTyXRsShYuxxvfdBUqSoqwfOlyKpwQBil4PX2M3+hAyWX3+8AoeC8Gh0NoaG6msplC2jGaEx1V4YuAJETtaapVxtqOhcZE1p2chQ/+5fvxsQ9dj02P3olbbr0d/WMJmJKfwcgkA2Uz52LBvBk4b8F07Nh/FFvoOA4ychygE6bpsdaONqx9ch1KZ5XDl5KKv/rIh7BgzlzKlxbYkEPY8ULmS/OmY/aihbj66rcQF0VYvHgh+x7EcG8XozC5bxqDpI8GgrLqsdmbAPbu2oHuQIJFzYUFuZStbuot1svsPhq9cR4nenhO3kzyJxBP5BGVD49i06bNmFKxmPRMwf/7+49j6pRCzCXvKXrxUEmsW7vOFhG2MAovLimh4mxASW62GYMpZTMwb3oxRhiBDfV2Y+O2veSN2cjNzsbffOyvif8iLFu6BH2dXXSYO9DZ3YPCoqlENmWDfJVIb2KYijoU5rmmJiUjxH92VjEdnrl40xvfgBQE0NI7jKzUFGSVzUXp1HK8+21vwo6deykz46g+cpCR9X4sWb6IStmH/p4OBNJzkZtMfiDGdPtj97Pr8eD9d+G++x/AM+uetRkzze/n5uSjNJdR7rY9SCudgxXzSw2v0gspdIo6GS26x+xeDOJuGo9Y1tiMdNU0u4xmVk4RPvNvn8ElF87FL374Haxeswlj4+QpLSDSylwVSJSClRbzYGpFBd5//Zvw4D13oalngMky0jTqWsQZ5li2bcaXvvplFM85Dx94/3vhp6JNoBOjRmWwmqoPsVw/Gtj33Mx09BPn0jq79u7A4apqLF1yDryanqfxRWISdY0X8+bMpG5mO/zLzcpGMruUN7WCvFQEql/4c4tRRL5ieIE2Bk+lpWWYM28R241ioLsTfaOaJpcuTUWSN4JDe7fSWYyipb0NedSZcpppLg1TfsptU0szEn2p5E+6tuTfZ9Y8g9IZC8iXiSgpJQ2cNTHcjwdDePT++3HPfffQHvSSN2dRbnQLjnmo43RLs41j1It8EsmzmiGQfZPMO6q8PDhhMV9JYI+0aGhcRpOGI69wGhllAEOMOtVZMRD5kkJNj4spRaXT0E/BCTEvsUteoX9HpHRS2GbNYkQ8ru/ZSkvReIinydhSDhIiTU8JVI8ZBDKBHfNXN/4DQyPoYT2afqTomXnXjfKe7l4q8mTMnFaCZSvfiA996ANIocIopOCVFObatIjIo+ePFXlr0Yspy5cAal9IcI9SRZFEhtYC7kvecAnqd2/B5l2HUDJrPpKlfMgomhIKDAXRz8gjSCHQ2FOz8xCgQ9DZ1sJOa5xakWlLUzhEEV/4UP8kgGZ5iVNNFUq8aMyiXkwhkx2r3odRtk9OpICxDCluw7HFM8IIk5jQ09lPz4/IZb26d5yanobhIU3PKIpmU6ZMaDgl/LbXhBfblvUVcOco8eKgtgoZPQ50NCLIfskE6VYCUUFcMMNIP7p6+jAyns6xJtBgZtEg96C19oitKNXCG6d02CALGU3UBd1TFFMpWZ6cjIbNBXhQMWMWAr2NFFZ69clpmF1RYHjUc7wSIg/xp8c04ov4cqj4h4n71o4Ow4UifFsdzLp077WlqRbZjKLKGZlfeMll+OB738l0Og5UqC8N1GHrtNEiwr539+g2QCoWnncRPvuZT6D5cBUOHa7mOJiTeVSzFsplZ2ciEhxGd1snplFuKspn470f/1ssopx0MgqJRPVkAMjbiniTadzEt1RcHJ94QBNstiKeuEzLzkdgoNum4xKTUjky8g+VpaaKhVf1UNN10XCQEU4LjWYuKmbOwVvf80FcduE5vKoRiGhSVK6EnCvJl903FyeGAhYdSWbDNLDp6anw+3nMviRIMdM50gKzgqJiRvGz8fZ3XocrrrzY+IFm3Bx4/UjWR0cG0Ns3wGt6ftZDpzmNht+P5JxinDt7KnbQaDSPBZFdmM/xqkviAPr1XkdtPS+taFNioL4GhXt/FgpoHMOBEJKYbotomDMlK4MlyQ90Rv/fxz+Gzesfx89v+SkClJFjVYdRMe8Ci3bH6TjLE1500VV41zvfi/e+6224/LJLWJJjZ32S2/6mZuzaXYsr3nw1IzfmJ78bUfUyl/ExYlt00fmLAOvSZmsRmFenViIyxqi9D5HUfFzz1nfi3z/+fjzywF3ooi7RAi/xtIcGTPQQJ2iaOZqQgqUXXIxzFs/C7b+9jU6cJC3IfgXJg0lYet6FeMNVl2AzA4WR0VGWE+9Q9khDtdlKRz4t2W/39lecdz4++uF3ITm3EB/76F9g9cMP4Ld33EWeYR8j7Cm96vi6Gs2CCvk2FB4nSO55rFqTyGfxqV7dDsnJzaeObqPj20cjrl7L7Gs+UfWG0dXeijwa7mmMvq95y7W47uoriBsfx8brbEMfapC2t4l51tfSVE860XiqL9KxvCo6yJh6ktJxzdvfiff9xXvwwfdcg1/89CbUt/VQTkRFyrwcOQYwApFN/TdE/IkgdLziMDEUT0hIRim91wWLZmDT049hLERPQgMggkZo4Lr6BnHByksQZcTT0dFphln+UUNLN/qCQZy3Ygm9EGc23aMTMgYxpctNxBA6xI5SjjYdzSNjEyLZz0hRCwHa25os4jakk/J5+Zn0nvZgeCRIB8eL5qZWBAL9OFrfjEsvuxg1+3ahpbGNbbrFSOZMqDXWwcM/AFJebMYEzI1Vz03m06tfML0U2/fUYFpRWkwIZTATUVRYBE+oB91DzmCMDg9i4ZKlKMgrQAMjN91zkGenpoUf3cuRgZGW0jIA/RlHGAMqfRC/ueVXKJw2Fzl5WTRwFHoiPlHXyej2oDuZ0sPxhZm2bP4s1FRVsi4fPVRWwyhh1swKolBj0MSo8KsmJFB2YALplAjbi+PEDfn5QdkojOdcfDENSCf27T3IqrVQjHXSS29u7oI3JRel6RTw9n7izGPO07xFS1BaPhPNR/ZiPEzlyUhRToroomY1BeReYCBBZl3iF56ID+QcFE0pwJuvvIxKJohLrrgCU0uID9btPleo8uIW8aUT3CefXI0eRlplZSWGZ0Xmymf18XAanYdNm9YTb0lUGoyMaqsRJC3NeXjJwP4ZrtgupVBPALR19RLTiYzsszAlN4cevmYJSAw99iCZ4rg6x7xYvmgWMhKGcJBGIErjI75tbmxn1JiHzet2kC28GBkbQ2Oz+JcKhHVoUZL4V7jTY0vj4wE8/dQqOiQhlE2dynzEAfvPlmKrbwXkdZZXRJSZkY5Du7fR1NA4k28aGurYdRp6dYu5PVr0xLGEyEs6V026lpiUhgw6uft3bDFaDNOANlPOZeT0QpHxhFTk5+di68ZnyAe6ZRLGsWO1rIm0MHl3RlzDT0rLRAod8f37dlOWE9FN3dGlxZM06itXzMPu7TvgScmwWTTRUQuc9Lan1Nxc4pi0GxuFlwYhymNz+8QD0QHqiCzMKisgrUOkqRyDcQyT/rMWL4F/dARDwSR88p8/jYJULw4dqcKBI02U4zKTaTWmX0ml4ct4hePX2Fl/JDSK1U89g4XnXIbZBWnkqx70s08eGrIIaaQp4rg4vRCIz+UAxkGcbWtcxDvE4bpNinTZj6gf04qLkJmaBB95R48jipJyRKQLxaAhti18JXg9uObaq+ncpqFTt2kol37iS458iE7gGy+/EuVTfLjnnvvsnq4tISVtpQtKSkuwf/du8h3HSsPY2NiIzsYapGTk4bP/9s8Y6esijbsZqerNhUH2VUZWOFHPOVDiTSOyMemY24ln2tlvGtcnVt3HvvpRWjwllkf0SoCf+cY9KXbrbP+OjayB4+a1plryDMuZ1FOupxYXIjhKeVJwQhnJzctFTXWVm3W1diV/7IPpDG6klXReejJpFgxgJCiZY7ryM+pXfZIPRwWOQTj9E+FlPWp0MuhRo2b09w/EzmP9Yk8N1WQIjyeMuQsXoItE3r//AGqJqP7BQQSDo4zOypBJBpg1Yxq27dqO0GAP2qhIDh6tw3XvfjfyiOQhRiDPbFiPrpFRzJ07m8ylN+hQmEjUw4wQtKLuvBXLGQ00YP2WXTj3vPPQ1VyPHbv34YJLL8b04lI8teYp9A0P2KKa1IwsLFm2yIz/3ffdj5bWNhSXViDQ34rqhmasYF3BgX48tnqd9Ts9hQrFeEas4Yyx8P9ioEebZKgH+vrxyOOPYpDe5nQybfGUPGSXzUN5rhfVRw5j7YZtyJlK56SCEXdRtq0W1WMnWgC2/NwLMLWwEG3NDdi9dz9GAiPo7e7GdEZyZfTu9x08hNbOVozTGx8LhVE2vQQH9xygUhrCoiWz0FjbQGXRiIzkBFTWVFtUX5yZhs3bdyG/IA/hoS6seXYL2zkfi2eVM9LrZgTWi35GYeUzZqOouACH9+9GTUOLTe0d3r+LHmEXli1bjmR6lqKzmNE+78czYUd4eWHUmGggKSUNSxcvx5adu1B79AAamvSoWsBWjWYyolw4Zxa2btlMBRqhl92Fi9/4JhQX5aOzpYkRxG6MET+dnX2YNmsGRod6sZljmLNoIUJ0WDZt3Ym5i0nb7narfzH7OtBejzvvfRjV1TU4dOgAhZpKr3gaFaAEMIwmKo9nN2/D9DnzUJyTjpGhUazfuJ4Rmhd9VMLDo0EsmDMd23Zshz85FYsWzkNrcwvuue8+eucdmDF7DjIzs2yx2EuHWF7yiaCDPH6AxnRkYBjVlUeQX16Gc1cshi80iDXrdyEzLwf93X3wp5N3F8zGrPJc3Pfg49i6axcVTBBL5q7AvNnTsZrRyvr1z7JGL+YtmIPkJFAmdiCHRikw0o/1m3ZiwfIlyMtIxtDAENY+uw2plCc9CjIcpLNK3OzasQtzFy1GdlaaGUw5IFolvG7DJjy94VnWE8D8eXMpq91Y88xG5JRMR3l+Gvbv3Ye67mEsnD8HDVX7UXmsDkvOW4lFsyuw6qEHyMP7iL9kzJw9E51NtXjqmU1YfsElWL5wBtZveAar16zDwOAoFi9ahOG+HmtrPnEdGR3A2k17sJRyuYwR7kOrHsK+Q1WMojMxrbyUgacX6Wl+9AxGsXTBYmQmS17laEoGGVcmJdmCsizqkszMDDPKda2M9hOC6CXeZ85diML8KTiwdzvaRhKQShw0NTTi/De+BSmhPmx4dgdSU5KNd+Wo1LS044JzFrONcbTQCXl23UbSJQ+zpxez7gj27d6DXQcPY/a82ehpaSCON2PJhRdiqP0Y9hyoRNmsOfCPBVBV2YglKy9Gqs/NNbyY5HA4dtnJWEzO2BZdaeyvqqJu7UFPm/RmNc69+DKU03E8Vn0Ia9duQUZWHvVFFjZt3oDq+i7MnjkTKQzzE3x+zOOxHPtSGu2ayv3YuG03x1jO4KAA8+bOwZqn19sivwrqZz2RoUAmLzsbXf3DuPPOO3itE8VlFchhRL91dyW8/iQasBTMm19hiyE3bN3FuvMw2NtFPG7HOeetQHBkEBs2PoupM+cgnf7BunXrkE8dmE09tfHZTSgoLke632N6KjPZS0e8FUFG5DOmFlO/7YEnPQOLyReH9u3FI0+sQV9fL+3CHGSkphkG5RTlMug6Un0E02cvpK4CnfcyrF23gXqjAwPUoXJFy6hza6v24VmOOW9KMZrrjtKB240l51+EpdQbMvQjQ32oa+nEueeea+sYbObPyCTH1H6NFnrUaMaMCl14ycBAk7W9DDhRLMFeL1nfoNdLxkFRkiIRvWRCndMNbnkkuiTBkCcrzy1MRCUiKeyYL0iPdNXdt2PLxv34xL//J6aU5cEfTUIyozYtZhjWs63y0MJkQa1YjNDz9njo9ckrA/yREXptKWxZr+kbY1ClqRYvvV32hvwqrz6Z/abzy3MJp6Y75bHqpRXjSAkPYCwxjX0J2vR2mFG7epmQyHYs0pKJccbXEeB5QGjRFK0q4IA1WRJmX4MJaUhifz2JYwgghf0YY5YAr6VilFtqmDiiMtCqQWFDEai8Mj/b1VSKTZ9ozGT+CCMuRQ2ajtPUllfT9RxfhDX7xhmZ6AaqT/hRVKWpfHn08ng9xBHbYfsWxSeOIsyyHtbHmnjdecnmqdJblBefxH6O6XWBFCR/dJj4SWF9XrbDCN3q1NSMXu6h6J70Ye0vhBoz1TQUmvby0BEf84VJ2zAjqWT2M4k4HWQeYpdj0H2aEOmndz8LLz61wXERg8zHqCrCKInXvXqNn15BSgUsfII0CxFxyZEgxtgfZkHjkV1ITC9HVmYKxhj91DY3orRsNkqy0o2vjJbE61hisuFVkeM4PXYihsmKBthf4kHfDw5qup7Yc1NS7gtLEgW9dk4Dd1NsLwXEKNxksDXHStC8RgLHrgg8yJEm8Xx8oA5f+NGD+PjffxzFuVm8FmJbop5eyuFHyMuNspSiWQyOIUxZCyXmEL+UKI9elTrK/tHDj6ayb5rm9JHnFIeoLRu40VDPyI9xbD6WT4wkIegl3jUVSZAB03vJlT3EqEKRqI909I+PkOYp5G09fkMasR9DxL/mppIiw8ZzEdLVHwkwH4dJ3hFv+RLI++xrEJQ17n2UCcmm3gEfZv/8jPS9lIcgeVB8lxQeYxupJIfu34mXFUmlsF+kg3eUdaYhEhjC1j3VuPBCKk32RSMUn2jORsIx2t+Lo9RR8+hMpzBtnLiJULbA/rNhjigR9//6+0icdRHetnIpae3DqDeKNEY9rIb5dPtJPSRleE28r4VJelUjqKNCniSEWaePAplEWgSYZ1z8yfGGqWLCbIsSZbKs+6e1R+rhTcpCcUWR4U7rMNgIt+eDGK8cPyL1OHbdhCI1KZ/St4oyvaSPZsKAJHbaHx0hvyaTBhrxIGuXpKaztFZ/cPyUE/VVjz/Ze/cj0rPJpLNuQFBWGSHrdo7GptsV0j3SD3qJSJDyJt1oH0lgX4SXIMegaF96Wes31FlbeMYW9cxvCKmsn6qJ9GdVGGMEm2T6iLyQkE7jNsJDhlXUleJwRhVsQTJMzUa+U2TuIX7DEmqOz8vKQrwuJ11rB4QN8azkRwvEmlva0DcSwfyZml2QDSAFWL9JMMcrIy07oWfPdY9cxlUrz8Pci18lhYf27qYdmo283DzSmulsx8DGxs3sG5BH5/iNb7jSXXuJ8FI1xR8H6hg7JQHXu5I1XFtVZsTR9LGUlzJKkTqCyQgnMux/57vfgw99+CN4mpHqzm1b0N7STMJQMfGapkmlBOw+LxGhe4+aRpDhlXHU1IEIab88dqJHZud1mV6KCxHLaywn8ybDJUYWM3lIhKBH3i2RQmUT9LIklYAEXsbciYbGocGpvhcGtUfWMWWlYcrASyGo30EaO6pLY4KIx0dhkdizHY5HvdIUqqrXma1oZF4pRzkLNq1JPEpxSYijHLMeZtexxE8CLKWQSMvmpSB5qL7DpjTJVOyMlLYcCqdUA6bQ1KbO1YamEVWPIh32jmncZMh5zaauyKSiqZeMr1KGdxthHHSm3r8QaKJJSp0MTOfER+GJUmG4gclISOSF5ZBT/sSNl6rF8YpwKuPukJrglcHQAcuoH8TFOPEpJSLDIOEx54vGdu36DThae4wR7DAGhrSwJhM5GemsT5ERHUGrQMrUXBzWz03T+tqT78zxIg7JflQc4icesFPqqWTRbnUITSL4Swbiivlls4UXeYea9pJikJKTUylcmOEkDUUeN/0sNcL8ieksIsUXMYdSb+SR05HIdL3UJiGRhpZ1R3XfVHjXak4SjC0Sb5I3FiV9TblJwfJIvMQd87J6GR2jplM24iuhRu/h9tLx4iF5icaUOUQv3Z4hF7Mvep+zFDb7xrpkLO21qmx7nOWShT/2QIZVTpWXCIyIBsIlf+VU2yM+cmqEAXZGylHOlwYUoAKN8JqMjsnT6BAeeuA+3HnfI5jKKFiRp3AklhKeQnbvLxFpWZmYM30q+rp7qPRlkGUwNCY9w8q2ZUTp2EjPRL1sL8yIeXyU/CnHXMZJyxqlfKWHyCf04KXAtW4gQjp4yXMyKFpnEmb90nOSJ51rfYTNigi9RPzw0Aij8AJMnV5otNXUOCsTmp8XHBWYh+BG46RM/CFn1M7ZuOkOXtAiOfUlkX13vEljx/5rnH6OV1KoWzpyZvWUiEahFw7ZS07UjHDAuvUcNwliuHF6QrKmZzV0jX0RE5AOCg3CdATtOXP9U+5UvxbjqfcSL2lljUI8Jb4XHiVv0mfqm73pjrrANC1pqF7Zam6W1XPs5lCJpuyP+E/6fYw8aVznUGN9tU6RPuLFotJyFJDu/f2DvKTWhUWrmfWS14h7BQwatPhQEIqNycfrvT195KkZyKFhFX7UAY1FoHHEDl42vCrTzkqzL5iQAfUScVsIxAGKTRxQAXAgQqyGoMUgelWgnpX0kiiFxSVYvmwhyouLGa2k2QCDrMtPL0ueicivBSMWfUsZ6d4G81ClOMSqJRJQ96507NO9AAqhGSa2J+OsvoUVLalNMzqkGTlX5s4tuydjiIlZo32UgWRWG+oz/217QZAgUPnotr7Yycvx6ysnIm8CPVEZ24hPz4aSqfTgPo2ZvHiNw162zkbUB/Xe9CHHIraRryvDK8/ORqpOsG9SbDqxxS4aCBnHRcmiAXFBxlFWMb3Uu50Qz8K56lJ/hScP25bH6e5/iCVFOyfqwouV46b7Veqv2lRzUjS6ZAIWy/ZCoLXZunFqCx/M6NNgEs+KvBSZS1n5GLUqopMXrJWL6qf10HCicTuToGhbxtYpCOKEDYti5jpIgRAPfubV4widXV2oa2tHUWEhZpRMhd6GFaWyYdOkj9pWf4QjKSvXjgRNHCMMuOHziM15FLYzn55PlgGQchJ/C9ca/x8Dcj5ljlS77mMqkjKjKJlgaldfL9vzIisrG1l0GBRVSgGZo0KlKiWREGJeiwb87IfUjpStOM84nWDYIv6EL6YZ6dgG61F6nGgan/ApeqsdSgSPxHmuf3bbRTMDzC9a2aIp4k6KSWXMQPOa4zfjDKONavGSH9VwImXY5WU/mS9EhSvn29oQr0lfsAQb4L8+LMErVIx62YmMmhmTWN2isYYTDYxhxqzZVJRlds2CMbVlMyKSdzkv1DlJKUhPyXD187pTpBprAgIjAxgOBuBJSUdRVj6SfIoYA8bntgpYePBQT7CQh5GkYYTMY183Mpyyj6SByaJ4ivn1gpQwy4sqbJ6/7vEib4rPpvrHjY+oI9hPDlNdeV4Q9QQuC+tl/QpUZIyM71RYMmC0l2PNvpI/tNhV6kWOl3vSRNKvmSfWYThnOaOZ+M3JDLFCOVJLBNJM9Qun6pqwLtmzsibDaknjl2zGZJLHtnCPdWgxU4KMnvrLfFo1LB0kvpL+djR3dLCvMIl3rBXJFeVe9SmXcEw8SWepjE5D3JTXvRFQsq+ZQs0Z0nCT9+XwqXdpyWnwJ4tezgERDrysWzMEMu72ZjOWUt/1bgY9RaKIV7OjqWlZ9l4Kp1/ExU6nsGmWIKgj6g9/X7NpZxWJF9Nu+/YdqG9otPM4uHdfEqGeUR7rRfEagK6IXEQyj4U09VyM6QRXReRJOYJb5RyskCOayVOzLESS86SEQJKSF6UQ7E03xpQylWQi5hVB/QxZpJilbBVxskrmE9HFIBJOMYzVzM0RQ8qJLGr16123Mk7ydF8KiClNKMkYtjrbOk+Cql56o2K+IOVVqtHLuh1BY0zADkkQ1J4ZOPWM7coDV98sylAq+64SWhKvVaQas5SrYhhNP6mMjL+P0qde6y1N6r7wLq/P/ogr4dhe6C8FohYkhDZ+HSvSEh1Zlu1JMAVOQGQs+GvKxmFPMZX69GIQH6naNUWieq0t1U31wWNNL9kn6yRvMY9U9DY8Mp+UnsarftijArpmxVkzq/bTcQrKuLICHxWQsKJnn6VmxV+KijQs4xv+STmLFzUGwwu1gZS8U87iW42J/dVeeFLHWFbTXPrVozpu1sXx50sGqy/WrvrE8lqRax8dp8yIZzUwrQrVIhnDGTfDl1rWFDRPFL27ldaSoVH+ahRJHIdz1BzdWMjGzT4qsozhTeO06Fq0UEkpYvVJPG986eiiI+sh65BMKVU8I36M44W/tqlF6Qf1SDg0U04eUQvOIdCRjtkzGXDJpJ0rItazxtQBITmpWtUsZ1BRKXNE2R7Hq/cWW9/MceW/FLPwr2s8F09oSlIfctHiKfekAlslniwoUO+5s5HxXK4sm2dZjov59e5n6z2dG12IO7HiI+eMkpdMRrmpOtHAcmq8DkfmGCqN+NbHGMTnmuXRfWa7wnQzSrbxWBW8CGhcwrPwxCP71d5A+Je8qF7jFR0rgGBf5fRIOKQ72Y7damMxp1+0V53Cv+rUxl/hWikmkwI3OrUpp9kZU7f6V7hwmIyVMVzKSDnZkoMdZd9kiA1ZHLdmQCQvkmcbicbmuhhrU3WyfmtWel4gHJLGqsfopLzSXa51Rdr2Hn3xs8bNfrpxiV4EyqjeTjZOb0zvQFCgo2viveM6iJ2QrGlUtnCViHJ6wNFUyXKujN/jYJ3TV41y3ZsWef2lAuuZWNNLg7jx1SZCbdy4Ccdqa2NXBUwn0oTscc8w80mIpPhENCkWXhPlJ+E5YCwuTowxtRNhoUs4EzPLHxQoJ0WMDKepRd2nMLJzr0hdx/qGq80wsK4QDa2meSgWJhiGf3Ecc5oAaDNN8tKZ55UH9tUMG4VEgsD+6ducesmJE3LxleuhKT4JoQ1FAiHlwpFQ0eg+oqVTgMNI4Zi1CpK8Z0N2uCFTmsDK6EhIpWyVx3DBaxJwgYy+/R5XRDo/G0HYER2coRB2TNFaqrDmVC3VIDeem9IUPUVHXTFtyTQpbVHPrWlwjmCsLtLdvdCeRi6awhIyJI5flUfG1GYEPDKmWgOge816iY2jqRzdSTizwMmpM4KinXERZVycIPobbzhRY7r9xjbjolii46wzEcid/B1H4ZQpuOaaN5s9jKmOPwh/kvGNw1133Y1du/fEzgRSkg5p+namQ14cgRQceoBW+iV28uwCR0zzrrU3Y6p0TaPLU6MRMoXmlJyid0UDivKkAOX9OQUpY0Vja+cyvj4asaCdKwqUR2kRnLXHYxMC1/bpY3aNV/fTdD9QSpd90fQkz50SlhArm3Aj79kJtMbgPF2BlDfLxab3NSugZ6k1W2L4JC5Ui6a5bbbFjKquxIwF/+JCL4Mgb9spCrUfb+NsBGHB7fVvP2Y4lSqlKnzxN+akCJ9GE+Ul7l2hWMRIOjr+Fh+zlGWiU06eFO8KjAaKEjVdKv4kX4jWSlfkrfqsZeoh44qXqvEm4TWGuEyRRKKv6Rzxi2gfk6fjpBMfxH8nwhlMW/Kzbt/o7W3/8P8+Ycb3pcKfbHy1b2lpRd9J93x5zYRQCl3CpHNuElYh35TnGYzQ0wjHqWF4iil+RW7Ene6+CZvSVbqno2lJpduUCHNqp7xSVoo85P8I34qE7d2tVHAyIlKMTqGJRhKGU43v6aGNRqBFI0lhOmdU2FogJIObFHYLqcIe9V/5xD0anMahSXLhRlOocjSidFKi8Ia18IiOBofl8KN7qSqj+0E2wUnDrKkvN34peUXBdt/J8gsLMtg0weRhvZovoukzKQ13+awChxJnXM3I8syOYs6JzpyjJyfG5XDpLCXja8ZT9/FJLbuXqHx0rGyKULni+oJ7c6jYIo/tmWRetxkzJZFeYT2rzNJGC+uP9YwXXXuTcOaA+EabnCTjC9I0PpvkTK+umjQfh3gZxz9xd+zMhLgdTE1NxYyK6X/UtPPLHpfdF2DDejn/cYMxEdgHCY2JBq9r7lxnur8UV/GT8FwQXmxqlAd6vEXTnSEqf70E3e5XmYJTFKwIQgpOC19URoZChjWGX2elqOvE6Mwlo2tJuncsM8d6dF3GyNJ5XfcCTxKD1xrUtlO8bpGIeEcPaOhxABukXXev0JTASoCZbPk0/a49lbqMshQ3caL7O+I73e/T9LzGrIV54l03bhpWltVR/F6OTXOqKl5zyt0ZZaWcraCRiwbuloXFrNzc+gpbyEfcScZ1Y0OvilSaOFGLYJwDLoS62QyjmtFSlKFRtdppXmnI7VBOFPOJ53XP1v0pl+N5t/hF5zLccpycmp6EMxBMZMgrMbqao0vd4+TRyaEZMPLGiS1WxmjsuONMhRORrmzhH8eFLyvyjUO8qD7P1Gff842D0iUq6oyUG1Go5zuZNhrywJ+iVbtC7yScCsKalNV4iIos0I+gHgPxZSElKRlJCSFEicfRkWEMBmlKPKlELyPFVB/8Xt3/Ioap63qGB+3FAnoPrd6vqnXXgwNDGGXVaalZSE9KwHBgEEMjYTtPJj30iAe1H5lJhuv0sLtaFc/Y26oSA/BG/BblJIRGMDjGCJcGOSklk+jR1LEWGylyYlTMkgHmCdILSfZ44E1OQSQyhqGBDnsZv2J+Pcuolw2k+ei4iPfIfHrJiwxBEnFnz4sP9mM0SJxk6Y1IiqTHrQ2pfnuGkGVIGdfZswzM2MYMn3AgrMq1kVnVgj2lj46FMEb0JHqTkeoj7yFIHIYQpAMlF1DMqfX/wSCQnKRHyUaRKIXM867efrsbrFmG/Lwc+/JQMBDA8OgYkjNy4WN9um2ixXCBIeYluyZn5dsqW81iSEn/MVN+k/DagNlV7u2JL9FP2oiOl+TM5wX1lpw3Bgeknd4rrY8YyFAbl1HOM7MykeyVq3VmQ2pKCmbO/ONWO78CjxoBAwOD9mm6U0ECKkUuXa730T78yCN4eu1uLD93mT0DNikqzwdRBEcHsWb1WtQ0tKN3tBf1B/ehtqYFBdMq4IkM4okH7sU3vnYTcsqnoePoXjz22OMomrYAGYyGf3f7vWjo6cFQ2zH8/vZ7MP+cS+zlGA/9/lb833d/jHMuexPy03149LHHcOdd92De/PnIys4ksWiGKAASltOlxCyWYQc0HWxxlbxg8s2dD6ylYR1EXc1hOno9KJw+lTEso19GXVpt29bQiMfXbqEAB7F1w0ZkTp2JkY56/PAHN2Pzzu3YsmkbHrjrXlQsXY7CvHQGySHs3HsQx2obKfwepGXkoK5qHx5d/TR+/6tbcKDqKBafuxIp1Bi6N6lI2XoXw8vZyLdSoALdttD4LSohnTQd7B0fRU9nLx54YiM8ngC2bNxIniqis5POKFhPwhLGqXRDQ3j8wQfwzIZtWHL++VTDcp5GUFV5BN/69newdt16dPaP4pwLlqK9vh5P3v8Ibr/jV9iyqxKLV5xHB9SHyoOHsXPbZjz58N041j6KhfMXwqdZIDYxaXzPTHCmc4y/HgwM9WDt2m20F6NIt+8fKwIW7YCjh6tw0w9+gB07d+LZzVtwz33348KLLkJWeqrVcCaDnMPc3JzY2UsDOa6vCmh62dSUhFUKnZ5xeloKurr0FqNXrdk/Y5D6oPEJj+LBO3+Lg7VdeOPVb8a5F1yCN111CWr2bMX99z+hkAGzppWhMDsH5154Ma6/5mpkJfjx81t+jQP796G1vgVvfuv1uOoNV+Kcc1dgLDCGlNQkzJkxHfkFhSiiwR4cHOI2hi/+7xftk3TuWVMtbCGdqMhOGxAFum/oVmYn2b3BmoNbcaR2ABecfw4uuvACPPrww+gZ0iMferyHqj8cxT2334bZC1dg6ZJFKC3Nx4N3P6TwC//931/GV77wTXzu8/+Oc1aej/LpZbQaYTyyahUqDx/DxReutHdGh0NB9Pf34kMf/jBu+Pb/ofbIEezYV0VnxDkCAnc/8+xV7hq5Il5thgX+aGZAn/X0R8dwzz33o6RsLlYsWYglc6fh7jvvwmBUb9OK4Y9spdsFUxghdLX3IOgRzyXAFxnD/r278T/f+CZuvOkn+KeP/j38gRE0Nzbi/R/5GL7xrW8i2NePTWs3YDgQQlZGJt7+znfg4x95P7bv3m/vF9YdZHdbYBLOPHBum3RMb087brzxx5gzZyaWLl2BjMwMudjmNOmWVxJ12ze+8XV85Utfxmc+8xka3oupswqs/OsRXj0rKIsrxI97bSophYhNoiAqVYtnzlqIo4V/WnogTDhHRTCGvu5mPPH4eiy8+Gp4/GFGFVRSKam49KIFeOrBO9HWr+d5tVqZTo3mZzTN6vNiLByBJ9mLA/u2Y8eW3RgMJ+HSK67ElDQyd1RTtnoOLoie9g48+uQGXPe+dyM5LdlNI9r9OfaB+kvdO22g9imIbnFG2DqzYf1alC2arxdnIpWRT4E/hF2VR8lEPvsKTX9fL6qrG1FUWmxCrI9f1+7eg/TCCnhTvfAlhNHa1Iis4pnI8wZRd2A/Vj22lo7LOejt7cFYhHijIVi47AKbztb3O5fMm00c6/6jVknrlY2K9M5ucHfgZOZkfuWMuKlmvWVL35g+cGAf8qeV85oHFVNLcOTQLnQP6zlrlhx36xJ8qSnEtR9JMtzMqRfZ9PSN4P5778Vn/+kf8IOf/gxDQb02MwVLli5DhPTyk/dXLF1KHtYLE5JQVkY6kzd6BgO46uKVxhO2Wvps1imnGexe/ITN/emIQFrLidXzx3f96udIypuJtDQvBgb7Ka+yBZrlYh7K3rRpM+1ThFqc11RbhQI6c/4/8j7qnxO8SsZXCJOISolSWIVkpSrJBIX7sxpi+DGF4dSaECTl1tXWgT4qpJzCdIsU9LKA8aiXxiMHY4OdaGsftnuWoVAIba3N2HGgCocbGvC+974DC5Ysxgc/eD1+/M0v4Hvf+xF6hxPhS0+LvfEngsBAH/77c59H2fTZFg2rfSlTRw65A4JXzx/7w2CTzabY7UUKZJzGhnYk5WjlsovMM3wh1Dd2MXKi4xDRd2h7GLVGkZxCPmP+5KRkBIa70DNMJU6nDwkBHKmswrTZC5AWDWDnlo3w5pagr6sdq+68A3f87tcYowHx+/UmNd07JiF8fsyfM8O89bhSd28Rs8OzGKhQqTGdwiRe6ACKXoNDwxgcDdBJTKahpVPkTcTQUDf6BkbJv46qenmM+NzKyrnS/Y3ERGTmFuJ3d9yOL/3Pv6O1cjd+ddtvMZqUQccwXVobUUbBAzTuKy44n45oxKaxD+zfi5/d/Cu0tDQiENaLMXW7wtFpEk4DiJbmMLtjU/HapFH4r9mm4Ogwnl23A6UzF2PP7l346fe+iN1VjXbriK4cN62IdyvnpZWqKw9gzvyFZqBfr2L3KmpaVa2JJd0vEwXslIf80XZWg/ARx0nsWIqeEYLXm6RgloZDH16gV89LtkiBusXP6DUxmQxKpTQWHMbhqioMMSz718/9J85fWAG9k/na97wbN37nfxBorsEX/uu/UT9AA8VIWUGyDNO73/4G/PCGb6KmoYtGPP4MpVaXagXx8UnF0wdsXr1QBKV7iqleL8KhMPzjYQqiVtcyzZdqr4eLeMeR5EmAj96yXuNnC9XEW1TqwtU4FXJgdBRNLV323Wadt3S049yLrsCF567ER9/3Duxa/wxqmgdYt+4/BrCvshqXXHU1CrNSEKLTo0XjUg3CipHqrAVhYKK6kFstIMcI1zKUpI3u61lO0sBLfnThDXGr5VRUtO4NUVqs5R7hghbU0fGZNmsevvKZv8e+bRswytxBfUc5kojmulYsXLbMvrClx9D0Wbv5i5bhXz/7KRzcvQd7K48Yt6jWSTg9ILkQL2zfug2rHnwQqx54CA9x/9ADD+KBBx/Cum27gaFe9I/68YaLzsM1b34rLlm5Ar+7cxWdMz1RoABA+keVRexb2l39QVSU5pGqr1+naqI0vYIQj6IICVrxKF8mFv3GtrMbiA1DAn/ih3aQiCmFU5Cfn462xm4aC72bVvHCGDp5nlxQgaIpyWTWcWSkpeHSN7wR55xzLjJzcuCPBlFfXYPBSApmzFiIr//vp+EJNmPbjt3wR7RSNBme1DS86R1vxV++43J86QtfRmOXXrqhab6Im1qlojz9BsYtz3BOQAJmzZ2Foa42JjByIgP1BxIxp2IKfAkhBBJSOPYCFOR4MDxKdc48w0ODSCkoR06aPigwhta2ViRnFiE/gwaaxju/qBhjgWGrPz09DZlpjJQDKhtCR1ubraZesGgJm5MnLuNLhJjDqN7YHMVZChp5fJbE0BHzoaNIzcxCbm4WQoN9hqOh0RDyc6cgL0uRMMvocUSWjT8/rXJ6j7jhlAZW77TWG/Cys9NQVl5sTekLO709XVTYwPnnn8ckPaail8hol4ziqRW49OLzbdWs8YroNAmnDYT+JD1hkZQCv24x2nGSOfwpSanwp2YiKysdkbA+vBFF+dQy9NPIalGl3uscTEgiD5CS4xG019cgvXg+Uui76cM2xiivQ3hVjK9DlRS5vBoaYibYM4ImrdSgRPbEJ5z+hKed/vxA1k1MZvhxhkYzmg4DHqTl5OPd73sXDmxcjZHRMRIoilEalM07qnDdBz+IwhSnaPQ1EpXWi8V1T0Xvcz504CB2HDiKkcRUJPmSUJCXian5U6Avf4TGAwjSCIc9GXgHo+OVM/JpoP8HHSN645VeYiFa6Rspp9/TFC7sWWceXcQotLP2IP1iL/oGhhFNycHi2Xnora/D4WPt8GWn45wL5qGuuoEKexz1dfVYfvnlSKaW1msljx48jMKZc+l8jNGRScV551+EgcbD6A+Pop+KO79kGsqL0tHR1IyjR+qRnpmJro5WVB4+glBEjzPR6NNoO34+i/j0FDCaGLfqSJRhtEs5tilfKtcrVl6A9ppD5J4ojlbXY9nKS5GXEkTN0WrUtg9ZqUS9R1cL17jZi/mZt6mxAc0tLRb3HO0cwwUrL0ZGdBiBrk7s2rUDWYV56GhvQ1VVNYJD/Whsqsco9XEwGEVKZjoWzS5nXW6WZBJOE5gSS8SSZcvw5re8xbarY9s1b3kzVixbhEjqFDpL83Dw0F6j+3DvMM45fznCkQD27NyO4RBtgmbfyFOH9u3DrEXLTPbEK69XeFUfNZJ5sC8NJXrs2dR9e/ajo3cAixfPQ1oqIzhNSRHOzkcEZFzcn6k1QwHjhkQ/ymbMQYYvjF3Prsfu/Qdw8GgTGfVCnH/R+UgYHcDO7dtxrLkb02fOQFFeDhI9NMDRRAwHxuxtYx2tTdhfVYMFi8/HhecsR2ikB5s2b0ZD+wDmzZ/LiCQDyWTqdc88hfahEKbPno1sPw05DbCmA083PUylsw+695uRmYu0lCRUHWtAe/MxXPSGq1FKD/rA7j2orG3BokUzUDGtAsfqmtDZ3m7lLrvqcvgZZgWjQVTuq6IhWInMZEVfPhTk5yPVG0X1sXo09/Rg+cWXYGqaD7//za+x5tlteJY437BuLfJKSjFvVgX7oPuceqTG9SxGqLMTzFmkQhQO+C+MupXywKzycrS0NqO1rQUjI0FcdvWbke4PY81Tz2A0msRIZwrCIwPYvm0bekZGsWDRAmQke3H44EHceffdCEQTkJ5bgHP0EfPwEO644048tXatfQB+w/pN8KRmYPHMcjx4z73YffgovEl+LF20CFOyMikzdnfR9M0kvPagGbO4c6a9gUjBzVx58oic+oWLp+Nw5RH09A1geDQRV735UkTHhnDfvffZd5ZTU5MQDoSwv7IK5154kX1o3310xgUaZzK8nEeN6My/fHc+XvTUl2xo0tmEgdGZHtHQYwX6qoUWX+gjzFpBquk8PVdq+Xl89hjgOLpj3GnnbtPUnA6FHwXIg021+Mo3v46E3Jn41Kc+hal56VQ0QfiIy8h4qnv7D3HnSQgwzU/DSSZN0NtjmJ6or9rIIdW9Y5mO2OMYvKZnrHVvVO3osR5F3EkR98iGPld3WmMIjZ87CbRNiXMQemtS0MNoHkMIMAJOt69UJSCQ4OeZG58Mgns+2H3pSYvSGOgjaSyRYyRetOCH+fQZuwSMspEkjNnH2iNID+n7v4q9UplO94N41buw7fu+LKO+yC3RxE38TufZBlKi4knhQTMlopHoE39UxL5nKxqQIlo1HiEeffqWL4/DuuWhe+qknlYtRxLSWI6YHB9lusy5F8EElrMZnCCS2JjFxSyjVQkhUl46JCWsb9GK7sorWrAkiaKbWupPXJ9MwmsLwv3zgdKdVotQJhmAeULw6ytu4/qSslbAD5NmSUigPLvPZGpZpZ4u0C0KchbPKb7GA2c6ZV/OSzZeVeMr5OmduPq8m+736IPsIY+mnRRJxGK+WB1nX/Sr8WqTWnP3xMWmpuCodPS9yuSQB/0j3di4ZQeGRyKYVlaKafPmICct2VZBy6iYkYK+8EJ8RmltPKOsR/cqfYgQ6dGEMXhphbRiOsEbsvtrakxKT4YmnBBCou4J05CZAaJxisd5pwVk4UwA3Qsc9AxpiI6EXihoH3G3fstJ0Kfo5NDRp9bHOyiwMsh6bMvdJ+LGfIlRfZeVA7Y0xWr63BzdDOZ3H5eQUyLnL2QLmxNoWOSE2GM1toDIZ6X0gRAtSIvz7dkG4lKBFk6RKmIh0kOv9NSUL3FC2sgx0ZvA9AlAU57kQxlhsilxSxrScZTDNz6eYrpBj9aR2TFOhawPwNurKiUAbEFt6DElOVNhj+RD7yhndvvykSa39SiaXoDCROkQ0VO8MQlnDIiS4hz73jUdMD1uRm6hLpIckco0xl69fN2CAOonOWnRUcunKWfdlpOcix/OdMqeUcZXYF82MgRKbTGN+SVc8nR51dLsPhrTVMKVElniv2cLHMdYDGdUavrQtl40wVTds1UexQ6KOvTNV+koBbRavCClIwzLIENGQs4Nr9v7nZXEdHs9oik7r+kq96YiKjWrgz/ME7PLpxf36gB7ZgaRf4qE3Ksd1V/hhmpYCpv5TBmrtzSsMgBORGUedU9RDp8MsqJYCTMLMNrVym57faVryMBW3bIVKfp4ZCvDr09hulaZlwbF1X1asXPaII4t4xnDgWTX8Z47l/EVXbRwhsdyiGgcdU33d7WgyuFchlMzYkZN4l51umfQ7bPzQnXiKLGvFfp0MpnH+JZ0c/WJj/XebxpoLYizttUP/avGSTizgPwiXogkMfpNxKhXUkqJpsNv3602gmt2S4GHHF3JMtOYLl9K/PPnQNWXY3xfFU0iITBBUCiR6BZWWFOaLrK/mCcjvGvPAyFcClTi+eeA7FcWjmNMmOApIy4yn5jT1JyiWOJGH8KWp2+8yXPtzYERellaUauiXuNaM1Yqq8hQuLdJaavXGRPlUTtuMZGRh0evCkP8MaBO2DhlPIUNP7sa93zVZwmpTKD6zJGIbxwW7LozBeIizQq4CXRFwi7NjU/+jR1oUzV2KN509eiysquEeNWBWnR1nI3gsCtwytCOzWlxOHfXYr/iKSGZtJFjJ8PrnBhHO9FWT0A4EJ2koHWsvQ4UM7MEeVYRr1LUqi6ZYhYPiF6ivc4txySciSDqSCJFIpHc2IK0dS/SIcWNhzQJ7fSboy03008u7+sVNPJXAYTyE8Jlkw0UwiiTnRAKvVKIMhaOOLru0kWU1y/C/xCIOTWVLEzYl2KYpoBWR+55OHfuXipgbOz+7FybjvVrZtzqchjWUio7tL0dn5EgfpHBm8A/EkqBkBPrv51q44nDj0t3BntiGvHIqoQBGfHjpa0uHQvX+nXOis5UTmBvYjMjIT5leeJ/EuLg3Bzxnzatfna0c9iTidVUimGXe/0ZZcxYmmtlx3q7muNzGd4QnUxNKNPhYrpvnOeajlYV1p6o6TSIZn0cn4tGqlPUm4QzD0i3cTd/occm3ZfKFCC4mzuCuOQ5EC21ndi9XuFV1CaqWpuEhh5soqY8qfwYxSmSs+kGAyfE5tby6Gw2vHHQfTH3aTxNscm7D1MBxdQP0Sb+tXMdMwLQFRkdgZ6TUz6nFIVTGRxN7+iqM966HgflUfkzB2J90zSjKXTxg/qnc9dPNwYHppjtRDjgCGPG182kGGZofB0fuig2Xt/ETSB8sqT9O6fGFr4ZhlRGxoP1xLp3NoPDT4xvLEIRUhwe4zjWNYt6j19xEOdNHQnfum63QHis6X+RyqsHuqmgdXvKzXqwPsqD6KxbClbOmF/1qAbrySSckSDKSO9oJk+LqJSm2TjxSZw3zIWKgWUgxCXv9UtZce8rDraS1nAoIdSHwiRoWiAjD0jo1EKNuNicQPZxiCedjeCQQhA+hCUxqaJZZ2Rt+pjKygwBwd3PtSOmq4wMrfsggKbw7HlK5reFMXEcS3lx00yEmorvlfYnLAF4hUDtu36qv7ZAhxrZ+sc/cy04TudMqL/yoJnTFDhHb04c82scmg3gqSlxq9bVwoscs4xAHHcEG7fbhNsTQm+9iB0R4slnHWj0cWw5jAhThmMaS7k2hnJNFYtHLY+QFbVFV9o754g4Z7JdU3V2LNDEo1s1bdiXDuG5q0PZXH7tRWvd8xVPG51cZybhTATpJNHSdqQWeUXrL3RPP04zyapzfLkXL5G+OjU5tu31Ca+K8dX9HDfFJ6QqgqPyowJVY3rUQ2pPjyDEX15gAmzIV2nmMgV6doJG7pF2Io7GtTJcnj9xlxB1i3/GEaSCkkHVYiLdKxE+ZXQ0m6A4T/MMKs+8rEcvIHBRsRhe+WJGW9eZbMos9pykCcFpx716wj4o6k8Y457H6pNmTGg8tUrZKWSlKa8UujxqCW7M6eA1jTJRi8+iIYT0CkOm6gF+veA93oaKK68pcNuc4OvZVcOTVo8byMDQJKj9WMrZChp/HAfCqWZaTKYVrRpteJWotJkDy8EjhTu2Glr5eVkOk5KogMW9Stddfq3Y95J+WoRl6azXq8dQyMPhGF+KhLrqNbrq5pWiY9VlFybhDAPdlxcnmNMsxqBMJup2AtJ0FqOz4wHli8fASnE3Jp2+ej0CHY6YBnsZEC/6nI/pW7KQJhTKgIyhru4Y1q7ZiObGHlz3zvdi9tL5tm5RL0uXoY53wqnNsxik/CMhHDlWhyNNzfBFR4knP8rL5mD6nGkYGRvAxlUP4akNO3HBm69BylgvklILsOKKNyLPO4YtG5/F4ZZ2lBXkoKt/BNe89W3wB/vx4IP3Y8OuA/jEJ/8VC6YV4em167B23QZ84EMfwrx5cygFVGj6fq2MWMxAv/YgLqBx1D0hKlwkDnPvw549BzAwMITw+AimzVqM6VPLiCM9j0vR5ZYQiaC7qR0bN23DxW+/HnnJfhrjMMKhYezesx9doTS85aIltkr6yIG9+P0dd1GoqeSl7L1efObf/hWhsQA2bnwGe3buxMrLr8alb7wayeyP7pVLxUfZpwjxE78Pf/aBaCMTRxUp/jDrKfXIjTwbCIxj0/Y98PlDGBsbw3nnXYq0lDR6klqlrPdmh1FT04B1GzagsakB73zPBzB//hKWHcPBfTuwa+cehIJeXPf+96Mo292aGk+k7uhqwK8e2Yr3fPjDyNSjSmzRS5loqT6E9TUDuO6t1yAtOkx60ok8bXw7CS8IMXkJkTbuzu8I+tvacd8zNfjIX1yFqMScrCQeam1qws03/9Qeh4zQCQtSFXzq059GWWHuGS9zZ8xqZwfyhF2U0dcziPbmHrz1mutw7oqFuOlH30VX3xARLE+IQhObanClXt/z/C8MTrl5xkexfcsa/P7+NVi57AJc9sbrsXzZbDxw10+xYWclUpMzyYwFGO0fxMor34Rr3nwF9mzait/eeR+OHK3CxvWb8Y73/gUuW3keOsnkvcNhZGako6IkH8PDoyidMcua6ujswkc/9jc0vHOtdY+XMXQs6jt9IByQDzRbYscJaGmuwcOPPIWLLroIixctwq9//WuMjtEg0pAal1C4I+EwBnq78eiqVRiNSNgTLcIKjY3g4IE92HfwsDkXer1pKDSGT3zi7/Ev//zP+KsPfwhTiorNAFdWVeG8cy/Ee9/9Nvzm1l/wvIG1aLrUTffr0Zmz1exOBFElLqUuttWEcRRPPvkEBoeCuODCixgJe7Fq1aPEHnFHnGtF6+DAMNqaG3H1tW/DJecsx5e//FX0h8bR1dqE9MwcvO9976KLmYhVpHXAk2y6wxMexLb167Bx2x46Tm6aUrcLhkeG8QQd0KqaWtbNyNf65Ho2CWcakC500gS6RRYKB7Bm9cPYtZcyabMZ7rqmnfv7+/Dxv/1bfPrT/4y//fjfIndKEbKyc63s6xFeFU2r6TndULd5fEICxWr+oiUoKC3Fmy6/GJn+cXQPByhQPoqtBJj+rLJSUM8WEdI45W6YGhOeuOlh9NH+btz267uw8KI3IzMng5iLIjevEOetWIrf//IW9I4GbBpPZX2RFGQlpaC8vACHDx1CV3cXqmtq0NYzAm9aNt7xjrcj3RcknkNaP6oJOvJ5CI8/+iTOufSNKJs1i/wfho9ty0+SgpO5OX1AYWTEE2V/ExG0Vco7nnoc2fPOoQ1MQEFGLvyDndh7rJGOm54j1VQ7o1y/B7mFOchIzKAhcIs59Mac9IwM5GVnEclMS5RCD2POoqUoLZmGYuK2v7MZsxeew7YSsXjOfBSWlePcJQtw3qJ5aO8aJj2kHMShMjPCnnMQz14QPjQ7wt9xOSOKaPwYD4xg44a1KF64zLC0YnYFtj67AT2jbtJQ+UbDUZxz/gUonlKAt151MZI8XvSPRpCZl4tpFdOQkZqC0vIyTLUPKzDCZrR8rLYV6TmkOR1DfYDB0hn1Vh1pxNSyORYZ6yUxasAtJZyE0wHxGVDt41scJEIinblp1G81hw6ipHwa5VFOmW6Lkax0zvQ8/qw5i8kDFcjPz0I00I2yaXOQ7ver8OsSXrUwx57ZJeb1hqCsnBykZ2VSdiIYC46hvGwmSnKz7A05zMS8WhzkFly4pS6vdyUXUxTiR9vr3Jnidkar+gReaVkhk5nGTRipoGLqbj2Ghs5Rniuyszvn6Onrx4GqQ7jqssuxYtkyVEybgi/+6z/iibUbaZCmmueo+2W6DxwZHcIN37uJRmYGZk/LN2HQqyoFYX2ukJGv3sV9+kDOl1vhbLe92ZcjlYeRwehUU52exCgKUhJwqKaV15OYO77y1ZlIF4dZwRg4/B2/T8x/r09v8uIBebGu5iimzp6LlGQP8gqyiFVyn5RBchJmVpSpNNvRbIDqYPoEpXL2gfCqzYEdCY3E7fBgP7p6++HLyDJ+zkz1oq+jFR2MhAW+CB3Igjz4U5L1aDZGguOYPqMcuZnJ8PszEaVh3rdpHVavfRLT5y+ymbDhvh50dY5gesVMtqOXbEhWwmiqb0ZqSiYd0kw6Z4ys9VpCa/VE3ybhtQbJyPPLhhzXMIMsL3VNX1s9RqKpKCou4RW5+bIRmowm7WiJEimb9pxvJIzDhytRMXuhlZNWeD3Cq2N8iSsJhL2vkxpMHo4MgG60H6g8isuuvg4FDET80QARG9X7auyegPOEFAFK7b2e4WRm0kIpkUIGIjBGwxPxItmvRURaFa4ojlGr30d7EUYwoFw+9FM5/f53P8Mjz27H9e//S7z9TZciLS0Dn/78v+Cv3/NG3PKDH+GGm25FP3lc91V8jCajdHzCY0P47R13o3s0jCS1LQoQ9+qT2tM9zdMFalnGTovEtHBKMBoM0eg6t4wX9I9wQIJLb5npei5U6wbi7xCPvzFJj7nofqT4K/6yDXtOl+X1OsregQH0MjIrLMxlVTSujKL0+sojjLbmMIIrL9EL+6kYmFdGVz1wf2crGHVie8evwoamnMORECL0WsY9xDZxJpyH9QF1fYSa2bXeStytYgmU9rW7D+J9f/FBZFGxiqB6kWheeTlmT83GD7/9bYyNJaBq/1HMX7qE191qfc3KBOhotne2YZZ98ELT0GOkjdxFyoYqn4TTAsJ8lA5TZ0cb6uuO2aY1PnV1tdzqGVB0AIEhHKhuwvKF8+iwSR5FMTnO5CLpP81i0SDTEmAkFEJjfS/mzphKw6081szrDl4V4ytcaeWi5E3v75TQJlGBtbd2IDWvGAuWLLWGZWgtujuO4LNPhJxXJ1dFJx4U5OcgI92Lrn56+8SbfZyCKOrq7UVqeg6K89PJrFGk5xTgAx/5MN7+jvdg+bnnwe8bR2//ILzJubj2+vfghq99Dts3rML2nQfgp63yUjmmZOfhX//tk8jxj+GG7/8cvWG/rRgV6Lpwf3rdHilo3a5wz3SOJ/hQUl5ApTvIa1Lk4xilczK1rJBGVgt9ZJIjFFnnPWsVuD3by/K65oymE3BXu2ZXEpEc1YK2akypWIJ0z5jhnlkxwgiuu28YV17xRvhkSOyxrhhtVNIdnMXgZqWcCyKTyT2Vbkp6Oh0/GsDRYZs5GA0n2kxXToZ7Papec6qV6FoV3djcjpz8IixYOJ+yT8dG6z28PuRPm42/+av3AsMDOFJZi4ceW4Xf/OZm3Pr7e9BY14y7f3Mbnlr9DJ5+5inc/LOfYNVjT6Fy7zY88cjjpD/5RQSchNMG4oitW7fizjvvdNsdd3C7HXdx2/TsZhzasRlPPvMsafcL3H7HPWg4chC33/0QDYRmP53+sXewk45d7U1IzixHdqqc69M5E/fqwqtmfL16NlPTdYy4fPRw+zvaaRzGMHPufHrIEbT2DtPHkZesFaSKuDQx6qZY3dTj6xmkKDhSGlFnFogFRZ80GHlT8nHFJedg39bNCCQkIzKeBA89wf07d+KcK67FlFy7cwt9fAH6WILCWlaSiGHs2LIJje16K1Aq5swsw5zpxQizrB5dUgw4luDFeFoe/vOzn0T/0R349a23YighhVGmFhXJSIlmrkenA9SyGFLYsRdj0PG49Ior0FF91C4GxsLojiRh2fwSROhJDwb0KBI9Zi264d6TECQfUVhleGP12Mpccpo4S+e64g1HUVV5BOVz5iCZwq3vAAeHR1FT34D5i5Yh2Z+Ebjo70gvSB8KPrb4+i8FxbPxIv+RC8q++JZ2UnoGlC+ZjoLnenJ6GjgHMmr8ARakRDAeGMUB8yxHqZgQ0ODCE+QsWGT27u7vMaIZ1L1fPPiSmYdGSOZg1pxx/+/cfwzVvvQbXXHYxHdIpuOSqK3HZlW/CX77/Q7jm2utw7nmLMWP6HJx/znk25alJjUk4vXD99dfjc5/73Cnbf+C977ges5ZegI8wWHjLW6/FlZdciCklpbj4kpWm6Uf6hjDmccbXS1k8uv8QiuctNOeMMcXrFl6l7/m6KSm9jF4B8GBPB2769vfx1IZtWP3ME1iz5kkUlc1EaXERc7qnudzzpRRoMwAmm69r0HDdiGOG1xKp4DxezJ4/H+3VB9Ha3mNTxXv27KfhTMF73/teGpcB7NyyGet27MM5512Kkqw06BN4Cd4ojtXUYQfTEzCEmoN1CHgy8IZrr0ZiZAAb1z2DbftrceGlV1n0nOEN4gffvRHwZ2L2zGlITaIBYqSphUV6UvZ0gaO7XAUZ1RAKcgvQ3NKBUGgUtTXVKJq7BMtnl2Dd4/djzfajWLFiIXxj46g7egCPP7UWKy65GPlZWSwbRWBkEOvXb0L7wAguWL4IKT4tO4sgMDiCzVu3Y+VVVyCF+E4YG8Wtv/g57n30aWxcvw6rH3+M0VsCFi+YRYPuoVJQJC1DzJ/XO2O+AMjYCpxzFJdRzVrxl3iZUV6GvfsqLRKurDqAK66+jryZiFt+9Rt0DI6hNCcN3/jat7Bh6w6sf+pRPPbE05g6Yw6G+hpx8y9uhc+fhdGRUZy7fBlyclKQmVeAzOxcZEWHsHZ7Fa5/3weQm+JBVnYWMnOy0dfZihY682+88kpybNDoYpH4JLz2IF44yWnXsdssUKDMeZLSkJFTgNzsNPjHurCxsgfveec1CPd14Jtf/zoqVqwgfZMwPhbA6tUbcdGb3oisJNYh3WaUnVj/mQdnzPd8pbt1TffRhLjw2DB6unsR1huuLBr2I7ugmIpPk1fK44TbFtm4k9e5IEmJC0k6ljqLu+26w+uYLTE0gMrdu/B/3/o+lr7h3fh/H/srpMk7TBjFUE8vhsciSMvKQ2ZKOhmf0R7Tg5rhDyViJDQEfUIwPT0THj/xGAkxkuvHWCiM7OxsGlpGwcOD6O0dgS8pHVm5WfD79SYiPyvQ83inb6rHjT7AWDUD/vERi9pHGM0ODgXgT4zAnzWF/QsgOjSEASQjKzWJaBtHaLjPnMDUgiIke31I1BdTIkF7zG3Em4ScrHSk6fNkxFU4FMUII9207HSO2Qt/WPzZhcGIVk9rOhtIz8tDemqykUnvpNV9S3tHtFYMnYUQvx2hx6/s7UQE+7xglI6JR7dGQhgejWIszGiFl5OS0+k+jWFgJETHMAUpCWPo7Oy02S59o1kL/PKLpyKJvNnT28mKU5CRmYQUfzIRTt3hCTMP6yWf9/SNIiePik3E0Ep47sZGwxgKRpBJuuq+sy6d/hfEnK1A5J8EcTpoL84RzyTb7KbkLxIaRu+AFxn5mUgKj6K/bxgpuZnwk5J6G9owneX0rBzSlPrOo9kstxj3TIYz5pOC9jF34koLXDQNqAUvmruXMGqaUEd6xEW3e7VkQ9GuCbcSeFXektJ19fUJ0hTcDH0njK8m39wljj9x1IxK9eFq3PHQ45g2cw7OWbAYJRUlSKOHKAWmmdnEqAym8CSzraVrVI/Et5d/Mj4JnlEGI+n2lidvwrDLJ7rwekS0YD9EIy1bIauTFmL00zPFKnRoJbd3fBSBxFQkR2QIGZF7tapZSltOgQ8B8kmy7u/q4/cJAY5BTt0o8yQzv5w4TTJrARWxwXL6hrRG6Cc+rQ0qfh4iKRq0mYYw6/VTwFWj6GJf5aHxtmdUhQt9n5bXEm2KP+4onV0Qv0Gi15VGYiuMpUz1uUe9d1kGUOvvJfdaACcJtsezmKC8epeVppdtNStpF9E3mhP88EdGXT12TgeQm/Csx98E4QR9BnKU53TIEjKMtl4e63u/UW66z58Qe/nG6eLbSZgIE3W2jp1Ol863xbR0nOVU+cMeBLykM2VQD0GeWCgZoa6irFL2NXs1Ziul49x35sIZ9D1fbfRVeN0e0+Cx0iSy7l9TrRRJHivOsTL0Wl2u+CZ0n+kof7mg8cXhxBjdqN34dT/N3QdmMEtGHA3QA+RfUooPHuoYGVDDHotrjaCXPK6oxFYHkplt6ph1qAK9elJ59dF9q5s5hXcZIDZibYpW9rJ6nunvdIBa16/7VqsMJ/vBf3GQzYSIn5hD19xLWeQo0NByDOY48NwrZS/eYrpxltCgOuy+sCIkjVO1CAM8tuuq32U23mQ9rlXljeGGOfRnFZ6FIGw74JHQR3CL0YRFLb5y2BN2bHrezl1qLDuPNEND/ArnOqejJ1orQW8Q0/Sk3hGgBjTTIApaPlvxLPomMY3l6cjLsbeVDNybhmEjp4tvJ+HFwCjIP/GCKEQa80izF3rKIs4ruvmoAECLHMctSiZP6BvadKiN3pbrzIUz6Hu+ruL4s1/uXCmKHOLpFB4ZF11UmhFJ++Ol7fz1CbFBnzLGE2dSMDIAwk8ifF4fMtPTkJaeDB+9RuHouLNCy2LqhwwqZrb3aDNdL0EQKCrUuSIW5ZWijDs8MtxSb9auGaTTi3e1bGOSUMYT+OPOYle5k8F1awOU141GBtOVceMRlpQaH5ceV7GUWH6n1t1lK2cgnCqX1IPDr61H4NmJPpydYCPXDxHm8OES9OeOhXdniuMgOpms26Zjl9/+jQ7OGLsEKmi7pL+446PLLGdVuqlu5VbrasvxirZYHZNwxoKjkH4lp9zz3/hGtCMNxQ+O/jHZN/rqzMnf6xHcOF9xkLTEfWWhTs1or3STpBeEF7/6+gexnGO3F2Y58yJ52T66YGcyvC7dKSVh3ykrXVPk5iBOh+cHXXnhq68VxEfw3N5IOG2cseR4Dulfe+yIe01bafQOj050XY3C1Yn4zfFnfBN+YpUez3MqJ+r81LSzDAy/bjsZJuKVcJwwdjYBnpMQA0cjd+Q2Ucyl6cypKZ2Ln917ALTFc07CmQ1xCsVlTeDS5GQ57nEzVzK3cf4yeaXz9XqFV9H4SgnqkE1IW8amQCcl5aXBC7GcPb5lB2JUgaZoqYDMItHE6JvJLO2uOUZ25tzdh3MQ426CrpxJ6kv9cUZT2/MAx+m+3uRYSSNxo5GyPgUmRER2ZJkn5JJgx4X7OEp0EG85Xn5CmbMYHCZi+Ijx2wk4jsAXASMAtzh+4+fiQKXFeJG8bTM7pjMEcR51Btnxs85VVkeOaybhzIM4tZzWEo0cnd3mKOgEUxIv2sdNEo8ti+V4XcKrYnwNlQ63BCFUe/o4FCYtzohQcHW/eOI2CTEgLuxeuR2ejCNtuk8rBWRfiuHOPajlQSIvaMrP3lZlinGceGYZW0AVgSdK48vkGIvbG2lsoRvzWL5Y2ukH9s6moqR8Tx67rtmbq/SJRX1AgWlaHamFZ/HP/dnGH1Vh981j5/HNHTA/92bgxYsnSrpf40+X4nA5CcLCCUzE8GMIjStUyXaMVvyT/E/kJsez/CePudzOubI6bPGBnEZlUCuxqUcpZdJQMxriblv8xnwyyu6DDSrKHxV3P5NwpoHRTnLLYzm6cqiMVI6H9DEXkV8UV3gg+stURzWDFXGfnLTsr0N4VYyvgTBmiBTq9ThR2BLdQiHn2U7Cc8HZHeHshOqKP0KhVC26SqQh1WpxOTLOuNIYUS9Fo2OxdzUT2x4/AwgfE7UcS6tGfU6vSTlSAXq04pcGLFHldf9UAqBVrDo4E0BCGgPHQ+yX0thfN0LXZ+FGguruNdIY87ockIjGyPyahrZhC0FMdwsApeipzK0JYccJvOp3zSqN23EvXKALZwhuzhBwuCeO46Ic4x1DYQzixzKWchgTyGO6f6vvUot/E0WTRCpbOVRGG5tYpp52C3M8lAVnfKmIrf5YY2w0zDJ6ksK4Y5I0Zyw4V4rUlEE1Kyx+0PIq0k3P0Cd4qdOCjt6STeq2KHWXpDL+WNvrERg8vHy2jRd97mpn96d39JqojAcxOjaEbdt3IxTy4sKLLkFyilDLv1gdcQMzCTIYUYwGAjh85Ch6evqQm5eHOfPmw+f1Izg6iP1bN+FocweyS8qRQdzOW7QcmSXFSIsMoaetHU9v3YPSqaUsNwVTS0uRGOzDhk3b0NLZi/MuvBhzyguxd/8B7N13EBeuXInZs2fR8FJIZHmMDqePFhOZ0d2/BYaGhnDkcCU8viTMWnwOktlZryJ5iqaewdXCMb3FtKm+CRnlZUj26UGrKALDgzh69Kgp6YpZc5CVkU41EEJXVw8amlqp9L2YP28Okv1eDjuM7dt3YN+Bw2wxERddfClmzZ7JumMKwzoWXwwyCQJ7wxURMi5a0FFpIk5b29uRV5CP8mnTTKaFL3cvHhgJ9GHbtl0IEaWXXL4SvsRkjA4P4P777iKNqGyjI0jw5ePt77wejTUHsHX3bngich6TUTxzAS6/8kJ4w0EcrjyAoWAI5RULkJubCZ8ce7UxqUPOOHDqXY7VGG1vEAcOHEJtbRtWXnyZvc1PM1da2exN0FvoEtHf04NNW59FTt5UrDjnQvuCmzPTZzacYd/zdUpcRlhfMtqzZxeKSwpRV9eAH/3wR4iEpTz1dzLo/NS01x+82AijaGtpxA033mQEvfjiS+D3enHjDd9De1c3UtKSkOIJY93qzZh/wUVYPq8MN3zta3hs3U50tLbhF7/8BS664irMLkrHj370QzSPjCOF9aSF+/DUE08hf9pceD1eNDU2o6i4CDNnzZLWkhvknKmYM3Q6QVwTj/wDVM43kl/mzpuHtLQU/PhnN0Of49Bzgeqph30PB8awfcNGfOFz/02nJWyzKsM0vHfdfjumV8wwB+Q3v/mtvY6yqbEeT65+CgsWLmL078Xdd9/LKDmCgf5eVFZWESelbisqYSsSj5jYn+V6Xbg+wRknkDEedbSSfK9dvxFLlizGrp07sHXLFptOjBcKRQLYvm0Pysunob7+KG747o+pWKM4WFmJkqkVdCDnYxGdwIOHj1j+6upqzF+wEEuXLCLPp6O5pY11jeHue+7H8EiQ/DALd/z+Thr7VuMWN60zCWci2G20aBQbNm5ET28vOtvb8E+f/Ec0MxiQvySnKTiehEB/K3bvryRt5+DpJ+7HXQ89Q8qe4LrXG7wqxleKnL7O8ftwoWgKhfJ8RhLluOoNFwERPXTNPDbVpKkj5WLEp3lAHireef2i3I3VbTyz6TgvvUI3C5Aw0oef/+hGFM2/FDPnLICH0e6yudMxuzQHP/jxrzFEjaaPv6ewHp8nCVOK83Hu0nl48sHHcPAgI4KeYST9//a+AzCu6kr7mz6j3ptlySqWZbnjbmxTTQ8tCckmEMqfhF1IyGazZJMQSGMhkJBACJBGCCEEQjMQMNXGuIB7lW1ZlixLstW7RtL0+c937zxLNpDNZmM0lueT3rz37ruvnXPuKffed29SEpLHF+C6L1wDh2cAITHWTqcDDlu8GF4bdm3ZqYbuO+f88+C06EpA1RxgZtXs6FHeoIyJ1ZOy8OP6be++AVPudDWpxITxheir24ODzV0S8UoeVjkGJcq1S0RcNhEpzgSEQvp7Znd3Kw7srYHHloi0BCd8vV0SeYXQVHsIjUfkfIl2M9Li0NLWIkbCj63vvYfBfj8mT56MZeefj7ikRNHnfKKxK4n/G2je0MAN00S1jUtJ5whhK/76MornnAGbw4oz50zBipdfQa/fCSvLtEn4IQ74woWno6hwAi47/yL09/cjIOdPmlyOJecuw8I5i1BWOBklRfkwJcThwgsvw6J58zF37lSYnTbMnDsL3pZabNhSiZLpi5AoeSryEvHG2+vglciYSjyG0cFw841uCuJyVMPRuEo5Dnj6kJ5ZjMVnnY8vXfd5zCxMw9r9LeJEc053SlYIvpADpy+iHEzAuUuWoH2oB5aQZTRV0gnFCTG+bK0JmPhJANt6g4iLsyA+zgWn14c9W7bhgs/cIPYmQe4uxpdVnZJL0Tei7MZ+ORqOqLQ6E1qZSQcfWlubsG/vQRRPmSbSa5XozAe/RAhTKyaiYdf7ONg1JLSVKwjdlFDLtQ6L918oEV7F1BmoravFA3f/HJ3dfkybPh3jsjgKlBkBGiXTANatfh1H+gew8Iyl4NhYIY4QJEowII/ELkhGM8DoQRwBeT9WNnHEri2bNiOvuFi2TLBbTMgURVwp9DHyEGwrhHkIfrND3sMCc9CC7KxsjMuLx69/8Wu8s2kbll74SWSlJqBi+mR0NlXihT+/gO3bqnDJVdfAbjbB6nKho/MIbvrXG/HrX/8OQT8/9he5FJlUMirOie5RfipDl0/1S0dRLB63h9x9ONR4GEkZ2aqKOSMpAU31jehw+xASJ4l5kuPjYbMHYQu58dbqNbju5n8Xp9uF+MQUOJQst2NDZSVmzVgAlzkIh8spN7EiMDiIuoZDIt8T0FLfIIZW5FiuxV52BZkJ2LVrn0RNfA7dRBHDxw89YBKbHoywiWVGlR61y6llza4MlE8pE/6LRbBakJyQgqLcJKjR9SRvUMp2Qlo6HKKHBt1e4flhXHnpRWKcI7ZhDOKEGF/qKCkbsEs0x44wIbMf/kAIW7dVYsPad/CrX96HriF+IkOl5pMCy8HprCoCpiJlL96xq+b4ZiQ713xRoQE7T0l0EBZD29PdD8+ADc4Eq0R3HqXMgpI9MT4Bft8Q+noG5SwT2vqa8dwfHsPvn3gRtrQs3HDdFcjIzsEDv7gXvo6DuO7qG/DO2u1ijDhtIGlrQVdrI37z0N040tYlXiZnM5InkGuTXw4xwoSawWeUwGJGeWEnCz0kqQndPb2w2thZTI+AEy9prZ39kosjIulnJh35iRX9Z1ZHs6uGVQr4Z6/7EgY7DuCJPz4DV3qm0DKIxLRMfPHG67H2teVYt34HUpOSELA6sOiMc/Dt27+HP//hYWxZtwo7q1vk+uqK8iyslaDDM1bVwP8MzRs6iFK2j3KKkhjC0MAgvCJMei5fwCoyFfR40TsojqLyjyQ1qGfO2rZlI3ZtXo+77roHQ3KQU8khwOE9B7G9qgoTy2fAKk57WJQAu181t3QjPSUD8XLR3p5uYa7IM2VBLukSGenr6YGXnbMkLYZRgpQrs+gxykJY9EiIfQAkHA4HJTgQ/g6Z7MJJjjDnU2OBD/S2w5VdhFnFmbByCFxRQOxEytI14A9i/Zo1WL1qLZ743WPidPuVfhqLOCESyzlorQHOkGNTVcus0gw6bJg8/0z8913fQ6qpAzWHGoSoErtQq6nCzJ67PPtUUHB8R6oi/hmgFTQjSYyB02lSk8jTdVG1ByKwbm8IDkcC0hOEpmJ0UpOzcNW1N+Dq667HTTfeJOnsYhRC8vgi/Ognd+LWL16B+350G3bVtqiqP3vYI8a5CPff/2useOYJvLz6HRFrTkrAoSc5IxWFnwpydKGGG5SIh/Qxh21IT4sXRc5hMVmww+A8+hmZKVJgKbqkEQ2uyJg4DfaQnqTSLzLVN9CP5S++im/c8QN8+dPL8MBdt+NQ9xDq6+rx3tYaPPCrX6NsnBUP/fwn6PVrY8+e1NkZ6Tj37HPQdLhe8YPPwXufoKJy0oBFk8pVQ9OCpZbpzrg4OKxCeVG2HPglKNENI9cUl8gXoxop25z2MSDyNnPBGXjg7tvg8HajsblV+Cj8tpjR3emD3REPR7JEvHJRfjpnNXmwtaoBM6bNEfn1iswnIhTww8LJ+4U3noAHqampsPHep4LaiEqIDKjJRsJ49NHf4itf+Ypqz/3qV2X91a/iFllzDl+LieP6m0WXubFrTw0u/ezn4GSNB4MPOdcmyp/NGA6XGedcdDHuuvMedFbtxZF+tyqBYxEnRKOo3o2yHrJqstk5Swn/LBbY7U5MnVqO5IR43cZ7FMzLs8Y6+J6RRV5XqS8aGzE0En8ic1wWiiZloLGyRuyhUyI6Ozjw/P791cgpnYMiMUY2UXJsKwlKpEHnhnCE+rB1/Tp0eiTN7MJFl5wldC5Edc0B8UQ5mYUTARqznGL86p5v4+n778S7W/fAb7ErQzay1mE0oRwORRX2GgBmz52LzsN1VN/wiZ5u85sxuzxPHIohcRnoUTMqpZMiZ7BnsogU36Ox/gCaWgaQmJwkxvQsTCpIQV1DI7Zt2whb/Dg44uPx+auvgqerBZ09bqE/TQurusPi/NhVb106JBzwQRUTavdTQTz/Bvj6w+KhJFf9OhNTUJSfj6GuNpHJENr7hpBbWIScBCpbcWyodEWGzcIvTphhER1QXlYsOsCldIJJjOzmXfWYNnWeXK1f8orhFZ1hYc/+mgZMKJ8kefzILixAoij6kGdI8gVwRO4zZdpkiK+qniWG0cUXv/hFPPLIw3j4kUfw0MMPq+WRhx7CLV++QbhlE701hJr9u1FSMRvxKYmq0y37/oTE0QpI2eNsauozQZGUpORkFBVPQJyTenFs4oQYXxXBmtghxg+faPO+7na889JL6GlvweH2PuQWz0VxfpYy0qp6kW1qovpY/cDCrM4fw+BbDoN7NDdU8naYXSn40lduRNO2lWg40gCvN4zagy3YK0roxpu/DKcoK69f9yD3eT2KXhZxYqiMWtrb8MLzr6LX65PtPvFIE7Fgxlw4xFi7JdLoDwyBX9PllZTgP79wBe659RZsqG6AR6ISixQAk0QUowsaQBpfeUoV/YYwb9H5GGyvw0CfW+jRjIyJUzAxKx6b1ryF5X9diZDIFxV1QN55SMgaDgbU5wvj8gqQYDOhuaMPXXIsNysXpYW5qKiYhI6WKvQMetHXaxXlfRpcpj788dHf4MChenR0u5GZnYbS0nz1NKoNnB3i5GlG1lOciqCcapVBqSOn9EAlQYsTl33iAhzYuRVD3iDe37UNyy66Asl2H15+4UW8v2Gb0LoNK55/Bl3dPahpH8SM2fOQlZIAHztdBj3YtGsHZsyaI04kW3V5fTN6mrqQLFG1NdEhfDYjMWc8Fs2aigN7KjHg7sGB5l6cd85i2EOeyHPF8PFDKXslG3rR+3ohRELEUQ6HTNi0fiVWrd+ODevX4FWxBytWrYdbIttHfvkQWkQuGmqr8Obrq1UzxqHmeiw4bxky7KzpG5s4MZPpi44yKfqzXdesJgPo7+rCvgO1SM8dj8lTpsIuxpk+Dc0GG3AU66jb5ESmjWTfmIJ4FvrtDMg2iaX+qezNSE3NwvSZFVi76mU89OAjGPIn4OovXYfcjCT4vW40N7ciJXcCUpOSkZZuF/pR5G1ITctBSX4e6mtq0NTej8s+/RlkZDrknHY5pw1ZuRORlpqO5OQ4BMRgZWemwTvgR1ZerqrqFk7JdfSzjAbIfjpjNjG+AToiIiNWZzxmTivHgeqD8swBnL3sPLjkfdnT25WSg8wMB6d1QntLC2xJacjMyUKqRFQOV7IY1uk4fKgG3b1uzFuwFBnpacjOyEB+fiqaDjUrQ3H62WcjJU6iMpHTAwcOISE5BVNnzoLTxs6CpKs8h3ouhtT8HyXijDJICe166PdX316GpXyb7SpaGZeTiZSkOByqb0RBwURMnT5Ztd1yCq7M7GxkpaagWyLjfSKbmXnjMGXKNNjE6Wb7MIJicB0OTCgqgk14zrZ+mK3odw8gf1y+nstXmGwy2TGprBxudwda2zoxf9EZyMvKkefgZPp8wlOTN6MP0v3Y5Vg3VXS734ctu3dJGbbB43Ej7PNg0sx5GJeeALPwetyEIiS57FIuD6GhpQP5pRNRWiQBWsghZfPYq0UjomoyfSLAScjZVVy2g2av5GcPRhOsJrfcmO00nMfRJMe04WXVIU8VJ0kpPJ435qBowzeTOEpWmlTcZwwhCp40FQKwHSXkc2P588/i5VVbcd1NX8GciiLECZM5yhUndWdFnuppyFoGuRgnnabCY+cjtpd6JaJlBySXRLTmsF/1BvayN7DcjR1dqPw4fb9P0hSXJI2OwGgJO+s/WP3kCg9iyOxUc7ryCe2hIPwm8YD5rvLM9LA55T/zQ81R7ICFVfFWEpR5EoQ+bCcWB0+cDBrxgCjugMiblR1DxGjwbL+J3Tmc4ggG5Xzm1vJotvgRUu3H4h6qCFx4wSrtyJ1PRVAiRkqFReSJvcB9Zn70ZhIqDsg+hzBxauNJ6VQza+mIyEbRtgA+OUQ55zzLrLFQwwiK860+S5Tz+PmRHrlDO+QO1vzLVTgfOB0zdnozmVgzwk9UXMIjMfDcV3dSvbtiGBWQ5wZYbo0tcj8sdgDwSyGzBPmNhTBVeMmSTKeWuoe+rW46Fpli1bOaf3wQ5oBTdCHLXnQjaubz1cVFk12zhEbVuA2LKonJgqKPGkcM9nF/JCtPHRiUIIROir5h9PYPoKauHharFUX0EONcqh2YtQrsycxhFLmvxmoWuvIzJLaccJu9l2lLOVU8uaDGihElR/oynWnszavvqOk+mrTXz0BpMZ7C2OIvizQXbuu2WF3M5X3kRE46oXOx7ZbgPt+Yezq/2lYH5YcnSdpIqEPya9xd3yuGD+JYSrHWRoM80dB0H0lN44jiWGTLwLCGGElzxSK1cfwd9ZbeHpEphqgCOTOSbx/Gdy7aRLMs6iCEufV5ug9ItCPqjO+wYuPaSDv+WAwjQcoQWvRkidCYYxPTlHCPvzpqZU9fLc40wDSiFF3m1NCCzjReS/Uk5pYYaaMIcG3c0zBrxrGog9Di6PPKO2iw4BrvayhmHqOxZbpxjIjqt4shhjEHllUuH9T2htbRa62jdOlWNYCRrQ8/N/oQZcNLjoTBghj+Hmivb6Sh0AZWTwivxVHHeMzFLcNTlEWSdQzBNMMs8UhQjknK0eMaJw9X9JNq79gQW6ZF0iXq1ZPrR9LotIQln1rkpVU6nQ/99scvMfxzEaNrDITSW3pT4Ri5oD6SlS7ThLHFX11LdTJEvf8oRtLln4gPkpxRso6Ujz8Ww4dB2Q4uSvxEDGVHU46/km60QYphoV3hvjI+NDQKhmDTcLMNmO1vakt+9RFCDRGo+KK5YpwdDTCeSxGCz8vCyvdmA5FyK5gekaewRbJxiciWclS45m/kHY++nHZKeIgLZ8s5+he559F7x/B3YyTNuGUs/D3mGOkdWYx9xSO1F4FKM45HJHZE/pHnEyO3Y4gyHOWbLovsWsIUxTOWQabKNjWd4iuPyaIxvDXW8DFYwQ8WkhG7MRwPIQ47sqjOBwp6QzfLikFRnxWxipltujStupI5zOEp5TwO1cZrsEsRxZmtn4yY1SAmsq8ZTgEnEwyFJ2KvTjuWV1EB9Tzy/Oq9ZVcMLz8lovlUo+jwEykxuOpbX76zrNW7MRJWka68IwmkzublSCe1CX5mzssr2moCqHSDDtExv/HJAT13sqYbqahcRSFshNSyHTkmC4elVEk8LvsEucWmBH7zSYapoQpVfh5TmzofeR7Z4fkxHkU3jvIqIgnkFqeV1Fwj/6ScqUPUTpIqvKckqZ4aBtPHKE6g8dUFTIEdYcxGoTOWGD4MEb0kgqfEVIyqGBMqJZFDThzO3s0WNRQk0xnpMZsYYDE6bOXkh+qMddnpKKhCO34SQiVG8Y8YJtlX8TDvIVZ+WMTJo8hm1EAXU841zAiVPbxhoWNhkjQ+LLdEvvgSfE+hgDID4pyYVJQsBxR9uJAepLGshaC8JunAnva8kvHqPK6Xj8E3HSPgp1qGg0TaHas4ZVvobdCYx9RxWbROYKKcwzzcN9IE6lpGemTfWGh41fFj7hVDdIF8Fn0Vcag03+jY8hB7tMufpGnDG1BdOZRoUFepHX2VsYiPTbuQoCwsPp8PAwPuSGoMx4OKhILIOVJ7envQ3t6O3r4+MZQRAxT0o7ujFY2H2tDa2o22jmYMeTh0m0t8nLBsD6CpuQWDnS0YGuQoUC4EAkH0tdSjoeEwugf4CQ7Q3d2N+kP1anYZZZAJuXc0KTJRq6qwBgIBdHZ2qu/JOVoXB+BQES4/yVIRkg/97g40NzfC6+W+uCFidP0BH3p6etDd28vhg+Vq+rM3n8eDvt4+tahIi6ny3gPuAaFLLwYH9aANmhQsIsYybBRiOBaUG49nSMmVu39AG8Wj9DrWeIaCQaG1W/GVRA7KmrLeI3KuIllJU+cL/QcHB6mj1fVHwu/3q3meeQ3j2jFEH8gZjjjHmqq+vl50dXVJuQzAYmHgEOGbGGZKC8tl85Em9XWH6vPM42OYtydkkA0WExY89akM2+eEiCQuGfDyS69iz/4aTJs6WaUdD6PAjlmSG6/Maji9oX61wuFeUE0C//Jrq9De1YmQWI2a6r3Yv7cS2QWlIpJevPPGq7j3J4+gsLwcLUcO4OXlLyNnXCnibSE8+fTT6PcGMNTViMf/9ALKZ50Jl2kQbzz/J9zz0GNYdNZ5yIwzY8Wbb+P1t1ahorwMyUlJqiDoSFKeYZQEfpg0eovV5UG/F08991c4HXbU1x9CdW0TioqK+WmoohWj23pxKrZu3YT331+H99ZvwvQ5c4VOAax8ezW6RKH3ieGu3LMbBUWlCAz146+vvAWzzYzqfXvQ29WLnLwcVO3ehYMNLXJvH959ZzUys/OQkJhANon4al4xwubvqYijvFFbJArpovc4KH5rSwtWvPUO4uPt2LB+o5qDNzmVY3Dr/KqOQfLViMP3/patiLPbkZKcAoiD9Ozzy2GyO9FUV4Pqg3UoKClT1zywdyd++rMHcdr8RUhw2RXpOUxlU3Mb1m3YDJvVjMTEeFitegjCmBGORojLKw7ye+9tQE19oyo961a9hQll02AX/im5kMSBng7RRyvx9sq38NILy5FVUIa87HQ5TvmJfr7+I4NsnJDI13BSWXtPY8oKUSrSIw012F9dA7ffoUiqwRy6gOrF+B3LMIRJK3WlmpQiEy8+6MbzTz2OuhYflpy9DDNnzMD5ZyxA8/5deOr51xBwJGHCuDxkJyVg0uw5OP+cs5DmsuL3f/wTduzaLjTuwOnLzse8pWdiycJFsEoUZ4uzIL+4FOlp6RiXm4uetnYM+c34j2/fjoL8bLl7EBy0Q5mWUVZg2rzREw6qgUAO7NyI6nYfpsyYiYVzZ2HNG39FVw/H/w0iZA7Cx+gJcbjwgstw/XWfQ19HI9rleENdPTZvOIA58xdj0axJqN21EVUHjmDjuvXo8cbJ9aZi8bypeOOl5egUA/3GihVw5pSioqxIZDWIfQcOC2PYlqy9dt1TmsvYl86PAh00Nb0iB7YQOuimDBNswUG8+NwLyCw+DZOnTMSs8hK8+OwLGAzqIUJJMSuN6e5tePzp5zDnzLNRUjwRNosN1ZW7cPhIK6bMmo2zZ1fgrbffQWOf/ka9KN2J7rZ+uRudIL/c0o/DtdV4/I9/xtTZizBxUjmccSN1SQzRB4loJZh46umXsXDpuajgtILuZqzaWKmm/wybAmpI2Lq6WixedjFu++Z/4qLF8/DUCytU1fRY5u0JMb785tQa8sNvYbujUwqOD4P9vehqaUPpxEIhKEenoU+jC+8wgU/I40QhqMBoZHQHKP3WYnDEa+nu6BQFtBazFs2Hi4qLUZdEBacvPB3vvvICmvtYZU+KqdYS2EI+mITOPjFAnCB//66dWPPWRgz6XVi8eDZSU/sQsrCncwjOUADNEiW++f4eXHD5FUhSQyjSMbKqdk/CiMdHAzT7XIImzjIkayHM+2tXIn/SFEUkh82CLLsXW/Y2qtHTGJVarEkoKBwn2wG4u9yYPONM5KbbUF+5BY6scWrGm6AziMysVFTu2IktW7YgY7wofliRnGBDwNuJhvou5Ofl4q/PP4HDLX3ww47iSROFEhw+UWgkfOFMXeqzpVMYuv5KyKAcRU0LOko+jxuVVZXIyp8gKTYUjEtGzb59aB8QMy184shkoaEO3Hv/bzD/9HMxeKQW/YNeJZdvvr8ReZOmihQGYLbbkOx0ikGuFMbK3WwOWbMnAyH7Q7343WNPYzxrMAY60NvTh0BYjG8s4o1aUD4aG/bBa89GkjhbnOKlrHQC1q/fofjGqRXYnDZBZCAl3inbUvYml8Fl1yPLjWWcMG3CAR/Y89Yu3mpQ1nuqqlEysQzx4umEpECpOn1ZWIh1QTYK8wl8qGgALQYXpcbkl+0a3GSnEqFIW2sr+noGkJyRIseEEpI3KFFpako6gu4uNHV2itACfq8XtfuqxJjsQH1zK6763FWYXFaBG6+/HE/95h786Mf34HC/KLS4NHGEODi5GQM97bjje99DWlY+UkS4OUBlSAwdOylx+D/SfTSNr4YucBxOkhFW4+EWuBKSxCCrQeiQaA2j+chhoYlTSGYRGVMt5GhoOIjHf/codlTuhLtnEC0NjbAnJSkjbpZzXXHxqKuvxpHGQ0iOE4eQll08bzjsaGoP4FNXXokkfzO+9d0fYsLk6cjJSkZAZJiTRrFmQFef0hDo5zvVwLemyTVGUaPipM1j2kBfLwYGPLCJTHFQTrPdBXdvH3p7e0TZst4gjNqGBrR29SA7LQ2H9u7BD+++C+2dbRL1HoYlOY1XREAMbpw4mq2HGoT/rP2QYiFeIUsGHUR3axP2Vh9CdmERGvfvxIMPPISq2iOqfKjmrRiiDpSPNuG9My4ZYSm7NLc20WVHDtfDzOkhVSBmQnx8vOp4FZBy1tzUjLPPPFP2KTnDunKsgfr2nw5VQEWp89tSK4ZwULzggC2BY6XD4/PAN9gPj4djPZM1ouDGJm0/Gsfob1Fi8v40LHRD4sT759yoflE2AcUdVkVTgYXUBPFWB6vZJHdgCL0dHQjGZ+Prt34Lc0rTVbSw+NIr8NOffx9Orxja224Xw+KG3S9GKiD8iE/GZz7/KTz04L3YU3tIrigGjFU7HPtYIhTaFxXhjSLU2L1KHjSRHPSAJWLn98zsy+2XAmpzOGEV4gRYs2LywSUCNL6wDF/79xuR6ujHm6srYXKxHZtTLYoDyKrpUBCWeM6V7EQ4pGsC1BjZQnWbzYTqmhrMPfsCXHbJOfj9rx5E1UFOYyhqISSRs3jmwaMOk3q4UxB8b23gjjrMYapNcd1EXoVEcpTfmjObyKfwhjUVurbAhK6OLpSWTMDEimk4/6ILkJUch3dXvQerXY/LLW6gjpDJL5foCvmzcg5YuR6dLCrtvr4eWISvc2bNx7nLLsDU4gy8/ObbcoTTYqpHiyEK4XA6hIdsstFfF/j9Ptid8SIrIkXCNzZ1BcMOWYfR3dUO2FKxeP40da7R/2Ms4oRoWmVShdhBMyfTtqJq3w6seOUlPPCL3+DNle9i49pVWLVypeQUv0YKMD2eUwoiTxQpI8pUCksWRhMZmZnIykhFc0OTUvgUV06L3Hi4EYk5E1CQkag6rtjFkJx2+hJMnToVKUkp4j8OorZmH/pDLuSNL8cPvnkLksL92LRjj1xHrm8RVjvicOayc/Dlz5yHu77/PdS2DooEiOBb/BLl8Xm0ohxNaHdMHlfkIiRKtWLyRPS2tUghFXkSOnR7LCguL5Z9P2wSvbK2IMjaFHH24pJzcY54zEPhQZSUlsDT0SpKnefZ0NXjweTyKSgpq0BPT7fYBB/g9SPkCyI/x4pnXngRaZOW4FNXLMP5Z8zB6jfXqt7UrL3hIP40wGETjfapCy0ZwiG1wTJOQZZoNTkVaVmpGBroV81Ng0ODyMzOQHJygvBGjKvkzs3KFKXLCTI4HjlQkpuJob4hTJ08A+6WI8IPMbdBP/qHPCgoK1fVk+pb30gZYc1HUnoa4uLsCPoCcsyKvNwMDA31CJ9Yi8NqyhiiDax5yi4txlBvG8JBjjNvxkBHG0rKJyu5CJv1eAUMNNg2XH+4CQuXnAm7nKd6uPNzo4jkjTXwzf7pYHHR7ZmcTcaCiz/1Bfzg9m/htu/eKpHFuThj2YW45OKLlKejHkB14tCFjL96a6yCgqSFSbXnqqoVvjOjCSviU7Pwqc99BlXrXhdlNiDSa0Zfby/e316JSz93PbLFn+H5XjmJRlV9aqOq3AKo2lOJTRu2IxywIWyJR3xKGgrGFYrhCMIX6hMjEoBP0i/5xEU4d1oh7r79O2jq98JjckrQzA9xROHx8qMIml49jCZhxulnX4TOg7vVxNtdvf0IJuRgelEaGhv2YPeeehGdMGrq96B/0CO21CEK3oJ5C2ZgcsUMiXib0T3QJwqdn7eFMGvGDCxeuhSdjXuEHgEcau5Fdv4k5OenwxUfh8GuTrlnCHl5ecjNzpRtPgUllE9FyuinOtVBKtDpIa1UCbYl4IzTT8fhA7uVM727ugFzFp+BTIcHVbt2o7a+DeMKi5CY5EJb62E1d3SXexBzFpyJCxfPQ2v9fvjEF+oSY2xzOTCprFBFwGHOZCV8Z0V3UMxxfHouppbnipO5S9WW9QxYsWTOaRIh61mNYohChC3IyikRZ8uJls5WeANhVNa24rxzZ4nj68WGNRswwPb/wS68s24tbI5UtLccxL6qanR09x3jgI01nJBPjTi/J9WnVQjHoJbFR6uuENrbewBnIspLxqvo5mhBPqrXTgU1F3k7MXh6U36EUFRkQbMN44sKkRdnxtq167F943pUNrZj3tLzsOC0aQgP9mDHtp041N2PgsJ85EuULCGDOt8jgZm7243GpoPYv/8AZs9dghkzJyHQ34ktWzajtceL8omTkZ6SLMrNj21btqC7z4ui4kIkOrS7xGcYrYoI8p1RlVmcBDXTkkQ3rqREZCUnobquBi0tzVgijtu4RBtq9+5Cdatb5KgA7619B2s2bFHVn4UTy1Cak404VxxyxKhWV9ejobkVsxYsQHFeGjKFXnZLEDUNh9HR2YulZ5+P1PRETCwqQuPB/ehsZ5u6C3OWLEG8/oJF6KGrvY9GV6NEn6iAklN+PkJJCUnEIjSRqLW4sEBo14GWI40IiMO44OxzkWr1YdO6jfBa4zEhPw9TppRj366d6BK65xeXoKJiMpISnEiUiPZgbS2am9px1jlnIiNVIuZgEIckrar6CErLS5Ga6oLV6UJFyQQcPHgQrZ0dSExIxbw5c2BTU0mKLhktwY3hI8EybRUZKS8vxt7KajS3NWFCqTjHk3MRFuP71qtvo6SiArW73scLr6zGjh3bsWXTRrR29GLeooVwCm/5F+2FLmrm89VeKHvR+qSQslrBJoWUEQQ7rrDaim00Pk1SGqARMGIMViiOZVCBsSVXCxVpI4uqZuESgiPgR29bM+697wF0ONJx683/hvF56TCHfJLTDK9FogJaKvEsw6Yh1T6JMOkqaawelRWjBbZqhuBXxswWssMaCIkyZFTBNnm20Yloh8Q9kvtySEqep12ljx+8KynCnq9EAE55Io96X78cVRIkBlnN5CvPTkeFVVdsB+b8slZR+n6zmMggZUwMg4VGgm22lLuQMuragLKNif285d1lzXZjFnC2dwcl2qLzqGVQ8gstLXJdk9CZVWiKP6cq5NWVyAn9ddu8SJZZZE7Rzs9fRWPOxRows62dMm6Gz2JWczKbhIsihUJV3VzAmh92uuS1JEHTPOKwc5ud4jhkqJ/5xJBzBFV7iF24AB97Uct5lAnWGKk7ncq8iVKQw5rLIh1B0UZSFsOih4I2j+giSo4NfgvLrEfKl/BRyp5Zyhv7Q7IcslyfDLYgiqYUjGDEpY3PAfirDQ+PsegQZIJhdo1zjGNjGXzXYwXLoCmVE9vUBgcGsWXnTqFvH7JyclE+qUyiBZfkEPpQE3ItSkdXA2qqcm/YgPIIaSnKKXLtYV7wHAOkvs537BN9vNAUiTynbA1vM504jl6R9fBzS4oYUZKGxpL62EjX1+KeThmGcZVhGmhwHbmuorXg+FNPWWgaDUsLZW+k3Mma/xFHhoRjpHw8HUfk1mkio1ypw5G8ipcRKWabIY9qR4hlhAZb31tZ7RiiFORwhNuyUk6/4iW3yT0eG+ZfJOeIlOhG9BnfjwTPM4htLISRzkUz5lQD35xjGKu3Z7TGlSIRv5mWFYVWFBF/P4jjjS8XnZsYVozqqrKIMuQhfYPIYuQ5uaHePvI6/ztJ+jAajNzn8RiOh6K30MaQOypTTbXhlGH5+yAMN9CQwuNB40uZV3IvjFXNEhHjqwb+UIb3w86MITqgpWAYLJWGHvpouThZEDXz+RrkHLkcD11UjCPGmilG9HGKQkhhMqtKZG4IhyKUUhGBHGTb1lH6MJexkIZaOVHJDdNR7w+n8XoGvQUjNo/bOcnBdzEWA8fvj8Tfyi8Ltfwxx2L4IIbp80FKafoZVBy5GFsfZT71UUqwcVS26Pjrk+UkLecxRDNGctfQXwYDT00YVPing1GHWrgdiZCH15FFtodZoo/xkYYL2akJNaNRpApNDS4u9DDMpko1SCXQNJY/labPITR9tdFWJ+gMKk2tZV8N8EF6q8OR45F1tOHveT79HpEdgWrnVbQZeQ63ddpwqk4z0lXK0XNkPUzWGD4CJJEyiAK9omrR6iUiZZKuncSjukHRVacfbz5H8kFtG+eodJFicYbUMXW+zhtDdMLgkWYT9Y3BL83LD4POP7b5esKMr0KEdixUJKQuazqRxY2G5Vj6csdYTlUYRvZYGui9iPLinxCOn1uodOX5yzaVm1rkuBhv1d4mF1Ntu0rxcaXXBkh/o5eoMUVbNMEohHwuozCqd5dnNfaPRSQfD8nCKnxC7QrBSFc1D7Dssw6Bo68ZM+kQx95HpURO5nYMHwXSjKKjaEcaMk0fElBiKVuRbcmjBtiRDDxCEpNPw3Q/ds1xALht8NLgkbqfTjiaN4boAvmipxIc3jfWLHeq7I3A8Xwcy3w9QcaXBNMLPV5NdzKB6k4fCZIbFqsudCrP8DmnOhixGVGEYhGHVlSGlNuklRZYlRYWJ0b1PlE6SGAoOcllkJO9meVUXtJkYX5+O0cwo1aCVGj6POO+o4+RBW/kNp+V48F+EOyxTaWsj/F1jC0V5TNdrmMy810NBS7XiqTz1UfcRqDpo69iLDF8OI4lHks6JdWAribmQopq+rMmX41wJAqYucmPD1W2kfM4TCjPPlYWhjVMDNEJPRc3DbBRnsh/s5YBlfbh+FvHxgJOiDYhyVgkuKhSEymKqvlSDAu9HV8wBL8syiooGHmN5VQFVQnpRWhFw8VQZlrx0PgyEmAuPUSiMsfKuTGOMUFDGSqhuaKs/ND4GArMuL6CXI6OULTBKITGc/6tqJd/x7xTZF+JHtNlbXjcvC6zqVTJoPPw1wyvl6NZ6W29cDuGv4n/gUSKmlS4pLnQ3wD5YBEZPZ7Pap/bPEeWo5GvcUxg8JR5YohOqPJH/imeK+7Jtublh8mMwX9jPVZxgno764JFlcfv9kjhvv4+PPjgwzjS2IC0zDzc9PV/R1Z6miqELJDqm0qJW1R1tCz8tmtMFieD2myzimySPtxWYkkPMejFnr01qG7tRBwHeAj4MH58CQorpiMw1IaVL7+C11e+j7MvvwTWoX5YLDYsPv8TSLWG8O7qd1DX3o78rFTUt/Tiiis+i7hwF5Y/9wxWbqjEzd+4FbNKcvHGG2/jrdXv4frrr8Pk8kly4wAs6oHE0IyWIuP9WR0ptAmZOKWgSEEogA1bKjHo70fQ50F+0RSUloyHWdJZe2IL8btdypgfbR0tWP7Salx/w+dgk2tU7duPLdu2o621ARdeeS0mF4+H3zeE7TsrRXaD6OvpQcmkCkwoyJf7+PGHPzyOjVt3qZE4b/7KV4UupUqGuWjayM+YFMr/Ger1BaTGUVII/bnNMu71DOGddZuQkOBEf38/5i06A6nxLsmka1lsItP7axtwuHsQDn+3cMyJeYvPQsuhavzs/p/C4XAonnYOhfCjH/033nljhfBumyJ3yOdDaXk5vvSvX0LrkTbsqqxCUoIocLMVc+afDqtEURyEny5SDNEF2gjOOFZfX4c331mDg3v24rwrPo8lS+bBGvaIrreLDPG7fl3Ggv4hPPf8S5iz9FwU5WWp9JPh++2o6e3Mkknzy5GtuG0NBtFQsw8XfuJK3HHnXfjaf3wD6SkpUtg4q4WO4AxzTUVntGGOXUQ0uCgMNcSkbBqTTHDe0o3vrsKLr76L05YswZnLzsKSubPw2rNPY8372+AQhVY6LgdmD7DgrPNwxYXnoHbPNvz+iadRXbUf2zbswuWfvRZnnblAKcS+wRDiEuWc/CyEghYUlE0FAn60t3Xj5q/9pzK8nJA+FKnS0+p09KDuz+90zXpYwY76/Xjl7Y1YdPpizJ41BX9+/I/o9HJgDA7mL4pdsls4zqZ/EGvWvI3KPQfgl3fp7e6E02bHlVd+CtMqyvCXF15FMBjAvsrd2FvViFnz5qKirBgvL18BTyCI5qZ6TCorxx0//CHuuOP7KCmbJHcnLTgQCXmkzfApDSWjYgwNZchaLNm0isy+9vKL8MKFhfMXIDnOheXLX4WPTSJmrQvM4iT+6cmnUDZnCc6YNwNvvb0SbX1B9Pd04bbbb8d/fed2fPOWm9R0gWZnPMomluLb374N3/3Ot3HhRZegYEIJwgNdePLJ5zFh8gwsmD8b1bt3YuuuvSILFik3p6hXFOWgZg8K7+sONeDyK6/A56+8FA/8/EE0dLrloJTfEPUOIYIkhrq6cgfWvP0WekM0yhxAaOzaghNmfDnCkB4pyIqgdwjLn3wCD//yl3jz3fUwORNEuYryFMZYwxyxKSD51J6cK4UoUrbHLgzlxXcVFsiab88RgIZ6OkTBPIuKJecjK84uhtGChORUUTbT8fQffovuAaGQKL+gWRyXsB128biyc3JQU1uHTnePGJa9Eum1wWRNxZWfuBQpVi8pCgejRFGSYW8Az/51LU4/71IU5WYq+nNqQRNHglL80m7QqIBKXUVKFjXKDZ9l3bsrkFsxS57RgrTEOMT5WlBZ0yayZYMl4BPS+RG0hLDvwEFkZhXBbnaoODg+JRETSgqQ5LQiLS0fUyZPUcbahSHs2r4J7X0eoVc/0rPyYJfyv/Ktv+LBXz6Il559RjlCIVbNc7Yc+TVGAjuVQToYLrJChB6U26B3EOs2bUb+xHKYLRZUFBdh18Z16PREnGmyVcS8qbEOjdVV8PgsamYqp9OE8mkVSE3LEBlPRme/F5MKC5AgPJsxaxrSkxOQHmdBXVMrJp42Fz1NDahra0N2fh7MVgemFI7DO6JP6GwdP1JeDNEDn5TTGXMXIT0pBVPmnobycUnoGfCLtnPBYuIoiGbRQxZ0d3Sh3xNUE8vQn6YNoU5UAjQGcWKMr9CKVQgcwUS1/EpBu+kbX8f/u+aT2LzyLTzy0G8w4JfiLHmo2FitoPLJwtiLW2NW1fHF1MvpNyWNuMUOKRxEsbm1BY2tXRhXkA17KABLiMNBmpE/Ph/9rfWob+9T1GGNAatrOEfqzj37ccGyCzBz1gxUTCvEbbf8G15bsQqJGVlISnEJnW1qWMaQeKD3/vBOFE6cjry8bDVlG21/SA33qRWpXHpUQSqEOBykvCGV/Z6qGiRmZYqB5TCENiTFWdFQXauqrMLsRCBavaWzCf1+KwrGiVIWOnKOm7DVBq8U3l1b3sPzTz+L3PwJatjD8ooKzJ+SgztvvwOVB1twoXjidsl32eWfxn9961b0tB0Ghzvv6uVY5eSMRHZGL2m1d+pCG+Bjtygzg31d6Orqhy0hXSQ4rHjU09GKXqGhKSh8FD4FXIn4yr99Eb+957t4+Inl+PwNNyLFIU6NxSHyZ4Uz6MGGLdsxY/ZC4Z/IodWi5lMe6udcwW5kZWWg+cgRBKxWhG0i/RIxpSXY0VB7GOJPyhmj6DTG8DcRl5SK+IRkkRiRA/8gkjJzUJCdipAKPBjfAgHPAPZLWZ9UMV11A1IdSWWtmy3HJk6I8aVBsUqh4yw5nO7NZzMjZVwhFi4+Ez++7Rtoq92Nwx29CIgyZLsdjbAuyzRC4u3IcmpAk1//agUf8PtVNbwlElmYlPcnCkwMMMQQB1RNqxn9PZ34yxO/x7vvbcfVX/w3XHjmPMS5nPjK17+Gm274Ap7+/a9xz0/vQ5coKY6TGjRLZBv0IyMuiD/89kH0eHzwWGje6ABIJMKxeYUPQdkePZACdEb4LDrO4lS8PptfCiFp4VDpvoBf3A5x0YREgaE+1FTVYvLUyeA0dKxC1w6NTZS+GQUlRVi44DQ8/tBP0NwzJDLnRFHpVCyYUYo3lj+Pqj1V8JmcSEjLxWkz5uC2b34NGalxqNxXL/dkjYx+LtLmVI9+NTRFDKjP20J6ukdOu0gSsdzDL04jq6UlwcTe+LIdH5+KKy6/CLs2r8HLb6yCXwSTdV1sfjGJ8m1ua0d2UZE442aRVTlPeFl96AjyxKmKMwfgD4hDJIZcm35Gu3Kuml5QZCXGmuiEMInuMN2jsNmPql17cfYFlyHRJSVd9jlHd0j0Uu2+XSgoLUW8Q5wxdRplRtxoVpmMUZyQN1NKUSlBUe1CQJphFjOfEDIrLRkVRbnirYohMdG7FeJzQG2eJFZYF6xTBVRkjKhkTWGL0CdFIocOiRoCYkA4eYJVtrq6O+BIykZWhkSyIrSpiXn4/NVfxsVXXILyKZPgtATQ3dkJODNw1oXn45f3fgvVG97Huq375R5yJTGuVvFAv/z1r2BCuhl33v1jdId4ZSpHHXVrbabU4aiA1AiqAfO1FNDYFRTmYqivRz2ViAyGvGbkFuVJAWWKBVXVu/Dy8tfxyP0/waOPPYbqA3vw2GN/gGfAJzksSMjIwcWfuAClWfHo6fdg44bN2N8UwOeuuxa3fukzWP7Yo2gZ5CQNduWJ2+0OTJs2BR6vRxlcxR9FF9bHqIRTFse8vfKYZSVl2ClRDTtaBb1u5bB4vGGkJCcjMZGKVGRL5NrT04OnnnkBiy76JB74yXex/d03UVnTIopXT7XQ2NyB5IxM2MTIUoGwUcoR7MXmfbWYctoCWOS6mdlZYtTFAAcljzmIvoEQxo3PhlNEIdbmG51g6MDmrDgxsN0trQiJAzZ77lRY/eI+id4JS3DWO9CLp597Hk8++Tju/9nPxPGtxtOPP46ag0eUIz1WcULejN6uz8rG8jAcIYlifEEMDcnNpLwOSiiTkJmJ/KxkubloUym8LMa60ln5PLI1hgsSX1bpLapyqiajlVW8d4k607OzsezsBahcvw5+Fa0KPQIebNi8EwvOuRjjUhxyKjtqyRK2cXIfMcasuhnE9o2b0dDUL8Juw7iCPJROKICZhlX4wB6HNEeBxHH4xn/cDHPrPvzqkUfhN8UpKfCbWZXH64xyNY96VhpeyosN8846A12V+5TweETptgcdmDcxG5bBblG+QMmU03DrrV/H9V+4DpdLVFU4oRCXXv4JuOziNQflbcTBCEuEn1NUjLy0OHR3dwu95YUtdlRMnY6UeHEAxdB6RQEEzDZFI/JiWtkEtebCrl+0NToWV8w75aCcIdJN0SRSQqWc03G2xiVj1pRy9B05pKhzqL0dhVNmITchDH9/PwY8Uv59PvS6+xCyOJGamooZM8rh7usXPoiLFPThnc07cNrcRXCFxbiKfHOA1UB/N5o6upGdVyBpwsP8IuTEuzDY24tQyIu6NjfmzJ8hxtundEsM0QnWYHg629HS0YdJ06eJFEk5bu8Tp9+CPgkqnInJuOUbt+Kaa6/DDVdfheKSYnzi4kswfnyOSIHuCDoWcULm81UFlVV/okitUpD279+Le3/6cwz4hQkBE6afNhuZyfG6s48UYObX04Ox5YZTt7G9L1LAxyTkzRhW0YDKNtvEtIDRKFgwqWISug8dxsFD1fAGvNi4pRKu+ExcKlGu3TeIzes2YM32LaiYcxrGp6WpgJX0q5dzNm7ZiYCvH/v27oXZmYwLll0E05Abq1e/iU27azF34VJkpyUiRe79wE8fhMcch0ml+XA5bXIdtrbRWI8e5WkY7SIX7ERjoTOSkQF3ewe6e1rFE65D6YyZmFVYgLdXvIi3NlZh4dyZSEp0whnvhM/rx9atVVh2xYVoa6jGQw88hEEq/mAQk2fOQVZaArIz0lFXvQcevx91h5tQXDYDOVkJ+NmP70RdY4M4MlaUFpWhYHyGsITV12x7Iq+ELvQIRpE2ow32PGW5pNwqYye0YK9zUmRi4XhU7twjRrYP+2vqcc6Fn0R6UhCP/+53aOvxY/q0EjkWQEtbFwa72+EL2XD6kkWws8ONfwgvvbESF11yFcS1FGEOiCMaRL1EPp0DPsyeOV3pCpvDhazUTOzbsxe9fZ3o8YVx9llnIc467AzEEGUQveTt78Gd37sdr63ZiNdXvIzXXnkdqXkTkJMSj7t++H2Uz5qPjMw8JIhjFW8JY9176zFjyfnIz2CPZ5bA6EfUzOdLsC2IhVVVIYaGJPL1wGNywGlPgNMqhdfEdj1GfXJcCjCNBwu2noif3/nyyBiEQW1R5vqP0OKlW7NURQ3sAR/2Ve7Cf/3ox5h/1qW4+Us3wuHwS5TghV9oORAIqIjDZbHBKpEdI9uApDFKC/q9orwAuzMeFjFiDI89g12i8MxwuJKF/mEEPQPwDIXgtTmQkOCAwyyRhhg7OkO6LuLjB+/KrlZ2iX58Er1bxTNmtBmWKIfGkk6ZzSWGNmCBLzCAIcQhwSHRqLwfo/+wzwKPR6QnSd4nNAiPW4w4e4THOWATMpg5IWxIrif0ETuAgMUBu51zBks+r9DDF5TrJwhN+RmT0INyKPKrPq3hd9D8pvgU1e/kjVaElFk2KbHcSgwji4WRasgPv18i3aAHJmucBLQu8SPdIqt+4U0SHHZxrCXC9fvYJcsCq8idxUpZ86vve3vFkDocaWrfBK/koRzz6+0wnDbygfqEVZUmkQWfyKrss8e0mU4am0z4lKPZXyGGD4XwCSEfBvvc8LKmzkK974RDot0EiB7zeGGJZy0o5cgDWygIt2cQwbgMOMVG0N07GYpc1E0pyKOacDpfxD9VoJkZxnC6kXoyEPxEgCRVnQ3EYeGAG/UNzXh++WtIy87D1OnlmFhSgMQ4zudrVMdQPAlWF2tjTsVFJampSfPFvHRpRlBX8U7yq5O1gPM8/urrjQ70E+v3ONqOR+MnMJ5M7/LZtbtyFCp/JOXoOUzRi76qPsR9No+wIplnjCzieou5Dbro/ZNDDXwc0FTVdNEYuTcsQXqLvwYNDTeTCepYhE90uripmp5kgzl1P1hG2eSSQAy9geG7jbx3jD/RB+HNUWYJfxRvNZ8YfHHz6L6R95i0kwMn0Xy+MXwUFE3ZkKsUDaVQxFCUjy/ATkFWmCwWiVIpmoZYRqRVQZsXHj3W+Orjw8ZXG1kqNnUoYrQiO7JEK0Y+m34nA8aRY1M/COYzjC9fO6LWFUViOHEg3RXtI8vx0E4QF80RbXwp5fwdPhpDDNGIKBrhKoZ/FGo0JWV3qXjkT9bctzqtsFvF8CqjbLCNSokqzVjrc6i2qLJ0nKH3h9OowJg3ghGbx+1EJZR3fHQ5FvrdDIzMpxf9q5W4poUB2VJOz3BKDCcAQnrNg+MxnKolVdfm6KYnpms5jiGGsQRDi59QMJobuXxUWgxUPkYnFpMe3EFIEzLzkyyz6rXMKjimGdDRG2nIvWEFxX1lYNQB7uiTtPHhLs/RKk7lNY5H1tGGkc8XeQP1S6hjR4+rlQI77ege5YZzQgw7KtoIR0C6ykqN/R5BtNLiZMDxtDu6L0Tmlt4TzpBHQnuaXDJPc0GrpfCI2bdGXs24Vow/0Q/yyFhG7n/YtrE2tsc6Phbja0C1ZQpGEpfbRnoMQiOhBxURbQANrjI1kmahIhKykXKGgLJTFY9zCErif57PV9JGWhfuK1Zo+nOqQd3zOnpgvKuqAYg8K9ecFYXpkiPy9LKW5+cek3nMYjE64NDBYC6dR3LIvlbs6go8gdens6NkUWIuEjeGvxukoTHblObLsVB0ZTr5xnya8mrhIfKE2/xlWzyzcqAZOpqc/IyCPHI2q5Hrj7pnDNGB4/X+8bz6sHRuG8tYxcdqfAkSc6Sx5XR3Y5nA/1tQCZmVEQlLBCyKSIyhRRQPBx0glfjZC0e9UnnF6HIuXxoW5tdKTGIHRV7ZMsgq16NNVbQ/Zj5fQvOCPOESTbwY+SzGtoqRxKmwWPg9Lp+eBZR9vPV7j5zfVU9hxnN5Hgkg8sZDkp95I1SUf4vKw+mMeB9FJ7mOOhbD3wXKjjHH8sjyfRRCU/XFlmyqaQUV34SbpLOkh5WF5aZwkrxQO+SapEt+jmDF64+8tiGzMUQ3ji/H5Jmx/iiMPGes4mM1vgbBg8Fh5W8QmcaDf9w6tcFozSaMoUEZQijgQyBkkYWTLIjCCXnFqPjVDD0BZVwkJ1dKiYnRDgWUcQ0ywiBt5V9NZs38sjCiM+bzJR90NMH7Kh03+uYmIgJaFrgt6jjioKnnlSQOZajfne9IBc5s/JQlAL8/gIGBQTnGRPodkesoUafSl2uQFgGhITuxRWTRZBZHxjAAci9DLo1nUc9jXCqGD2AkzYztyJ761d+Oi+zxl7UwkqyUr8gj6c7jjIjJD6OWgu5RIMBvfkNwuweOXpeg3P6tSDuG6ILm+7DhPbrowwJdc2Lw9OiwkjxxjOKE9HZWJFWH6LfqAmcVovb0tWP11v3IyUpDRXEhkuIThNg2BMXehE1eUY+SN2xVZ3ysXsHHCYPa7Fil/gjjbVnNJorJ58X69evQMDiE7DgHBnrcyEgfhxlLTge8zXj16eV46tk38ZmbvwhrXxva23tw2TVfQo7ThOeefxbkRH5aHDburMW/3nQrki2dePIPj+K5NzbgR/fdj3mlmXj+ub/i1VXr8B9f/xomlU2URwgIj/gM8ixKUY4CSAxG8UKbkDyPTQ1K7cfLr69BfLINHrcbKTllmDd7itCJ39365HHNakrAPzzyCFatXwurPQG3/Pt/Yu70ydi8aSM8JhdCQz0I+4NYuuxMbH1vDX7/xLOwSpRroqEW23vXz+/BQEc7aurbkWLxoK23H2dedAUSLX65hx1+WXNgCUsw8p3vGFYI/yhoOI8c3Ic/PPkcPv9v30BBVoKQScWx8stZqsR58g/irRVvoaG9F9fceAOcYS8OVB3AXXffi/h4J2whNw51BvHg7/6MgoRB/Pb3T+D1VcJTmxVfvelfsXjuLOzd34j6tlYkOQNoburBBRddDKfDpu41WmIbw0eDRZqfDFoYNJht2LJpLdbuaMIt//ovSib8wjOblGWvdwAr12zHgd0b0dPTjS989Q4UZYp9MHHWOwYk0c3c6OntrIyyeDFyeXowDilkTQ0HcP9vn8S0WXMwY8ZMuBITJB/n89VFlAqX7Z1k1NHvO8csIu/HBi2lMWThJtVUeBCvv/QXrN1Wh/MvvQKLzzkHn7zwHGxZvQIvv7oKtrhkTJtYjHEZWTj9rPPwuU9fKUZhAL/89W+xc9cuUYCtuOrqL+Liiy9ARfkkeDx+uBKcmFVeivyc8Sguq8DQgBc9/V7c9/MHMbmsBBYTJxCg08Nepjr6GxVQBkiIMIcmZZVjGI37tmNTZT2WnnGWmqP4pb88gZYBHykFzmpklii2u6kR02bOxRN/fh6P//EpzJp9Gnpam7F25TuYOW8hFi2cje1bNqGhux+p2Tl48OFf45GHHsAdt38HS5aegxS7Gc/+8U8onjoPZyyehyOHarFp2x55BjEd5JE8iZqsgdX9aj+G48GamOzkONTXHoA7xHGqhlWLlnaRrKBPjKYDTUc61AhmuqYmjEcf+yN+8ctH8PP//jGWLF6CxIxEdHYcxoSSYjz656cVT+fPWwAM9eKZZ57H5OnzsGDeLHR1dWL/gTrhk9whZnmjFHS+gqrT6GBnK9asfh0DHpf4srp5SNWISJFqazmC0xcuxje+9lWUFmZi9ca9ShOdGAMVHTgh70Z6mkVRUYGye0vA04tHHnkQU2YtRXa8HSYfJ8PjMJIS+UnEy0HTOXINJ2HgIykFPKYReT8qdH5HJLsURY7n09fehheWr8DMsy5AolDPIgYgbLfjjDPm45W/PK4mIGe87OeISxwxRgyQKz4evb2DCFjC2LxjE/bv3QtvwInzxXBnujgFgQVWcWzofXr6hvD0i+/i0s9eixSHHmGIBYQzG6mOLqNsXMJqPl+zeMUcZyuINWteQ8H0uaLcgQSJgLIs/dhe3STHRK7knTgy2nsrX8Ht3/uemnx9174DUrAlanaZ0dF0CLu3bkW7RLWp+QVITc5G8cQp4Iy/jJp3VO/FhKkV8LTWo7O1E6a4ePglkp40rhBbV2+QqNkqSkMiXs6uIg7h0UnkY/gALFYbHCKnqg1XeHPszGS6hscmhtdMh0mOC6Pl14yJ5eXcVE0LlXXtKC4tloi4A+tXr8d9P/ohvn/r17Gtcj+8FuGazQ4b3Fiz6k24+0RuzWHkFObLlSm/w01ZMUQThLliBwIsbzv3Yc7c6UoaWH4tUsb1ACpWjCssRVISm9eCSIzPxbzpxQiqYUbt+hpjECfMsRCHVpQWWzD9qKs/iIMHu2GzWvD8nx/DL+67D+09flFsEm0pZUsTTU+YCjesjbL8jUlQjpQsaeVDzaOVEesJOPZtm9BmANnZybCKEaFw+ixmZGZnw9vbjsb2PlE1ZhFctm324MChI9ix5wA++6lPYtbM6fjEZWfj+/9+E3732yfkPDvsCXbl6ATE5Pj6u/Htr92CihlzkCBOkMXsl9uzYlCUpuIVvdTRBAkjTyGFzqw+dg6jpu4wXKlJaj5fU8iGJFHwDbVNaqYU1TNbHIbPXns9nlv+FBZMy8dP7/wWqpsG4ErPxo1fvha/v/+HePLZFTjvk59HgoiYXco6xxuXm6D+0EHklxQqGvQNueHziwMjtHXZ4tDd3gKPegbyRqgiMknqjFGp/L+DJKLhJbnkR9egaHqRfMqxE35ZyDJRDnq2GtZeaD6bgr1Ys207Zs5dBIfY1U9+8mq8+NwLOGPOJNzz39/HgfoG+JypuOnL12Hr2y/iznt/gTPOvxzJKSmxGomoBvkSQuXWnSiumAoXBUCVJOG7yIAK0JQMWMWh6sSf//wUVq9+T4775LA2zGMVfOt/OnQ1MidoN4ui86KzowOpaROxaMliXH/tp+Eyu/HWyvfhl8jNGMtZnSNFVqk4iepODVAQjV9ZiwKhHJrVDENMYWQsjgmjUlJJDprFYSGG+t1Y+fqrONjYim9+9/tYdNpkWMW5+ewXrsX9992DvRtW4zvf/g5aOEmM5GdvUYtEjsuWzsTP7r4DjV19GBSDxm5dNP82NZsMOzONnrDr56TiJv91/YdF5Mhj9qjIHSZOUReE1RKUHJpq/CbajwTxmpNw9VWfxdnzpmPr9r0IBcLo9IRw7Y03oq2xDk8+8Rjc7IjGMZvNQbS0dyEUdCE7OQkZuUUoKc7Dxrdfg7tbHJrGQ0jOzFaGmnehY8KtoN6I4UOgOtLQ4xY6yabaP2oPeUzSlTlmbUXkOOetVvkphUNdGOzvQ3rWeARMLgxaJcrNSMXlV30al5+xGDs3bBFn1IPOzgFc9snPID3egl/84rfo7/Oo9uYYohNsSuxpaYYvaFUTKfgCot/DflmHEVCdTHSgxS83khNScdVnr8KiRafhsYcfhdcnytDEmrmxWe5OiPEl9JysjGLtSE7KhdPOyCUAq5TIvAl5aO/sEcKK8VXej1a0dIZHu9rz44UWPhVvkgZCgOz0VGQkOdDU3i9GhRNOWGATAWxpbUJc2njkZjkRsviRHJ+FK668BovPXorUrFQxnkNoamiEB4mYOHUqHrzvu/C3NmPd5j3CA7/EtkEgLgmXXXMNLlk6DXfc9m00D3DyAFF+ory0aqRAsHPD6CFkEkWsZEcWccxKygow2NkplDCJLxxCj5TFicXjYQPHvjbDb3YKnWxynFMHOjGpfKIyzg1icF9bsxXzFl+Au2//Ojr2bcDe2mbJLzeRiL+6ej8KJs5FPKtBLVZ845u3ojgjDVWVlWjobMW8pUvgkivr/gfadLCdOYaPgpR2cQ5Zellbw0/gSDmGvTSySsUqo8tEDebV/TwCqD3Uhdz8cTCZB5gocij6IkC30IXSikkw20Lw97bi8b+swLQF5+Kb//kV5Cfa8a5ESQFxyk6gKovh/wQTVr35Dl544Rn84Ec/wF+e+is2r38bzzy3XEqUTx2nQ6aCCxEIizMeZ11wERLjOMMaAzga37GJEyaxISEojSkLXmHBeCQmB9DS0YlA2IGA0HPmVClQUuh0GxELJdttyAApcHLiiDI6tkCNw0WpI4qcVkpkBVtnGXFdefn52LNmFTyiwPj1i3doAO9t2o3zr7gKuQkikEHxGi1sDxEFJ0EiI2aTmN3d23dgb9VhZbSd8S6My80RQ56kDFcoxBl+LBhypOOaG67BlJQQfnLn3XD7bXJrMWyMtkl7GunRBBW00Ic0YVvrgnPPRVflHolwg3APedFrycTsklx424+gobVP3msQLc1H4JbHDvg9GBz0Y/7sybIjCV6+cxjO5GRMLi0moWAJmWH1hVC7vwoFZRNVAQjI+5viXDhj6TzY45KRlVeEuXPK9CdZ/BNjTX7xedQDxvABkCoMfIXcUn6F9mKIOY9ra0sTOrt71YAZLNukY4ifw/EkzsYl8maRiPbtTXsxfa44POEBOH29aK5vhNfPNkAPOiQiXjBvvoqs+U2ER/hssTsxfXIhXDa5Ib93V2UqhmjEZ/7l87jnnntwx90/wBf+5SrMX3wO/uVzV4ge86OuulZ9XuYf7ELPkMiN6Ci3ZwAzTpsnjrG2IWOVtSdoPl9ZRIOyzZfKzWa3YNyEXOzeuRPdXYOIc6Vj7ulz4DBJIZI8qqezGF8zO12p6IIaeCwrOb6fvLhauKur3IUdImwmlEj0ZhsawtZN69HQdBibd9WgvOI0nHXO6cBAv3iOG7GjthoTJpehIDNDOTCkY2dXL6r216C74wh276nC+OLJWLpwCfzuPqxdtwr7DjVj6rSZyExNQryov+effh4dbj/KJhYg3sXviKNvPt+U5HQ4RUHX1VXjUMNhzF+6DBNynHhvzUps3H0I00qy8fivfoutu/bB4koQ2k1FfnY6MpMS4TAHcLCuFkdaOpCZW4JpsyrgkPcb6u/Hrv37JSqmDNLzhpqgfafIZ/+QH5dcdBmcdjpFXNQM08IqicXY8Yo8i+EDCIkibaw7gNXrN6No8gzkZqXAJrR75i/PwO0NYeKEQniG3Nj47ho0dblRPmcWEpwW2IS3poAXqzduwznnfQI2iXSC3n788Xe/x9od22GKd6Bc5LhgXD7skj83OwN7Kneit6dbIl4LFi9ZDCdrL1Q50s8SQzRBHCxx7P1WVjcH0NnchKZuOxbMLobX3YPf/PI3mDx1Gmqrd+DRPz0LvwQWTmcC5sydB5uVfYE0Y/U6ejFq8/k2Hm5C74jvfHUFpq5GoGFhhyqJL5StCcIlh8TIWFi96FNEZfUiTbb+zIjV0JJxrBYkg9pU7JFNvqwildom9QKqvfFIQwP+6wc/xISy6bjlppuRkBwnBiksCko8RckcFOXDPgkWRhlhFUNrestxtqWzmpTf0mmD4RW62hEUg8ZWUjOrmk02eCWfSRjFHudB1jgwQhnxZB8neFdWgHPi9IA4AuwNqarDdXgvW2IGmR72SM6g/MVL3iHltAXl3Ri9WySVkReVMaszSVVWutOxYXUzb0L3TlFLiMde1QybBvt64IxPgFkKkdxE0YTty3wmVdmsojbZihnfD4fQnEOg8ltOj/CCRtUshlTxVPbJE7bl83v/gLhTPpvuNGjlecInn5myKflUZzt+4x2C12JFQHhqCwifKNasGSPn6DCpLeoL7eBrvoxVpXESg2yRJSiGlLqInR19phRJGxQZkfIp5S9kIQdFP4lzy/JNDUQdyBNVbclJwNZRm1LweOMbwz8O0lTbT7bGhtHT04u3V66CXwxCUekklE8qQ3KCK6ZmYoghhhiiANTFrth8vic/SFNV9SuLjocJvReSSJfHLeLlx4xvDDHEEMPo4x81vqrGJoboAr+X1DMVkT3azOpPN1jxaqTEEEMMMcRwsuIfinyNU7imUWhqakFvX59Ki+H/BlKWca1qd1V0NthDkysGWFZGSgwxxBDDSYmRZodK7WRFxAY6nU4UFhboIOnvfJ3/s/ElVG9nj+7tbFwsFp39YyD9uBj0G656jlE0hhhiOPkx0n5w4KCTGZyFiQaXvZ3T09NU2gk1vsRIAtL4Dg2xB2oMMcQQQwwx/G0YhvcfND9RBb6D3W5XxvfvNbzE/8n4cqHV7+3tOxr5HoVcVV1YHkZuopIMqO5C6im5xWORJ1b5eEzvjllEyBEZcyBCA+6zmzM/oIhkiBBCzdrCfPycgofUbuRkBZ1vmM76GK/PfLyeGqlJnc88IvSR09WKHbgip6p7CdTvyMt9XOA9R97PeC7+qIdk27d+N/4cpZXsK5oYaUdfKLIy3suQMXVAcurkSLpO00Nc6lwGjLNi+CgIhdS/UEkR6liZ+lAdIDhW1snXCJUlf2RrOE1wNL9xL4Hmt96KIcqg+CRQOkb4S25JQjAU1J9I8pDiL5dIuY7w0SjnujRGJwwbaLVa1Xe+J7zaeSR4+geMr7okv6/kg8kixx/+9S/Q1DUADj3n9obxqRtuxsIZE2EL8ftTizqHX3Kqfr7scKRZNuag3kokiiNJUclzCJewuwebt26APX82ZkzMFKb4hE5mNV1ec2sTDra6kZeRhYL8DDnmQU1dHfbVdQD+QTicVpRPmYms7Ew1gASHioRsOYK9eHX9OkxbeiGyzJy6zYpwwI1d77+Dhx9/Bf/vW7dhXtl4WIJh+K1B2Ae6ce8996PflYcb/t/VKMxI5tVk0XxREmWIyt8rXf9byOV5N3U/BXFEQmEc2HMA9V2tctCH4ikLUZLp1N/0hq0iP0H0yrO/v2Ejdu+txbTZi3HOwhniX3A6iSD8Ax7UHmxEr9CzrLwM8ZYwqnbvg7u/G76gCWULTkeGS+gVGkJ3cx3W7ajB7GWXIsvG71IJ/mpeqckeDIsSw3EIYqC7DavXb8fMxcuQm2JRMs6p44KKV/x0jr31g6iqqkJDixtnn7UIvc01+OnPHxR+OSW/D73BRPzX976PvMQA7H4fGo+0oqGzDznjcjE+J0d44EcwMIC6g81od3tRXjIRKUl21TdRTc4SQ3RBlWlRVcEePPGLX2FvfQsQl4qvfv3rKMhMFrngPL/CO08YlVXV6BzsRNBvxqx5C5BhN8PPCVWEuSdI4/zTQOP7v4t8gf8PX4ffMq3a3LYAAAAASUVORK5CYII=;" vertex="1" parent="1">
          <mxGeometry x="890" y="130" width="323.48" height="104" as="geometry" />
        </mxCell>
        <mxCell id="HWjWSvEx0D91bDQYh4Uh-36" value="OR" style="text;html=1;align=center;verticalAlign=middle;resizable=0;points=[];autosize=1;strokeColor=none;fillColor=none;" vertex="1" parent="1">
          <mxGeometry x="950" y="315" width="40" height="30" as="geometry" />
        </mxCell>
      </root>
    </mxGraphModel>
  </diagram>
</mxfile>
